<svg width="17" height="17" viewBox="0 0 17 17" fill="none" xmlns="http://www.w3.org/2000/svg">
<path d="M3.91235 3.05579H13.427C13.9804 3.05579 14.5113 3.27579 14.9026 3.66711C15.2939 4.05844 15.5139 4.5893 15.5139 5.1427V11.6525C15.5139 12.2059 15.2939 12.7367 14.9026 13.1281C14.5113 13.5194 13.9804 13.7394 13.427 13.7394H3.91235C3.35894 13.7394 2.82809 13.5194 2.43677 13.1281C2.04545 12.7367 1.82544 12.2059 1.82544 11.6525V5.1427C1.82544 4.58928 2.04544 4.05844 2.43677 3.66711C2.82809 3.27579 3.35894 3.05579 3.91235 3.05579ZM2.49341 11.6525C2.49341 12.0288 2.64235 12.3903 2.90845 12.6564C3.17455 12.9225 3.53603 13.0714 3.91235 13.0714H13.427C13.8033 13.0714 14.1648 12.9225 14.4309 12.6564C14.697 12.3903 14.8459 12.0288 14.8459 11.6525V6.72864H2.49341V11.6525ZM11.1741 10.0665H12.676C12.7646 10.0665 12.8497 10.1025 12.9124 10.1652C12.9747 10.2277 13.0099 10.3122 13.01 10.4005C13.01 10.489 12.9749 10.5742 12.9124 10.6368C12.8497 10.6995 12.7646 10.7345 12.676 10.7345H11.1741C11.0856 10.7345 11.0003 10.6994 10.9377 10.6368C10.8751 10.5742 10.8401 10.4891 10.8401 10.4005C10.8402 10.3121 10.8753 10.2277 10.9377 10.1652C11.0004 10.1025 11.0855 10.0665 11.1741 10.0665ZM3.91235 3.72375C3.53603 3.72375 3.17455 3.87269 2.90845 4.13879C2.64235 4.4049 2.49341 4.76638 2.49341 5.1427V6.06067H14.8459V5.1427C14.8459 4.76639 14.697 4.40489 14.4309 4.13879C14.1648 3.87269 13.8033 3.72375 13.427 3.72375H3.91235Z" fill="#4CAF4F" stroke="#4CAF4F" stroke-width="0.333867"/>
</svg>
