<svg width="148" height="145" viewBox="0 0 148 145" fill="none" xmlns="http://www.w3.org/2000/svg">
<path d="M73.885 127.287C105.456 127.287 131.049 125.793 131.049 123.95C131.049 122.107 105.456 120.612 73.885 120.612C42.3143 120.612 16.7212 122.107 16.7212 123.95C16.7212 125.793 42.3143 127.287 73.885 127.287Z" fill="#F5F5F5"/>
<path d="M103.147 49.4148L100.222 48.2355C100.222 48.2355 96.3626 55.273 95.257 55.6297C93.7534 56.1132 90.64 57.4576 88.7944 57.6935C88.5438 57.9883 88.134 58.9052 88.1723 59.2384C90.6518 60.0668 96.1002 58.9671 97.2677 58.1004C99.9241 56.1339 103.147 49.4148 103.147 49.4148Z" fill="#E58A7B"/>
<path d="M104.046 47.8139C104.591 49.8275 101.637 53.8785 101.637 53.8785L97.766 51.7085C97.766 51.7085 98.4913 50.0428 99.3757 48.3475C100.794 45.6086 103.424 45.5172 104.046 47.8139Z" fill="#4CAF4F"/>
<path opacity="0.2" d="M104.046 47.8139C104.591 49.8275 101.637 53.8785 101.637 53.8785L97.766 51.7085C97.766 51.7085 98.4913 50.0428 99.3757 48.3475C100.794 45.6086 103.424 45.5172 104.046 47.8139Z" fill="black"/>
<path opacity="0.2" d="M99.302 52.5752L100.826 53.4302L101.095 48.7513C100.207 49.4324 99.5821 51.4844 99.302 52.5752Z" fill="black"/>
<path d="M101.498 46.2985C101.498 46.2985 98.4854 53.0028 100.243 65.4857H112.115C112.304 63.6637 111.679 54.7718 113.94 46.1864C112.638 45.9319 111.32 45.7635 109.995 45.6823C108.315 45.5849 106.631 45.5849 104.951 45.6823C103.786 45.8005 102.632 46.0065 101.498 46.2985Z" fill="#4CAF4F"/>
<path opacity="0.2" d="M101.498 46.2985C101.498 46.2985 98.4854 53.0028 100.243 65.4857H112.115C112.304 63.6637 111.679 54.7718 113.94 46.1864C112.638 45.9319 111.32 45.7635 109.995 45.6823C108.315 45.5849 106.631 45.5849 104.951 45.6823C103.786 45.8005 102.632 46.0065 101.498 46.2985Z" fill="black"/>
<g style="mix-blend-mode:multiply">
<path d="M98.7448 124.215C98.7271 124.533 103.229 124.79 108.798 124.79C114.368 124.79 118.902 124.533 118.92 124.215C118.937 123.897 114.438 123.643 108.866 123.643C103.294 123.643 98.7654 123.9 98.7448 124.215Z" fill="#E8ECF1"/>
</g>
<path d="M106.67 115.849L104.564 116.664L106.378 121.35L108.484 120.535L106.67 115.849Z" fill="#E58A7B"/>
<path d="M116.06 121.948H113.84L113.026 116.809H115.246L116.06 121.948Z" fill="#E58A7B"/>
<path d="M113.687 121.691H116.181C116.224 121.692 116.266 121.707 116.299 121.735C116.332 121.763 116.354 121.802 116.361 121.845L116.682 123.817C116.689 123.867 116.685 123.917 116.67 123.965C116.656 124.013 116.632 124.057 116.598 124.094C116.565 124.132 116.525 124.162 116.479 124.182C116.434 124.202 116.384 124.213 116.334 124.212C115.464 124.197 115.046 124.144 113.949 124.144C113.274 124.144 111.885 124.215 110.948 124.215C110.01 124.215 109.948 123.295 110.334 123.21C112.068 122.835 112.74 122.325 113.318 121.83C113.42 121.74 113.551 121.691 113.687 121.691Z" fill="#263238"/>
<path d="M106.316 120.931L108.675 120.241C108.717 120.229 108.762 120.232 108.802 120.249C108.842 120.266 108.875 120.297 108.896 120.335L109.78 122.104C109.801 122.149 109.811 122.198 109.811 122.247C109.811 122.297 109.8 122.345 109.779 122.39C109.757 122.435 109.727 122.474 109.689 122.506C109.651 122.537 109.607 122.56 109.559 122.573C108.701 122.809 108.126 122.953 107.053 123.266C106.313 123.481 105.558 123.832 104.827 124.065C104.32 124.227 103.129 124.233 102.513 124.233C101.602 124.233 101.398 123.272 101.79 123.227C102.778 123.118 102.911 123.168 103.456 122.894C104.349 122.504 105.157 121.946 105.838 121.249C105.967 121.103 106.132 120.993 106.316 120.931Z" fill="#263238"/>
<path d="M89.1659 57.6816L86.7247 56.6586L85.7194 59.3651C86.7199 59.5175 87.7378 59.5175 88.7384 59.3651L89.1659 57.6816Z" fill="#E58A7B"/>
<path d="M84.9086 56.5879L84.8438 58.3863L85.7194 59.3593L86.7247 56.6528L84.9086 56.5879Z" fill="#E58A7B"/>
<path d="M106.959 116.247L104.846 117.062L105.782 119.485L107.894 118.67L106.959 116.247Z" fill="#CF6F64"/>
<path d="M115.246 116.809H113.026L113.448 119.46H115.668L115.246 116.809Z" fill="#CF6F64"/>
<path opacity="0.2" d="M99.8651 62.11C99.9093 62.6436 99.9595 63.189 100.024 63.7492L108.851 60.8835C110.23 60.4749 111.428 59.6087 112.248 58.4276C112.283 57.6404 112.327 56.8119 112.395 55.9481C112.425 55.5294 112.46 55.099 112.498 54.6627C112.537 54.2263 112.59 53.7428 112.646 53.277L99.8651 62.11Z" fill="black"/>
<path d="M102.749 52.4397L102.454 52.4043C102.628 50.9302 103.727 49.7686 104.886 49.798V50.0929C103.872 50.0722 102.905 51.1189 102.749 52.4397Z" fill="white"/>
<path d="M104.32 55.1609H104.27V54.866C105.284 54.9044 106.236 53.8459 106.393 52.5281L106.687 52.5635C106.531 54.0052 105.467 55.1609 104.32 55.1609Z" fill="white"/>
<path d="M109.83 40.001C109.415 41.6255 108.925 44.6003 109.995 45.6823C109.995 45.6823 109.247 47.3304 106.23 47.3304C103.474 47.3304 104.951 45.6823 104.951 45.6823C106.785 45.2518 106.817 43.9133 106.575 42.6456L109.83 40.001Z" fill="#E58A7B"/>
<path d="M108.504 41.0801L106.578 42.6456C106.638 42.9369 106.673 43.2328 106.682 43.5301C107.245 44.0903 108.374 42.6721 108.489 41.9469C108.547 41.6613 108.552 41.3674 108.504 41.0801Z" fill="#CF6F64"/>
<path d="M103.267 39.9803C103.401 40.2125 103.582 40.4145 103.797 40.5738C104.013 40.7331 104.259 40.8462 104.52 40.906C105.228 41.0623 105.582 40.4107 105.387 39.7562C105.213 39.1666 104.633 38.3735 103.913 38.5091C103.759 38.5408 103.615 38.609 103.492 38.708C103.37 38.8069 103.273 38.9338 103.21 39.0778C103.147 39.2219 103.119 39.379 103.129 39.536C103.139 39.693 103.186 39.8454 103.267 39.9803Z" fill="#CF6F64"/>
<path d="M104.438 34.7825C103.335 35.2866 102.946 39.6678 104.332 40.3164C105.717 40.965 106.525 33.8243 104.438 34.7825Z" fill="#263238"/>
<path d="M110.166 37.5569C109.901 39.7563 109.872 41.0506 108.692 42.1768C108.327 42.5505 107.865 42.816 107.358 42.9439C106.852 43.0718 106.319 43.0572 105.82 42.9016C105.321 42.7461 104.875 42.4556 104.531 42.0624C104.186 41.6691 103.957 41.1884 103.869 40.6732C103.512 38.6979 104.005 35.4341 106.21 34.5585C106.673 34.3541 107.183 34.2774 107.686 34.3363C108.189 34.3952 108.667 34.5875 109.07 34.8934C109.474 35.1992 109.789 35.6075 109.981 36.0758C110.174 36.5442 110.238 37.0555 110.166 37.5569Z" fill="#E58A7B"/>
<path d="M106.543 35.9206C108.176 35.5049 109.376 35.2219 108.946 36.581C108.377 38.3971 107.693 40.1543 108.61 40.2339C109.17 40.284 111.646 39.2345 111.331 38.1701C111.057 37.2444 112.215 36.9908 112.422 36.522C113.185 34.8239 111.001 35.0479 111.39 34.016C111.779 32.9841 109.621 31.3213 108.442 32.1498C106.522 33.4883 103.229 33.4677 104.96 31.2653C106.201 29.6939 103.987 30.0152 103.987 30.0152C103.987 30.0152 105.325 30.8083 103.073 32.0348C100.691 33.3438 102.875 36.8611 106.543 35.9206Z" fill="#263238"/>
<path d="M111.033 39.9803C110.711 40.4469 110.226 40.7768 109.674 40.906C108.946 41.0623 108.666 40.4107 108.94 39.7562C109.185 39.1666 109.857 38.3735 110.553 38.5091C111.248 38.6447 111.408 39.4024 111.033 39.9803Z" fill="#E58A7B"/>
<path d="M100.242 65.4857C100.242 65.4857 98.2494 83.3227 98.0932 90.0919C97.934 97.1323 104.848 119.1 104.848 119.1L108.386 117.626C108.386 117.626 104.258 97.554 104.848 90.6403C105.473 83.1016 108.055 65.4975 108.055 65.4975L100.242 65.4857Z" fill="#4CAF4F"/>
<path opacity="0.2" d="M105.196 70.3828C103.607 73.679 104.677 80.1976 105.538 84.0598C105.865 81.3326 106.254 78.3726 106.623 75.6337C106.587 71.4235 106.26 68.1716 105.196 70.3828Z" fill="black"/>
<path d="M108.229 116.458C108.247 116.458 108.648 117.584 108.648 117.584L104.568 119.3L103.925 118.103L108.229 116.458Z" fill="#4CAF4F"/>
<path d="M104.456 65.4857C104.456 65.4857 105.98 82.45 106.988 88.8035C108.097 95.7644 112.442 118.947 112.442 118.947H116.508C116.508 118.947 114.073 96.3275 113.613 89.4344C113.112 81.9577 112.115 65.4857 112.115 65.4857H104.456Z" fill="#4CAF4F"/>
<path d="M116.57 117.888C116.588 117.888 116.706 119.023 116.706 119.023H112.236L111.918 117.72L116.57 117.888Z" fill="#4CAF4F"/>
<path opacity="0.2" d="M115.013 116.544C115.004 116.544 114.995 116.541 114.988 116.535C114.981 116.529 114.976 116.52 114.975 116.511C114.951 116.305 112.755 95.8735 112.342 89.6822C111.894 82.966 110.992 68.0685 110.983 67.9181C110.983 67.9132 110.983 67.9083 110.985 67.9036C110.986 67.899 110.989 67.8947 110.992 67.8911C110.996 67.8875 111 67.8847 111.004 67.8827C111.009 67.8807 111.014 67.8797 111.018 67.8798C111.028 67.8797 111.037 67.8834 111.045 67.8899C111.052 67.8965 111.056 67.9055 111.057 67.9151C111.057 68.0655 111.968 82.9513 112.416 89.6792C112.829 95.8706 115.025 116.287 115.046 116.508C115.047 116.513 115.046 116.518 115.045 116.523C115.044 116.528 115.042 116.532 115.039 116.536C115.036 116.54 115.032 116.543 115.027 116.546C115.023 116.548 115.018 116.549 115.013 116.55V116.544Z" fill="black"/>
<path d="M106.794 38.1701C106.794 38.35 106.682 38.4944 106.564 38.4944C106.446 38.4944 106.36 38.35 106.372 38.1701C106.384 37.9903 106.484 37.8458 106.602 37.8458C106.72 37.8458 106.805 37.9932 106.794 38.1701Z" fill="#263238"/>
<path d="M104.771 38.1701C104.771 38.35 104.656 38.4944 104.541 38.4944C104.426 38.4944 104.338 38.35 104.347 38.1701C104.355 37.9903 104.462 37.8458 104.579 37.8458C104.697 37.8458 104.783 37.9932 104.771 38.1701Z" fill="#263238"/>
<path d="M105.408 38.2615C105.162 38.8106 104.845 39.3251 104.464 39.7916C104.759 40.0864 105.311 39.9508 105.311 39.9508L105.408 38.2615Z" fill="#DF5753"/>
<path d="M105.461 40.7027C105.454 40.7027 105.447 40.7013 105.441 40.6986C105.435 40.6959 105.429 40.6919 105.424 40.687C105.42 40.682 105.416 40.6761 105.414 40.6697C105.411 40.6633 105.41 40.6564 105.411 40.6496C105.412 40.6353 105.418 40.6218 105.428 40.6119C105.439 40.602 105.453 40.5965 105.467 40.5965C105.692 40.5981 105.915 40.5491 106.119 40.4532C106.323 40.3573 106.503 40.2169 106.646 40.0423C106.656 40.0334 106.669 40.0284 106.683 40.0284C106.697 40.0284 106.71 40.0334 106.72 40.0423C106.729 40.0522 106.735 40.0654 106.735 40.0791C106.735 40.0929 106.729 40.1061 106.72 40.116C106.567 40.3015 106.375 40.4506 106.157 40.5521C105.939 40.6536 105.701 40.7051 105.461 40.7027Z" fill="#263238"/>
<path d="M107.153 37.6276C107.139 37.6348 107.123 37.6386 107.108 37.6386C107.092 37.6386 107.076 37.6348 107.062 37.6276C106.952 37.5563 106.826 37.5119 106.695 37.4981C106.565 37.4843 106.433 37.5014 106.31 37.548C106.298 37.554 106.285 37.5575 106.272 37.5584C106.258 37.5592 106.245 37.5574 106.232 37.553C106.22 37.5486 106.208 37.5417 106.198 37.5328C106.188 37.5238 106.18 37.5129 106.174 37.5008C106.163 37.4746 106.163 37.4451 106.174 37.4187C106.184 37.3922 106.205 37.3709 106.23 37.3593C106.385 37.2963 106.552 37.2715 106.717 37.2869C106.883 37.3023 107.043 37.3575 107.183 37.4477C107.194 37.4554 107.204 37.4653 107.211 37.4767C107.219 37.4882 107.224 37.501 107.226 37.5144C107.229 37.5279 107.228 37.5417 107.226 37.555C107.223 37.5684 107.217 37.581 107.209 37.5922C107.194 37.6091 107.175 37.6214 107.153 37.6276Z" fill="#263238"/>
<path d="M103.99 37.0379C103.974 37.0341 103.96 37.0259 103.948 37.0143C103.939 37.0047 103.931 36.9933 103.926 36.9806C103.92 36.9679 103.917 36.9544 103.917 36.9406C103.917 36.9269 103.92 36.9133 103.926 36.9006C103.931 36.888 103.939 36.8765 103.948 36.8669C104.061 36.7402 104.202 36.6412 104.36 36.5778C104.517 36.5144 104.687 36.4882 104.857 36.5013C104.87 36.5034 104.883 36.5083 104.895 36.5156C104.906 36.5229 104.916 36.5325 104.924 36.5439C104.932 36.5552 104.937 36.568 104.94 36.5815C104.942 36.595 104.942 36.6088 104.939 36.6222C104.933 36.6495 104.917 36.6736 104.894 36.6898C104.871 36.7061 104.843 36.7135 104.815 36.7107C104.681 36.7022 104.547 36.7244 104.423 36.7755C104.299 36.8265 104.188 36.9052 104.099 37.0055C104.085 37.0204 104.068 37.0313 104.049 37.0371C104.03 37.0428 104.009 37.0431 103.99 37.0379Z" fill="#263238"/>
<path d="M115.081 49.0874L112.015 48.2708C112.015 48.2708 109.008 55.6738 107.943 56.1544C106.499 56.8148 102.84 59.1027 101.283 60.1847C101.198 60.5532 101.266 61.5291 101.46 61.7974C104.114 61.3139 109.193 59.3592 110.255 58.3656C112.675 56.0984 115.081 49.0874 115.081 49.0874Z" fill="#E58A7B"/>
<path d="M112.941 122.081C112.791 122.092 112.642 122.052 112.519 121.966C112.481 121.931 112.453 121.888 112.437 121.839C112.421 121.791 112.418 121.739 112.428 121.688C112.43 121.657 112.44 121.627 112.458 121.601C112.475 121.575 112.499 121.554 112.528 121.541C112.776 121.414 113.468 121.854 113.548 121.904C113.557 121.909 113.564 121.917 113.567 121.927C113.571 121.936 113.571 121.947 113.569 121.957C113.566 121.967 113.561 121.977 113.554 121.984C113.547 121.992 113.537 121.998 113.527 122.001C113.335 122.048 113.139 122.075 112.941 122.081ZM112.646 121.621C112.624 121.616 112.6 121.616 112.578 121.621C112.567 121.626 112.557 121.635 112.551 121.646C112.545 121.657 112.542 121.67 112.543 121.683C112.535 121.717 112.536 121.753 112.546 121.786C112.557 121.82 112.576 121.85 112.602 121.874C112.717 121.977 113.006 121.989 113.386 121.915C113.159 121.766 112.904 121.666 112.637 121.621H112.646Z" fill="#4CAF4F"/>
<path d="M113.513 122.001C113.505 122.003 113.497 122.003 113.489 122.001C113.268 121.877 112.852 121.391 112.914 121.143C112.923 121.104 112.946 121.069 112.977 121.044C113.009 121.018 113.048 121.005 113.088 121.004C113.128 120.999 113.168 121.002 113.206 121.014C113.244 121.026 113.279 121.046 113.309 121.072C113.554 121.282 113.569 121.924 113.569 121.957C113.57 121.966 113.568 121.976 113.563 121.985C113.559 121.993 113.551 122 113.542 122.004C113.532 122.006 113.522 122.005 113.513 122.001ZM113.118 121.102H113.097C113.029 121.102 113.02 121.14 113.017 121.155C112.982 121.299 113.244 121.668 113.463 121.842C113.462 121.593 113.384 121.35 113.241 121.146C113.207 121.116 113.163 121.1 113.118 121.102Z" fill="#4CAF4F"/>
<path d="M105.113 121.712C104.933 121.775 104.736 121.775 104.556 121.712C104.515 121.69 104.48 121.658 104.455 121.618C104.43 121.579 104.415 121.534 104.411 121.488C104.408 121.459 104.411 121.429 104.422 121.402C104.433 121.374 104.451 121.35 104.473 121.332C104.709 121.119 105.673 121.332 105.782 121.373C105.793 121.376 105.802 121.382 105.808 121.39C105.815 121.399 105.818 121.409 105.818 121.42C105.818 121.431 105.815 121.442 105.809 121.452C105.804 121.461 105.795 121.469 105.785 121.473C105.568 121.571 105.343 121.651 105.113 121.712ZM104.632 121.361C104.599 121.368 104.567 121.383 104.541 121.405C104.532 121.412 104.524 121.422 104.52 121.433C104.516 121.444 104.515 121.456 104.517 121.467C104.519 121.498 104.529 121.528 104.545 121.554C104.562 121.581 104.585 121.602 104.612 121.618C104.768 121.7 105.131 121.635 105.599 121.438C105.284 121.358 104.957 121.332 104.632 121.361Z" fill="#4CAF4F"/>
<path d="M105.776 121.473H105.753C105.458 121.42 104.868 121.081 104.851 120.828C104.851 120.769 104.877 120.686 105.019 120.639C105.066 120.622 105.117 120.615 105.168 120.618C105.219 120.621 105.268 120.634 105.313 120.657C105.632 120.813 105.8 121.379 105.809 121.405C105.811 121.414 105.811 121.424 105.808 121.432C105.805 121.441 105.801 121.449 105.794 121.455C105.79 121.463 105.784 121.469 105.776 121.473ZM105.078 120.727H105.048C104.957 120.76 104.957 120.798 104.957 120.81C104.957 120.963 105.384 121.243 105.682 121.338C105.613 121.101 105.468 120.893 105.269 120.748C105.21 120.718 105.142 120.71 105.078 120.727Z" fill="#4CAF4F"/>
<path d="M101.534 60.0107L98.4588 61.4259L98.1021 62.3104L99.2371 63.074C99.2371 63.074 101.36 62.844 101.964 61.479L101.534 60.0107Z" fill="#E58A7B"/>
<path d="M101.664 61.8475C101.595 61.2567 101.4 60.6876 101.092 60.1788L101.578 59.8132C101.944 60.3994 102.178 61.0585 102.262 61.7443L101.664 61.8475Z" fill="#263238"/>
<path d="M102.188 60.4294C102.253 60.5317 102.285 60.6515 102.28 60.7725C102.274 60.8936 102.232 61.01 102.158 61.1059C102.084 61.2019 101.982 61.2727 101.866 61.3088C101.751 61.3448 101.627 61.3444 101.511 61.3075C101.396 61.2706 101.295 61.199 101.221 61.1026C101.148 61.0061 101.106 60.8894 101.102 60.7683C101.097 60.6472 101.13 60.5277 101.195 60.4259C101.261 60.3241 101.357 60.2451 101.469 60.1995C101.595 60.1353 101.741 60.1234 101.876 60.1665C102.011 60.2095 102.123 60.304 102.188 60.4294Z" fill="#263238"/>
<path d="M96.3802 62.5698L96.7901 62.9826L99.5496 61.8033L98.4588 61.4259L96.3802 62.5698Z" fill="#E58A7B"/>
<path opacity="0.2" d="M108.229 116.458C108.247 116.458 108.648 117.584 108.648 117.584L104.568 119.3L103.925 118.103L108.229 116.458Z" fill="black"/>
<path opacity="0.2" d="M116.57 117.888C116.588 117.888 116.706 119.023 116.706 119.023H112.236L111.918 117.72L116.57 117.888Z" fill="black"/>
<path d="M115.88 48.2384C116.691 50.8535 113.521 54.4297 113.521 54.4297L109.143 52.6431C109.662 51.1316 110.261 49.6485 110.936 48.2C112.28 45.3019 115.06 45.5997 115.88 48.2384Z" fill="#4CAF4F"/>
<path opacity="0.2" d="M115.88 48.2384C116.691 50.8535 113.521 54.4297 113.521 54.4297L109.143 52.6431C109.662 51.1316 110.261 49.6485 110.936 48.2C112.28 45.3019 115.06 45.5997 115.88 48.2384Z" fill="black"/>
<path d="M72.3755 22.0372H70.4916V22.3409H72.3755V22.0372Z" fill="#4CAF4F"/>
<path d="M96.763 34.0562L96.535 39.1162L96.8384 39.1299L97.0664 34.0699L96.763 34.0562Z" fill="#4CAF4F"/>
<path d="M96.1768 23.3993H61.3873L58.1501 95.844H92.9396L96.1768 23.3993Z" fill="#4CAF4F"/>
<path opacity="0.56" d="M95.1391 24.3958H60.3496L57.1124 96.8404H91.9019L95.1391 24.3958Z" fill="#FAFAFA"/>
<path opacity="0.07" d="M94.1013 25.3894H59.3118L56.0717 97.8341H90.8611L94.1013 25.3894Z" fill="#4CAF4F"/>
<path d="M90.1418 56.9858H60.4469L60.1992 62.5286H89.8941L90.1418 56.9858Z" fill="white"/>
<path d="M76.7774 52.9409H60.6268L60.5177 55.4204H76.6683L76.7774 52.9409Z" fill="#4CAF4F"/>
<path d="M89.4726 71.9453H59.7777L59.53 77.488H89.2249L89.4726 71.9453Z" fill="white"/>
<path opacity="0.47" d="M84.0271 84.9738H64.0585L63.7607 91.6162H83.7293L84.0271 84.9738Z" fill="#4CAF4F"/>
<path d="M82.6915 92.648H62.7229C62.7142 92.6503 62.7051 92.6503 62.6964 92.648C62.6935 92.6394 62.6935 92.6301 62.6964 92.6215L62.9912 85.9761C62.9912 85.9716 62.9921 85.9671 62.9939 85.963C62.9958 85.9588 62.9984 85.9551 63.0017 85.9521C63.0051 85.949 63.009 85.9467 63.0133 85.9453C63.0176 85.9438 63.0221 85.9433 63.0266 85.9437H82.9952C82.9988 85.9419 83.0029 85.9409 83.007 85.9409C83.0111 85.9409 83.0151 85.9419 83.0188 85.9437C83.0208 85.9473 83.0219 85.9513 83.0219 85.9555C83.0219 85.9596 83.0208 85.9637 83.0188 85.9673L82.7298 92.6274C82.7263 92.6343 82.7207 92.64 82.7139 92.6437C82.707 92.6474 82.6992 92.6489 82.6915 92.648ZM62.7583 92.5773H82.6561L82.951 86.0026H63.0531L62.7583 92.5773Z" fill="white"/>
<path d="M73.2895 67.9003H59.9575L59.8484 70.3827H73.1775L73.2895 67.9003Z" fill="#4CAF4F"/>
<path d="M83.6467 39.0811C83.5705 40.6942 82.9969 42.2442 82.0045 43.5182C81.27 44.4806 80.3247 45.2618 79.2412 45.802C78.1577 46.3423 76.9649 46.627 75.7542 46.6345C74.7759 46.642 73.8064 46.4491 72.9054 46.0677C72.0045 45.6863 71.1912 45.1244 70.5156 44.4168C69.84 43.7092 69.3164 42.8707 68.9771 41.9531C68.6378 41.0354 68.49 40.058 68.5428 39.0811C68.6465 37.0539 69.5207 35.1428 70.9866 33.7388C72.4526 32.3348 74.3996 31.5438 76.4294 31.5277C77.4084 31.5185 78.379 31.7103 79.281 32.091C80.1831 32.4718 80.9974 33.0334 81.6739 33.7414C82.3503 34.4493 82.8743 35.2883 83.2136 36.2068C83.553 37.1252 83.7004 38.1035 83.6467 39.0811Z" fill="white"/>
<path d="M84.3572 33.1079C84.338 33.5368 84.1855 33.9491 83.9209 34.2872C83.7251 34.5428 83.4736 34.7503 83.1854 34.8939C82.8972 35.0375 82.58 35.1133 82.2581 35.1157C81.9462 35.1176 81.6385 35.0431 81.362 34.8987C81.0855 34.7542 80.8486 34.5443 80.6719 34.2872C80.438 33.9398 80.3222 33.5263 80.3417 33.1079C80.3702 32.5697 80.603 32.0626 80.9925 31.6901C81.382 31.3175 81.899 31.1076 82.4379 31.1031C82.6979 31.1007 82.9557 31.1516 83.1953 31.2527C83.4349 31.3537 83.6513 31.5027 83.8311 31.6905C84.0109 31.8783 84.1503 32.101 84.2408 32.3448C84.3313 32.5885 84.3709 32.8483 84.3572 33.1079Z" fill="#4CAF4F"/>
<path d="M63.6458 59.7572C63.6316 59.9948 63.5279 60.2181 63.3556 60.3823C63.1832 60.5464 62.9551 60.6391 62.7171 60.6417C62.6022 60.643 62.4882 60.6208 62.3822 60.5764C62.2762 60.532 62.1805 60.4663 62.1009 60.3834C62.0213 60.3005 61.9596 60.2021 61.9195 60.0944C61.8795 59.9867 61.8619 59.8719 61.868 59.7572C61.8808 59.5191 61.9841 59.2949 62.1567 59.1305C62.3293 58.9661 62.5583 58.8739 62.7967 58.8727C62.9115 58.8718 63.0252 58.8943 63.131 58.9389C63.2368 58.9834 63.3324 59.0491 63.4119 59.1319C63.4914 59.2147 63.5531 59.3129 63.5933 59.4204C63.6336 59.5279 63.6514 59.6425 63.6458 59.7572Z" fill="#263238"/>
<path d="M67.62 59.7572C67.6065 59.995 67.503 60.2188 67.3306 60.3831C67.1581 60.5474 66.9295 60.6398 66.6913 60.6417C66.5767 60.6427 66.463 60.6201 66.3574 60.5755C66.2517 60.5309 66.1564 60.4652 66.0771 60.3823C65.9978 60.2995 65.9364 60.2013 65.8965 60.0938C65.8566 59.9863 65.8391 59.8717 65.8452 59.7572C65.8579 59.5197 65.9608 59.2959 66.1328 59.1316C66.3048 58.9672 66.533 58.8746 66.7709 58.8727C66.8858 58.8714 66.9998 58.8936 67.1058 58.938C67.2118 58.9824 67.3075 59.0481 67.3871 59.131C67.4667 59.2139 67.5284 59.3123 67.5685 59.42C67.6085 59.5277 67.6261 59.6425 67.62 59.7572Z" fill="#263238"/>
<path d="M71.5973 59.7572C71.5838 59.995 71.4803 60.2188 71.3078 60.3831C71.1353 60.5474 70.9068 60.6398 70.6686 60.6417C70.5538 60.6426 70.44 60.6201 70.3343 60.5756C70.2285 60.531 70.1329 60.4653 70.0534 60.3825C69.9739 60.2997 69.9122 60.2015 69.8719 60.094C69.8317 59.9865 69.8139 59.8719 69.8195 59.7572C69.833 59.5194 69.9365 59.2956 70.109 59.1313C70.2814 58.9671 70.51 58.8746 70.7482 58.8727C70.8631 58.8714 70.9771 58.8936 71.083 58.938C71.189 58.9824 71.2848 59.0481 71.3644 59.131C71.4439 59.2139 71.5057 59.3123 71.5457 59.42C71.5858 59.5277 71.6034 59.6425 71.5973 59.7572Z" fill="#263238"/>
<path d="M62.9764 74.7167C62.9623 74.9542 62.8586 75.1776 62.6862 75.3417C62.5139 75.5059 62.2857 75.5986 62.0477 75.6011C61.933 75.6021 61.8192 75.5796 61.7134 75.535C61.6076 75.4904 61.5121 75.4247 61.4326 75.3419C61.3531 75.2591 61.2913 75.1609 61.2511 75.0534C61.2109 74.9459 61.193 74.8313 61.1986 74.7167C61.2121 74.4788 61.3156 74.2551 61.4881 74.0908C61.6606 73.9265 61.8891 73.834 62.1273 73.8322C62.2421 73.8312 62.3559 73.8537 62.4617 73.8983C62.5675 73.9429 62.663 74.0086 62.7425 74.0914C62.822 74.1742 62.8838 74.2724 62.924 74.3799C62.9642 74.4874 62.9821 74.602 62.9764 74.7167Z" fill="#263238"/>
<path d="M66.9508 74.7167C66.9374 74.954 66.8343 75.1773 66.6624 75.3415C66.4906 75.5057 66.2628 75.5985 66.0251 75.6011C65.9102 75.6025 65.7962 75.5803 65.6902 75.5359C65.5842 75.4914 65.4885 75.4257 65.4089 75.3428C65.3293 75.2599 65.2676 75.1616 65.2275 75.0539C65.1875 74.9462 65.1699 74.8314 65.176 74.7167C65.1894 74.4788 65.2929 74.2551 65.4654 74.0908C65.6379 73.9265 65.8665 73.834 66.1047 73.8322C66.2193 73.8312 66.333 73.8537 66.4386 73.8983C66.5442 73.9429 66.6396 74.0087 66.7189 74.0916C66.7982 74.1744 66.8596 74.2726 66.8995 74.3801C66.9394 74.4876 66.9569 74.6022 66.9508 74.7167Z" fill="#263238"/>
<path d="M70.9369 74.7167C70.9234 74.9545 70.8199 75.1783 70.6474 75.3426C70.4749 75.5068 70.2464 75.5993 70.0082 75.6012C69.8935 75.6017 69.7799 75.5789 69.6743 75.5342C69.5688 75.4894 69.4734 75.4237 69.394 75.341C69.3145 75.2583 69.2528 75.1603 69.2124 75.053C69.172 74.9456 69.1539 74.8312 69.1591 74.7167C69.1732 74.4791 69.2769 74.2557 69.4493 74.0916C69.6216 73.9275 69.8498 73.8348 70.0878 73.8322C70.2027 73.8308 70.3166 73.8531 70.4226 73.8975C70.5286 73.9419 70.6244 74.0076 70.7039 74.0905C70.7835 74.1734 70.8453 74.2717 70.8853 74.3795C70.9254 74.4872 70.9429 74.6019 70.9369 74.7167Z" fill="#263238"/>
<path d="M74.9051 74.7167C74.891 74.9542 74.7873 75.1776 74.6149 75.3417C74.4426 75.5059 74.2144 75.5986 73.9764 75.6011C73.8618 75.6017 73.7482 75.5789 73.6426 75.5341C73.537 75.4894 73.4416 75.4237 73.3622 75.341C73.2828 75.2583 73.221 75.1603 73.1807 75.0529C73.1403 74.9456 73.1221 74.8312 73.1273 74.7167C73.1415 74.4791 73.2452 74.2557 73.4175 74.0916C73.5899 73.9274 73.8181 73.8347 74.056 73.8322C74.1708 73.8312 74.2846 73.8537 74.3904 73.8983C74.4962 73.9429 74.5917 74.0086 74.6712 74.0914C74.7507 74.1742 74.8125 74.2724 74.8527 74.3799C74.8929 74.4874 74.9108 74.602 74.9051 74.7167Z" fill="#263238"/>
<path d="M78.8971 74.7167C78.883 74.9542 78.7793 75.1776 78.6069 75.3417C78.4346 75.5059 78.2064 75.5986 77.9684 75.6011C77.8535 75.6025 77.7396 75.5803 77.6336 75.5359C77.5276 75.4914 77.4318 75.4257 77.3523 75.3428C77.2727 75.2599 77.211 75.1616 77.1709 75.0539C77.1308 74.9462 77.1133 74.8314 77.1193 74.7167C77.1328 74.4788 77.2363 74.2551 77.4088 74.0908C77.5813 73.9265 77.8098 73.834 78.048 73.8322C78.1628 73.8312 78.2766 73.8537 78.3824 73.8983C78.4882 73.9429 78.5837 74.0086 78.6632 74.0914C78.7427 74.1742 78.8045 74.2724 78.8447 74.3799C78.8849 74.4874 78.9028 74.602 78.8971 74.7167Z" fill="#263238"/>
<path d="M78.2938 38.6876C79.5278 37.4809 79.5933 35.5466 78.44 34.3673C77.2868 33.1881 75.3515 33.2103 74.1175 34.4171C72.8835 35.6238 72.8181 37.5581 73.9713 38.7373C75.1245 39.9166 77.0598 39.8944 78.2938 38.6876Z" fill="#4CAF4F"/>
<path d="M82.0046 43.5182C81.27 44.4805 80.3247 45.2618 79.2412 45.802C78.1578 46.3422 76.9649 46.627 75.7543 46.6345C74.5803 46.6444 73.4219 46.3654 72.3813 45.8219C71.3406 45.2784 70.4497 44.4873 69.787 43.5182C71.2198 42.0912 73.4871 41.1595 75.999 41.1595C78.5109 41.1595 80.6985 42.0912 82.0046 43.5182Z" fill="#4CAF4F"/>
<path opacity="0.1" d="M78.2938 38.6876C79.5278 37.4809 79.5933 35.5466 78.44 34.3673C77.2868 33.1881 75.3515 33.2103 74.1175 34.4171C72.8835 35.6238 72.8181 37.5581 73.9713 38.7373C75.1245 39.9166 77.0598 39.8944 78.2938 38.6876Z" fill="white"/>
<path opacity="0.1" d="M82.0046 43.5182C81.27 44.4805 80.3247 45.2618 79.2412 45.802C78.1578 46.3422 76.9649 46.627 75.7543 46.6345C74.5803 46.6444 73.4219 46.3654 72.3813 45.8219C71.3406 45.2784 70.4497 44.4873 69.787 43.5182C71.2198 42.0912 73.4871 41.1595 75.999 41.1595C78.5109 41.1595 80.6985 42.0912 82.0046 43.5182Z" fill="white"/>
<path d="M38.6268 63.8641C38.3467 64.4773 38.0519 65.1525 37.7954 65.807C37.5389 66.4615 37.2765 67.1367 37.0495 67.8089C36.586 69.1336 36.2329 70.4945 35.994 71.8775L35.9291 72.3109C35.923 72.3852 35.9299 72.4601 35.9498 72.532C36.0194 72.7763 36.1289 73.0075 36.2741 73.216C36.6527 73.7557 37.0919 74.2503 37.5831 74.6901C38.101 75.1718 38.6443 75.6255 39.2106 76.0493C39.7766 76.4856 40.3722 76.9101 40.9589 77.3111L40.4075 78.3459C39.0066 77.7355 37.6768 76.9733 36.4421 76.0728C35.7834 75.5924 35.1889 75.0297 34.6732 74.3982C34.3675 74.0224 34.1291 73.5964 33.9685 73.1393C33.8752 72.8538 33.8274 72.5553 33.827 72.2548C33.827 72.1841 33.827 72.0809 33.827 72.0308V71.8863L33.8565 71.5915C34.0255 70.0554 34.3485 68.5403 34.8206 67.0688C35.0506 66.3436 35.2953 65.6212 35.5753 64.9166C35.8554 64.212 36.1444 63.5221 36.5011 62.8057L38.6268 63.8641Z" fill="#E58A7B"/>
<path d="M40.5431 77.1283L42.6275 76.0729L42.088 78.3607C42.088 78.3607 40.6581 78.7617 39.9948 78.0659L40.5431 77.1283Z" fill="#E58A7B"/>
<path d="M44.5351 76.4473L43.9808 78.3401L42.088 78.3607L42.6275 76.0729L44.5351 76.4473Z" fill="#E58A7B"/>
<path d="M47.4775 52.8258C47.5889 53.2344 47.7441 53.6298 47.9403 54.0051C47.883 54.0701 47.8092 54.1184 47.7267 54.1449C47.6441 54.1713 47.556 54.175 47.4716 54.1555L47.4775 52.8258Z" fill="#DF5753"/>
<path d="M47.4156 52.8435C47.5377 52.8435 47.6367 52.6917 47.6367 52.5045C47.6367 52.3172 47.5377 52.1654 47.4156 52.1654C47.2935 52.1654 47.1945 52.3172 47.1945 52.5045C47.1945 52.6917 47.2935 52.8435 47.4156 52.8435Z" fill="#263238"/>
<path d="M47.3507 52.1772L47.7988 52.0504C47.7988 52.0504 47.5807 52.3983 47.3507 52.1772Z" fill="#263238"/>
<path d="M41.7195 54.9899C41.9878 56.3608 42.2561 58.8757 41.2949 59.7926C41.2949 59.7926 41.6723 61.1842 44.2225 61.1842C47.0263 61.1842 45.5611 59.7926 45.5611 59.7926C44.0309 59.427 44.0692 58.2919 44.3375 57.2247L41.7195 54.9899Z" fill="#E58A7B"/>
<path d="M40.9736 51.8648C41.1151 54.1556 41.1269 55.1285 42.2826 56.3048C44.0251 58.0738 46.8082 57.4016 47.3536 55.1255C47.846 53.0618 47.5335 49.6654 45.2899 48.7543C44.7974 48.5515 44.2613 48.4776 43.7323 48.5397C43.2033 48.6017 42.6988 48.7978 42.2667 49.1092C41.8346 49.4206 41.489 49.8371 41.2628 50.3192C41.0365 50.8014 40.937 51.3334 40.9736 51.8648Z" fill="#E58A7B"/>
<path d="M41.2006 49.2879C40.0507 49.7066 38.5177 49.3941 39.1191 52.9408C39.7559 56.6969 38.7771 57.9322 38.7771 57.9322C38.7771 57.9322 43.1376 58.8609 47.5895 57.8762C47.5895 57.8762 46.2303 55.4999 46.6106 53.7487C47.0971 51.5375 46.7138 50.7208 46.7138 50.7208C46.7138 50.7208 42.8162 48.6983 41.2006 49.2879Z" fill="#263238"/>
<path d="M46.0652 53.0587C46.0664 53.4943 46.1911 53.9206 46.4249 54.2882C46.7374 54.7658 47.1059 54.583 47.1973 54.0759C47.2799 53.6307 47.218 52.8435 46.8199 52.5369C46.4219 52.2303 46.0711 52.531 46.0652 53.0587Z" fill="#E58A7B"/>
<path d="M40.2011 49.6742C39.8709 48.7455 41.4453 47.3156 44.7768 47.9053C48.1084 48.4949 48.2528 51.2692 48.2528 51.2692L47.5806 50.4673L47.6101 51.3105L44.1872 51.968L40.2011 49.6742Z" fill="#263238"/>
<path d="M40.4841 59.9488C40.4645 59.8142 40.4981 59.6772 40.578 59.5671C40.6578 59.4569 40.7776 59.3823 40.9116 59.3592C41.9494 59.1882 44.308 58.8403 45.4932 59.0054C46.3777 59.1292 46.6077 59.6422 46.646 60.0638C46.652 60.1376 46.6421 60.2119 46.617 60.2816C46.5919 60.3512 46.5522 60.4148 46.5006 60.4678C46.4489 60.5209 46.3865 60.5623 46.3175 60.5892C46.2485 60.6161 46.1745 60.628 46.1006 60.624L40.9765 60.394C40.8557 60.3879 40.7407 60.3403 40.651 60.2591C40.5613 60.178 40.5023 60.0684 40.4841 59.9488Z" fill="#4CAF4F"/>
<path opacity="0.6" d="M40.4841 59.9488C40.4645 59.8142 40.4981 59.6772 40.578 59.5671C40.6578 59.4569 40.7776 59.3823 40.9116 59.3592C41.9494 59.1882 44.308 58.8403 45.4932 59.0054C46.3777 59.1292 46.6077 59.6422 46.646 60.0638C46.652 60.1376 46.6421 60.2119 46.617 60.2816C46.5919 60.3512 46.5522 60.4148 46.5006 60.4678C46.4489 60.5209 46.3865 60.5623 46.3175 60.5892C46.2485 60.6161 46.1745 60.628 46.1006 60.624L40.9765 60.394C40.8557 60.3879 40.7407 60.3403 40.651 60.2591C40.5613 60.178 40.5023 60.0684 40.4841 59.9488Z" fill="black"/>
<path d="M43.4471 111.455L45.3488 112.776L48.5299 108.463L46.6283 107.145L43.4471 111.455Z" fill="#E58A7B"/>
<path d="M39.0129 111.369L41.0207 112.513L43.8363 107.952L41.8285 106.808L39.0129 111.369Z" fill="#E58A7B"/>
<path d="M48.5271 108.463L46.8878 110.686L44.9862 109.368L46.6254 107.145L48.5271 108.463Z" fill="#CF6F64"/>
<path d="M41.8257 106.808L43.8364 107.955L42.3858 110.305L40.3751 109.158L41.8257 106.808Z" fill="#CF6F64"/>
<path d="M45.051 74.3481C45.051 74.3481 52.4747 83.703 51.0802 92.6509C49.9569 99.8771 43.4412 109.662 43.4412 109.662L40.378 108.141C42.5371 103.815 44.3797 99.3372 45.8912 94.7442C46.3573 93.3182 46.4934 91.805 46.2891 90.3188C46.0848 88.8325 45.5455 87.4121 44.7119 86.1648C40.9499 80.6722 34.9237 83.9418 38.9775 74.3481H45.051Z" fill="#4CAF4F"/>
<path opacity="0.6" d="M45.051 74.3481C45.051 74.3481 52.4747 83.703 51.0802 92.6509C49.9569 99.8771 43.4412 109.662 43.4412 109.662L40.378 108.141C42.5371 103.815 44.3797 99.3372 45.8912 94.7442C46.3573 93.3182 46.4934 91.805 46.2891 90.3188C46.0848 88.8325 45.5455 87.4121 44.7119 86.1648C40.9499 80.6722 34.9237 83.9418 38.9775 74.3481H45.051Z" fill="black"/>
<path opacity="0.4" d="M48.6921 80.3567L47.613 79.2836C47.613 79.3691 49.7034 92.2736 50.2901 95.9C50.6363 94.8406 50.9014 93.7565 51.0831 92.6569C51.773 88.2669 50.3313 83.7826 48.6921 80.3567Z" fill="black"/>
<path d="M48.3649 74.3481C48.3649 74.3481 57.304 86.1058 57.5575 93.1551C57.7669 99.0516 47.8283 110.476 47.8283 110.476L44.939 108.607C44.939 108.607 50.7559 100.493 52.2212 93.8656C51.6551 87.2969 39.6852 74.3481 39.6852 74.3481H48.3649Z" fill="#4CAF4F"/>
<path opacity="0.6" d="M48.3649 74.3481C48.3649 74.3481 57.304 86.1058 57.5575 93.1551C57.7669 99.0516 47.8283 110.476 47.8283 110.476L44.939 108.607C44.939 108.607 50.7559 100.493 52.2212 93.8656C51.6551 87.2969 39.6852 74.3481 39.6852 74.3481H48.3649Z" fill="black"/>
<path d="M37.306 60.3174C36.3507 60.5444 35.4338 64.0175 35.4338 64.0175L39.1693 66.5117C39.1693 66.5117 40.4135 63.7639 39.9771 62.561C39.526 61.308 38.5059 60.0314 37.306 60.3174Z" fill="#4CAF4F"/>
<path opacity="0.2" d="M38.0372 62.5552L37.7777 65.583L39.1663 66.5147C39.5498 65.6515 39.8336 64.7474 40.0125 63.82L38.0372 62.5552Z" fill="black"/>
<path d="M49.4704 60.3852C49.4704 60.3852 50.5731 60.7714 48.3648 74.3452H38.9717C39.1309 70.5124 39.1338 68.1538 37.3059 60.3174C38.6212 60.0463 39.9543 59.8709 41.2949 59.7926C42.7151 59.6907 44.1408 59.6907 45.561 59.7926C47.3949 59.9606 49.4704 60.3852 49.4704 60.3852Z" fill="#4CAF4F"/>
<path d="M50.4257 62.5551C50.638 63.1447 50.862 63.7786 51.0979 64.3889C51.3338 64.9992 51.5578 65.6272 51.7966 66.2463L52.519 68.0978L52.7018 68.5607L52.7961 68.7906L52.8403 68.9056C52.8403 68.9263 52.8403 68.9263 52.8403 68.9233C52.7865 68.8474 52.7158 68.7848 52.6339 68.7405C52.5173 68.6719 52.3858 68.6324 52.2507 68.6255C52.1384 68.622 52.0267 68.6432 51.9234 68.6875C51.7878 68.7494 51.7878 68.7759 51.7907 68.773C51.8153 68.7533 51.8371 68.7305 51.8556 68.7051C52.0188 68.4909 52.1601 68.2607 52.2772 68.0182C52.4158 67.747 52.5484 67.458 52.6811 67.1662C52.9406 66.5765 53.1794 65.9662 53.4182 65.35C53.657 64.7338 53.884 64.1118 54.1051 63.4838L54.7773 61.6028L55.9124 61.8976C55.6883 63.242 55.3994 64.551 55.0515 65.8837C54.8835 66.547 54.6859 67.2045 54.4619 67.8678C54.3498 68.201 54.226 68.5312 54.0845 68.8702C53.937 69.2382 53.7554 69.5916 53.542 69.9257C53.4636 70.0382 53.3769 70.1446 53.2826 70.2441C53.132 70.4067 52.9493 70.5363 52.746 70.6245C52.5656 70.7019 52.3702 70.7382 52.174 70.7306C51.9543 70.7224 51.7402 70.6585 51.5519 70.5449C51.3298 70.4062 51.1455 70.2148 51.0153 69.9876C50.9711 69.911 50.9328 69.8343 50.9063 69.7783L50.8502 69.6663L50.7382 69.4363L50.5141 68.9793C50.2193 68.3661 49.9245 67.747 49.668 67.1249C49.4115 66.5028 49.1403 65.8719 48.8867 65.238C48.6332 64.6041 48.4061 63.9702 48.1909 63.2862L50.4257 62.5551Z" fill="#E58A7B"/>
<path d="M49.4705 60.3852C50.5997 60.6535 51.8704 63.9909 51.8704 63.9909L48.5123 66.8478C48.5123 66.8478 46.3394 63.2096 46.7787 62.0097C47.2357 60.7596 47.9964 60.0344 49.4705 60.3852Z" fill="#4CAF4F"/>
<path d="M55.311 60.5473L56.4903 59.5626L57.3099 60.8392L56.7055 61.9035C56.7055 61.9035 55.7444 62.788 54.8953 62.3369C54.7605 62.034 54.7282 61.6954 54.8032 61.3725C54.8782 61.0495 55.0565 60.7598 55.311 60.5473Z" fill="#E58A7B"/>
<path d="M58.6189 59.5656L58.5305 59.8869L56.6642 60.1994L56.4814 59.5626L58.6189 59.5656Z" fill="#E58A7B"/>
<path d="M48.0582 110.627L44.6913 108.451L45.2957 107.401L49.0783 109.727L48.0582 110.627Z" fill="#4CAF4F"/>
<path d="M42.3386 112.36C42.0432 112.324 41.7593 112.223 41.5072 112.065C41.4968 112.062 41.4878 112.055 41.4814 112.046C41.475 112.037 41.4716 112.026 41.4716 112.015C41.4716 112.004 41.475 111.993 41.4814 111.984C41.4878 111.975 41.4968 111.969 41.5072 111.965C41.5986 111.936 42.3917 111.691 42.6216 111.88C42.6475 111.901 42.6671 111.929 42.6785 111.961C42.6899 111.992 42.6927 112.026 42.6865 112.059C42.6824 112.112 42.6648 112.164 42.6354 112.208C42.606 112.252 42.5657 112.288 42.5184 112.313C42.4632 112.343 42.4015 112.359 42.3386 112.36ZM41.6752 112.036C42.0438 112.224 42.3386 112.292 42.4801 112.222C42.5109 112.204 42.5369 112.18 42.5554 112.15C42.574 112.12 42.5846 112.086 42.5862 112.051C42.5862 112.003 42.5862 111.983 42.5597 111.971C42.4359 111.871 41.9936 111.947 41.6693 112.036H41.6752Z" fill="#263238"/>
<path d="M41.5278 112.086C41.5123 112.086 41.4974 112.079 41.4865 112.068C41.4822 112.06 41.4799 112.051 41.4799 112.042C41.4799 112.032 41.4822 112.023 41.4865 112.015C41.4865 111.989 41.6782 111.349 41.9789 111.204C42.0173 111.187 42.059 111.178 42.1013 111.178C42.1435 111.178 42.1852 111.187 42.2236 111.204C42.265 111.217 42.3009 111.244 42.3254 111.28C42.35 111.316 42.3619 111.359 42.3592 111.402C42.3386 111.667 41.7991 112.033 41.5514 112.095L41.5278 112.086ZM42.0998 111.281C42.0711 111.282 42.043 111.289 42.0172 111.302C41.8344 111.39 41.6841 111.735 41.6104 111.944C41.8698 111.835 42.2266 111.546 42.2384 111.384C42.2384 111.358 42.2383 111.325 42.1705 111.296C42.1485 111.284 42.1245 111.276 42.0998 111.272V111.281Z" fill="#263238"/>
<path d="M46.5458 113.634C46.2126 113.634 45.7497 113.206 45.4962 112.944C45.4897 112.935 45.4862 112.924 45.4862 112.913C45.4862 112.902 45.4897 112.891 45.4962 112.882C45.502 112.872 45.5103 112.865 45.5201 112.86C45.53 112.854 45.5411 112.852 45.5522 112.853C45.6701 112.853 46.6932 113.006 46.8376 113.295C46.8529 113.321 46.861 113.35 46.861 113.38C46.861 113.41 46.8529 113.44 46.8376 113.466C46.816 113.511 46.7832 113.549 46.7425 113.578C46.7017 113.607 46.6543 113.625 46.6047 113.631L46.5458 113.634ZM45.6908 112.985C46.0622 113.345 46.3895 113.545 46.5752 113.522C46.6078 113.518 46.6387 113.505 46.6655 113.486C46.6922 113.467 46.7139 113.442 46.7285 113.413C46.7351 113.403 46.7387 113.391 46.7387 113.379C46.7387 113.367 46.7351 113.355 46.7285 113.345C46.6519 113.186 46.1065 113.05 45.6908 112.985Z" fill="#263238"/>
<path d="M45.7233 112.97C45.6571 112.972 45.5909 112.967 45.5258 112.956C45.5167 112.954 45.5081 112.951 45.5008 112.945C45.4936 112.939 45.488 112.932 45.4845 112.923C45.4801 112.914 45.4778 112.905 45.4778 112.895C45.4778 112.885 45.4801 112.876 45.4845 112.867C45.5022 112.847 45.9002 112.366 46.2776 112.334C46.3844 112.325 46.4902 112.359 46.5724 112.428C46.6874 112.528 46.6815 112.617 46.652 112.673C46.5783 112.873 46.0682 112.97 45.7233 112.97ZM45.6466 112.861C45.9768 112.879 46.5046 112.77 46.5724 112.625C46.5724 112.625 46.596 112.578 46.5193 112.513C46.4888 112.487 46.4532 112.467 46.4146 112.455C46.3761 112.443 46.3355 112.438 46.2953 112.443C46.041 112.514 45.8147 112.661 45.6466 112.864V112.861Z" fill="#263238"/>
<path d="M41.6075 111.767L39.1073 111.06C39.0642 111.047 39.0178 111.05 38.977 111.069C38.9362 111.088 38.9039 111.122 38.8862 111.163L38.043 113.059C38.0232 113.107 38.0139 113.16 38.0157 113.212C38.0175 113.264 38.0304 113.316 38.0535 113.363C38.0767 113.41 38.1095 113.452 38.1498 113.485C38.1902 113.518 38.2372 113.543 38.2877 113.557C39.1722 113.787 39.5967 113.852 40.6964 114.167C41.3745 114.356 42.3416 114.707 43.2762 114.972C44.2108 115.238 44.5233 114.327 44.1606 114.132C42.5214 113.265 42.3917 112.658 41.9436 112.009C41.8633 111.892 41.7443 111.806 41.6075 111.767Z" fill="#4CAF4F"/>
<path d="M45.564 112.599L43.4294 111.125C43.3932 111.098 43.3486 111.086 43.3041 111.091C43.2595 111.095 43.2181 111.115 43.1877 111.148L41.7725 112.67C41.738 112.709 41.7123 112.755 41.697 112.805C41.6818 112.855 41.6774 112.908 41.6841 112.96C41.6908 113.012 41.7084 113.062 41.7359 113.106C41.7633 113.151 41.7999 113.189 41.8433 113.218C42.5951 113.722 42.9842 113.926 43.9247 114.577C44.5144 114.978 45.6554 115.869 46.4514 116.423C47.2474 116.977 47.84 116.216 47.557 115.916C46.2892 114.562 46.0121 113.713 45.8028 112.944C45.7664 112.804 45.6818 112.682 45.564 112.599Z" fill="#4CAF4F"/>
<path d="M43.8334 109.857L39.986 107.944L40.384 106.9L44.4939 108.917L43.8334 109.857Z" fill="#4CAF4F"/>
<path d="M38.8302 73.7939L38.5059 74.643C38.4735 74.7079 38.5501 74.7757 38.6592 74.7757H48.4121C48.4976 74.7757 48.5683 74.7344 48.5742 74.6813L48.6568 73.8381C48.6568 73.7821 48.589 73.732 48.4976 73.732H38.9835C38.9549 73.7293 38.926 73.7335 38.8993 73.7443C38.8727 73.7551 38.849 73.7721 38.8302 73.7939Z" fill="#4CAF4F"/>
<path opacity="0.4" d="M38.8302 73.7939L38.5059 74.643C38.4735 74.7079 38.5501 74.7757 38.6592 74.7757H48.4121C48.4976 74.7757 48.5683 74.7344 48.5742 74.6813L48.6568 73.8381C48.6568 73.7821 48.589 73.732 48.4976 73.732H38.9835C38.9549 73.7293 38.926 73.7335 38.8993 73.7443C38.8727 73.7551 38.849 73.7721 38.8302 73.7939Z" fill="white"/>
<path d="M40.3662 74.8582H40.1097C40.0596 74.8582 40.0213 74.8317 40.0242 74.7992L40.1451 73.7054C40.1451 73.6759 40.1923 73.6494 40.2424 73.6494H40.4989C40.549 73.6494 40.5873 73.6759 40.5844 73.7054L40.4635 74.7992C40.4606 74.8317 40.4163 74.8582 40.3662 74.8582Z" fill="#4CAF4F"/>
<path d="M46.3807 74.8582H46.1272C46.077 74.8582 46.0387 74.8317 46.0417 74.7992L46.1596 73.7054C46.1596 73.6759 46.2097 73.6494 46.2598 73.6494H46.5134C46.5635 73.6494 46.6048 73.6759 46.5989 73.7054L46.481 74.7992C46.4662 74.8317 46.4338 74.8582 46.3807 74.8582Z" fill="#4CAF4F"/>
<g style="mix-blend-mode:multiply">
<path d="M40.1422 124.787C44.5043 124.787 48.0406 124.531 48.0406 124.215C48.0406 123.899 44.5043 123.643 40.1422 123.643C35.78 123.643 32.2438 123.899 32.2438 124.215C32.2438 124.531 35.78 124.787 40.1422 124.787Z" fill="#F5F5F5"/>
</g>
<path d="M44.9538 123.407C43.5563 123 42.0055 122.479 41.0679 121.933C41.0414 121.915 41.0119 121.907 40.9854 121.892V115.565H43.8128C44.0274 115.552 44.2291 115.458 44.3765 115.301C44.524 115.145 44.6061 114.938 44.6061 114.723C44.6061 114.508 44.524 114.301 44.3765 114.145C44.2291 113.988 44.0274 113.894 43.8128 113.881H41.0001V85.0415H39.3019V113.881H36.4922C36.3775 113.875 36.2626 113.891 36.1546 113.931C36.0466 113.97 35.9477 114.031 35.8641 114.11C35.7804 114.188 35.7138 114.283 35.6682 114.389C35.6227 114.494 35.5992 114.608 35.5992 114.723C35.5992 114.838 35.6227 114.952 35.6682 115.057C35.7138 115.163 35.7804 115.258 35.8641 115.337C35.9477 115.416 36.0466 115.476 36.1546 115.516C36.2626 115.555 36.3775 115.572 36.4922 115.565H39.3019V121.883C39.2754 121.883 39.2489 121.907 39.2223 121.924C38.27 122.479 36.7311 123 35.3336 123.398C35.2392 123.427 35.1581 123.488 35.1051 123.571C35.052 123.655 35.0305 123.754 35.0444 123.852C35.0583 123.949 35.1067 124.039 35.1808 124.104C35.255 124.169 35.3499 124.205 35.4486 124.206H44.8388C44.933 124.2 45.0222 124.161 45.0914 124.097C45.1607 124.033 45.2058 123.947 45.2193 123.853C45.2327 123.76 45.2137 123.664 45.1654 123.583C45.1171 123.502 45.0424 123.44 44.9538 123.407Z" fill="#E0E0E0"/>
<path d="M45.3871 82.105H34.9031C34.0596 82.105 33.3759 82.7887 33.3759 83.6322V86.7485C33.3759 87.5919 34.0596 88.2757 34.9031 88.2757H45.3871C46.2305 88.2757 46.9143 87.5919 46.9143 86.7485V83.6322C46.9143 82.7887 46.2305 82.105 45.3871 82.105Z" fill="#4CAF4F"/>
<path d="M34.8058 88.2787V88.8153C34.8058 89.2575 35.2864 89.6172 35.876 89.6172H44.426C45.0156 89.6172 45.4962 89.2575 45.4962 88.8153V88.2787H34.8058Z" fill="#4CAF4F"/>
<path opacity="0.3" d="M34.8058 88.2787V88.8153C34.8058 89.2575 35.2864 89.6172 35.876 89.6172H44.426C45.0156 89.6172 45.4962 89.2575 45.4962 88.8153V88.2787H34.8058Z" fill="white"/>
</svg>
