<svg width="17" height="17" viewBox="0 0 17 17" fill="none" xmlns="http://www.w3.org/2000/svg">
<mask id="path-1-inside-1_212_1413" fill="white">
<path d="M10.1092 7.92429C10.0288 7.92429 9.95414 7.90219 9.88783 7.86663V7.86758C9.88783 7.99406 9.83867 8.11284 9.74947 8.2018C9.66027 8.291 9.54158 8.34016 9.41525 8.34016C9.33368 8.34016 9.25809 8.31751 9.19107 8.28101C9.1843 8.39672 9.13805 8.50487 9.05554 8.58747C8.96634 8.67667 8.84765 8.72583 8.72123 8.72583C8.47007 8.72583 8.26611 8.5284 8.25141 8.28093C8.17369 8.32294 8.08583 8.34496 7.99521 8.33914C7.74813 8.32294 7.55464 8.10946 7.55464 7.85302V5.72741L7.3126 6.14674C7.22042 6.30712 7.04785 6.4067 6.86205 6.4067C6.77151 6.4067 6.68208 6.38295 6.60287 6.33756C6.50423 6.28038 6.43368 6.18858 6.40434 6.07877C6.37484 5.96888 6.3901 5.85396 6.44713 5.75547C6.44721 5.75547 7.23906 4.38422 7.28736 4.29999C7.29311 4.28732 7.30947 4.25059 7.32339 4.21928C7.33668 4.18939 7.34809 4.15872 7.35902 4.12788C7.59782 3.45371 8.18911 3.03493 8.90222 3.03493C9.82826 3.03493 10.5816 3.85187 10.5816 4.85604L10.5817 7.45163C10.5817 7.57796 10.5326 7.69666 10.4435 7.78594C10.3543 7.87514 10.2356 7.9243 10.1092 7.9243L10.1092 7.92429ZM8.90223 3.28605C8.28948 3.28605 7.80109 3.63215 7.59571 4.21186C7.58258 4.24867 7.56889 4.28549 7.55292 4.32136C7.50659 4.42526 7.50659 4.42526 7.49354 4.44021L7.49181 4.43871C7.42715 4.56071 7.23507 4.89335 6.66456 5.88115C6.64112 5.92166 6.6349 5.9687 6.64686 6.01369C6.65897 6.05868 6.688 6.0966 6.72819 6.1198C6.85295 6.19146 7.0238 6.14521 7.0949 6.02132L7.57149 5.19619C7.59997 5.14702 7.65754 5.12288 7.71276 5.13782C7.76766 5.15253 7.80581 5.20232 7.80581 5.25911V7.8531C7.80581 7.97549 7.89816 8.08112 8.01167 8.08859C8.07711 8.09206 8.13815 8.07011 8.18401 8.02433C8.2257 7.98264 8.24867 7.92711 8.24867 7.86772V6.17122C8.24867 6.10185 8.30491 6.0456 8.37428 6.0456C8.44366 6.0456 8.4999 6.10177 8.4999 6.17122L8.49982 8.25334C8.49982 8.37541 8.59917 8.47476 8.72124 8.47476C8.78055 8.47476 8.83624 8.45179 8.87801 8.4101C8.9197 8.36833 8.94267 8.31265 8.94267 8.25334V6.17122C8.94267 6.10184 8.99883 6.0456 9.06828 6.0456C9.13766 6.0456 9.1939 6.10176 9.1939 6.17122L9.19382 7.84821V7.86772C9.19382 7.98972 9.29317 8.08906 9.41532 8.08906C9.47455 8.08906 9.53009 8.06601 9.57209 8.02416C9.61378 7.98255 9.63675 7.92702 9.63675 7.86763V6.17113C9.63675 6.10176 9.69291 6.04551 9.76237 6.04551C9.83174 6.04551 9.88798 6.10168 9.88798 6.17113L9.88783 7.45169C9.88783 7.57385 9.98717 7.67319 10.1092 7.67319C10.1686 7.67319 10.2241 7.65015 10.2658 7.60854C10.3076 7.56669 10.3305 7.511 10.3305 7.45169L10.3306 4.8561C10.3306 3.99047 9.68984 3.28607 8.90222 3.28607L8.90223 3.28605Z"/>
</mask>
<path d="M10.1092 7.92429C10.0288 7.92429 9.95414 7.90219 9.88783 7.86663V7.86758C9.88783 7.99406 9.83867 8.11284 9.74947 8.2018C9.66027 8.291 9.54158 8.34016 9.41525 8.34016C9.33368 8.34016 9.25809 8.31751 9.19107 8.28101C9.1843 8.39672 9.13805 8.50487 9.05554 8.58747C8.96634 8.67667 8.84765 8.72583 8.72123 8.72583C8.47007 8.72583 8.26611 8.5284 8.25141 8.28093C8.17369 8.32294 8.08583 8.34496 7.99521 8.33914C7.74813 8.32294 7.55464 8.10946 7.55464 7.85302V5.72741L7.3126 6.14674C7.22042 6.30712 7.04785 6.4067 6.86205 6.4067C6.77151 6.4067 6.68208 6.38295 6.60287 6.33756C6.50423 6.28038 6.43368 6.18858 6.40434 6.07877C6.37484 5.96888 6.3901 5.85396 6.44713 5.75547C6.44721 5.75547 7.23906 4.38422 7.28736 4.29999C7.29311 4.28732 7.30947 4.25059 7.32339 4.21928C7.33668 4.18939 7.34809 4.15872 7.35902 4.12788C7.59782 3.45371 8.18911 3.03493 8.90222 3.03493C9.82826 3.03493 10.5816 3.85187 10.5816 4.85604L10.5817 7.45163C10.5817 7.57796 10.5326 7.69666 10.4435 7.78594C10.3543 7.87514 10.2356 7.9243 10.1092 7.9243L10.1092 7.92429ZM8.90223 3.28605C8.28948 3.28605 7.80109 3.63215 7.59571 4.21186C7.58258 4.24867 7.56889 4.28549 7.55292 4.32136C7.50659 4.42526 7.50659 4.42526 7.49354 4.44021L7.49181 4.43871C7.42715 4.56071 7.23507 4.89335 6.66456 5.88115C6.64112 5.92166 6.6349 5.9687 6.64686 6.01369C6.65897 6.05868 6.688 6.0966 6.72819 6.1198C6.85295 6.19146 7.0238 6.14521 7.0949 6.02132L7.57149 5.19619C7.59997 5.14702 7.65754 5.12288 7.71276 5.13782C7.76766 5.15253 7.80581 5.20232 7.80581 5.25911V7.8531C7.80581 7.97549 7.89816 8.08112 8.01167 8.08859C8.07711 8.09206 8.13815 8.07011 8.18401 8.02433C8.2257 7.98264 8.24867 7.92711 8.24867 7.86772V6.17122C8.24867 6.10185 8.30491 6.0456 8.37428 6.0456C8.44366 6.0456 8.4999 6.10177 8.4999 6.17122L8.49982 8.25334C8.49982 8.37541 8.59917 8.47476 8.72124 8.47476C8.78055 8.47476 8.83624 8.45179 8.87801 8.4101C8.9197 8.36833 8.94267 8.31265 8.94267 8.25334V6.17122C8.94267 6.10184 8.99883 6.0456 9.06828 6.0456C9.13766 6.0456 9.1939 6.10176 9.1939 6.17122L9.19382 7.84821V7.86772C9.19382 7.98972 9.29317 8.08906 9.41532 8.08906C9.47455 8.08906 9.53009 8.06601 9.57209 8.02416C9.61378 7.98255 9.63675 7.92702 9.63675 7.86763V6.17113C9.63675 6.10176 9.69291 6.04551 9.76237 6.04551C9.83174 6.04551 9.88798 6.10168 9.88798 6.17113L9.88783 7.45169C9.88783 7.57385 9.98717 7.67319 10.1092 7.67319C10.1686 7.67319 10.2241 7.65015 10.2658 7.60854C10.3076 7.56669 10.3305 7.511 10.3305 7.45169L10.3306 4.8561C10.3306 3.99047 9.68984 3.28607 8.90222 3.28607L8.90223 3.28605Z" fill="#4CAF4F"/>
<path d="M10.1092 7.92429V7.47914H11.6819L10.3425 8.30341L10.1092 7.92429ZM9.88783 7.86663H9.44268V7.12283L10.0982 7.47432L9.88783 7.86663ZM9.74947 8.2018L9.4347 7.88703L9.43512 7.88662L9.74947 8.2018ZM9.19107 8.28101L8.74667 8.25503L8.78763 7.55443L9.40396 7.89007L9.19107 8.28101ZM9.05554 8.58747L9.37048 8.90208L9.37031 8.90224L9.05554 8.58747ZM8.25141 8.28093L8.03975 7.88932L8.65435 7.55714L8.69578 8.25454L8.25141 8.28093ZM7.99521 8.33914L7.96667 8.78338L7.96608 8.78334L7.99521 8.33914ZM7.55464 5.72741L7.1691 5.50488L7.9998 4.06574V5.72741H7.55464ZM7.3126 6.14674L6.92666 5.9249L6.92706 5.9242L7.3126 6.14674ZM6.60287 6.33756L6.38155 6.72381L6.3796 6.72268L6.60287 6.33756ZM6.40434 6.07877L6.83427 5.96336L6.83441 5.96386L6.40434 6.07877ZM6.44713 5.75547L6.06189 5.53241L6.19049 5.31032H6.44713V5.75547ZM7.28736 4.29999L7.69279 4.48381L7.68405 4.50309L7.67352 4.52145L7.28736 4.29999ZM7.32339 4.21928L6.91664 4.0384L6.91664 4.03839L7.32339 4.21928ZM7.35902 4.12788L7.77863 4.27651L7.77859 4.27663L7.35902 4.12788ZM10.5816 4.85604L10.1365 4.85605V4.85604H10.5816ZM10.5817 7.45163L11.0269 7.45162V7.45163H10.5817ZM10.4435 7.78594L10.7586 8.10042L10.7583 8.10071L10.4435 7.78594ZM10.1092 7.9243V8.36946H8.5364L9.87585 7.54518L10.1092 7.9243ZM8.90223 3.28605V2.84089H9.49239L9.33026 3.40834L8.90223 3.28605ZM7.59571 4.21186L8.01532 4.36051L8.01498 4.36147L7.59571 4.21186ZM7.55292 4.32136L7.9596 4.5024L7.9595 4.50264L7.55292 4.32136ZM7.49354 4.44021L7.82876 4.7331L7.53754 5.0664L7.20257 4.77711L7.49354 4.44021ZM7.49181 4.43871L7.09847 4.23026L7.36004 3.73672L7.78277 4.10181L7.49181 4.43871ZM6.66456 5.88115L7.05004 6.10379L7.04985 6.10411L6.66456 5.88115ZM6.64686 6.01369L6.21701 6.12942L6.21664 6.12803L6.64686 6.01369ZM6.72819 6.1198L6.50647 6.50581L6.50564 6.50533L6.72819 6.1198ZM7.0949 6.02132L6.70881 5.79973L6.70942 5.79867L7.0949 6.02132ZM7.57149 5.19619L7.18602 4.97354L7.18629 4.97307L7.57149 5.19619ZM7.71276 5.13782L7.59756 5.56782L7.59646 5.56752L7.71276 5.13782ZM8.01167 8.08859L7.98816 8.53317L7.98243 8.53279L8.01167 8.08859ZM8.18401 8.02433L8.49878 8.3391L8.49851 8.33938L8.18401 8.02433ZM8.4999 6.17122H8.94506V6.17124L8.4999 6.17122ZM8.49982 8.25334H8.05467V8.25332L8.49982 8.25334ZM8.87801 8.4101L9.19308 8.72458L9.19248 8.72518L8.87801 8.4101ZM9.1939 6.17122H9.63906V6.17124L9.1939 6.17122ZM9.19382 7.84821H8.74867V7.84819L9.19382 7.84821ZM9.57209 8.02416L9.88657 8.33923L9.88627 8.33952L9.57209 8.02416ZM9.88798 6.17113H10.3331V6.17119L9.88798 6.17113ZM9.88783 7.45169H9.44267L9.44267 7.45164L9.88783 7.45169ZM10.2658 7.60854L10.5805 7.92331L10.5802 7.92361L10.2658 7.60854ZM10.3305 7.45169H9.88535V7.45168L10.3305 7.45169ZM10.3306 4.8561H10.7757V4.85611L10.3306 4.8561ZM8.90222 3.28607V3.73123H8.31207L8.4742 3.16378L8.90222 3.28607ZM10.1092 8.36945C9.94526 8.36945 9.79892 8.32407 9.67747 8.25895L10.0982 7.47432C10.1039 7.4774 10.1076 7.47858 10.109 7.47897C10.1103 7.47931 10.1101 7.47914 10.1092 7.47914V8.36945ZM10.333 7.86663V7.86758H9.44268V7.86663H10.333ZM10.333 7.86758C10.333 8.11175 10.2372 8.34411 10.0638 8.51699L9.43512 7.88662C9.4383 7.88344 9.43987 7.88072 9.44079 7.8785C9.44172 7.87627 9.44268 7.87284 9.44268 7.86758H10.333ZM10.0642 8.51658C9.89149 8.68933 9.65955 8.78532 9.41525 8.78532V7.89501C9.42035 7.89501 9.42372 7.89408 9.426 7.89314C9.42828 7.89219 9.43122 7.89051 9.4347 7.88703L10.0642 8.51658ZM9.41525 8.78532C9.24919 8.78532 9.10102 8.73886 8.97817 8.67196L9.40396 7.89007C9.40976 7.89322 9.41344 7.89442 9.41489 7.89482C9.41614 7.89516 9.41604 7.89501 9.41525 7.89501V8.78532ZM9.63546 8.30699C9.62265 8.5261 9.53377 8.73861 9.37048 8.90208L8.7406 8.27286C8.74225 8.27121 8.74321 8.26975 8.74402 8.26791C8.74489 8.26591 8.74627 8.26183 8.74667 8.25503L9.63546 8.30699ZM9.37031 8.90224C9.19753 9.07502 8.96557 9.17099 8.72123 9.17099V8.28067C8.72641 8.28067 8.7298 8.27973 8.73208 8.27879C8.73435 8.27785 8.73729 8.27617 8.74077 8.2727L9.37031 8.90224ZM8.72123 9.17099C8.22978 9.17099 7.83542 8.78527 7.80703 8.30733L8.69578 8.25454C8.69623 8.26211 8.69933 8.26875 8.70481 8.27398C8.70748 8.27653 8.71019 8.27817 8.71255 8.27913C8.71462 8.27998 8.71725 8.28067 8.72123 8.28067V9.17099ZM8.46306 8.67255C8.31928 8.75027 8.14879 8.79508 7.96667 8.78338L8.02375 7.8949C8.02376 7.8949 8.02471 7.89499 8.02705 7.89445C8.02956 7.89386 8.03392 7.89247 8.03975 7.88932L8.46306 8.67255ZM7.96608 8.78334C7.47181 8.75093 7.10949 8.33059 7.10949 7.85302H7.9998C7.9998 7.86808 8.00526 7.87967 8.01211 7.88723C8.01879 7.89459 8.02332 7.89487 8.02434 7.89494L7.96608 8.78334ZM7.10949 7.85302V5.72741H7.9998V7.85302H7.10949ZM7.94018 5.94995L7.69814 6.36928L6.92706 5.9242L7.1691 5.50488L7.94018 5.94995ZM7.69855 6.36857C7.52653 6.66783 7.20635 6.85186 6.86205 6.85186V5.96154C6.88934 5.96154 6.9143 5.94641 6.92666 5.9249L7.69855 6.36857ZM6.86205 6.85186C6.69371 6.85186 6.528 6.80771 6.38155 6.7238L6.82419 5.95132C6.83616 5.95818 6.84932 5.96154 6.86205 5.96154V6.85186ZM6.3796 6.72268C6.17974 6.60681 6.03427 6.41825 5.97427 6.19367L6.83441 5.96386C6.834 5.96234 6.83289 5.95965 6.83075 5.95686C6.82862 5.95409 6.82665 5.95274 6.82614 5.95244L6.3796 6.72268ZM5.9744 6.19417C5.91416 5.96976 5.9457 5.73308 6.06189 5.53241L6.83236 5.97854C6.833 5.97744 6.83411 5.9749 6.83459 5.9713C6.83506 5.9677 6.83466 5.96482 6.83427 5.96336L5.9744 6.19417ZM6.44713 5.31032C6.22876 5.36756 6.06532 5.5266 6.06409 5.52865C6.06369 5.52934 6.06308 5.53037 6.06289 5.5307C6.06278 5.53089 6.06259 5.53121 6.06253 5.53132C6.06248 5.53139 6.0624 5.53153 6.06238 5.53156C6.06232 5.53167 6.06234 5.53164 6.06251 5.53135C6.06281 5.53083 6.06332 5.52995 6.06406 5.52867C6.06552 5.52614 6.06772 5.52234 6.07062 5.51732C6.07641 5.50729 6.08493 5.49255 6.09581 5.47372C6.11755 5.43608 6.14867 5.38221 6.18616 5.31727C6.26116 5.18742 6.36165 5.01339 6.46365 4.83673C6.66799 4.48282 6.87748 4.11989 6.90121 4.07852L7.67352 4.52145C7.64894 4.56431 7.43835 4.92913 7.23467 5.2819C7.13266 5.45858 7.03215 5.63264 6.95714 5.76252C6.91964 5.82746 6.8885 5.88137 6.86674 5.91905C6.85586 5.93789 6.84731 5.95269 6.84147 5.96278C6.83856 5.96783 6.8363 5.97174 6.83476 5.9744C6.83399 5.97572 6.83336 5.97681 6.8329 5.97761C6.83269 5.97798 6.83242 5.97844 6.83216 5.97888C6.83207 5.97905 6.83178 5.97954 6.83144 5.98012C6.83122 5.98049 6.8306 5.98156 6.83018 5.98226C6.82895 5.98434 6.66549 6.14339 6.44713 6.20063V5.31032ZM6.88194 4.11616C6.88684 4.10535 6.90236 4.07051 6.91664 4.0384L7.73014 4.40017C7.71657 4.43067 7.69937 4.46929 7.69279 4.48381L6.88194 4.11616ZM6.91664 4.03839C6.92283 4.02448 6.92968 4.0067 6.93945 3.97913L7.77859 4.27663C7.7665 4.31073 7.75053 4.35431 7.73013 4.40018L6.91664 4.03839ZM6.93941 3.97925C7.24091 3.12806 7.99979 2.58978 8.90222 2.58978V3.48009C8.37842 3.48009 7.95473 3.77936 7.77863 4.27651L6.93941 3.97925ZM8.90222 2.58978C10.1074 2.58978 11.0268 3.64065 11.0268 4.85604H10.1365C10.1365 4.06309 9.54915 3.48009 8.90222 3.48009V2.58978ZM11.0268 4.85602L11.0269 7.45162L10.1366 7.45165L10.1365 4.85605L11.0268 4.85602ZM11.0269 7.45163C11.0269 7.69575 10.9311 7.92758 10.7586 8.10042L10.1285 7.47146C10.132 7.46793 10.1337 7.46494 10.1347 7.4626C10.1356 7.46026 10.1366 7.45682 10.1366 7.45163H11.0269ZM10.7583 8.10071C10.5855 8.27352 10.3535 8.36946 10.1092 8.36946V7.47914C10.1144 7.47914 10.1178 7.47819 10.1201 7.47725C10.1223 7.47631 10.1253 7.47464 10.1288 7.47117L10.7583 8.10071ZM9.87585 7.54518L9.87587 7.54517L10.3425 8.30341L10.3425 8.30342L9.87585 7.54518ZM8.90223 3.7312C8.47899 3.7312 8.15805 3.95761 8.01532 4.36051L7.17611 4.06321C7.44412 3.30669 8.09996 2.84089 8.90223 2.84089V3.7312ZM8.01498 4.36147C8.00092 4.40085 7.98267 4.45058 7.9596 4.5024L7.14625 4.14031C7.15512 4.12039 7.16423 4.0965 7.17645 4.06225L8.01498 4.36147ZM7.9595 4.50264C7.93911 4.54836 7.92203 4.58697 7.90896 4.61312C7.90085 4.62935 7.88772 4.65437 7.86868 4.68208C7.84938 4.71015 7.83031 4.73133 7.82876 4.7331L7.15831 4.14731C7.15936 4.14611 7.15902 4.1465 7.15849 4.14711C7.15781 4.1479 7.15608 4.14992 7.15381 4.15269C7.14874 4.15887 7.1421 4.16739 7.13494 4.17781C7.12102 4.19807 7.11323 4.21379 7.11254 4.21517C7.11204 4.21618 7.11235 4.21558 7.11387 4.21234C7.11533 4.2092 7.11741 4.20469 7.12038 4.19811C7.12647 4.18467 7.13455 4.16654 7.14635 4.14008L7.9595 4.50264ZM7.20257 4.77711L7.20084 4.77562L7.78277 4.10181L7.7845 4.1033L7.20257 4.77711ZM7.88514 4.64717C7.81547 4.77863 7.61657 5.12288 7.05004 6.10379L6.27908 5.65851C6.85356 4.66383 7.03883 4.3428 7.09847 4.23026L7.88514 4.64717ZM7.04985 6.10411C7.08547 6.04255 7.0954 5.96829 7.07708 5.89935L6.21664 6.12803C6.1744 5.96911 6.19676 5.80077 6.27926 5.65819L7.04985 6.10411ZM7.07671 5.89796C7.05839 5.82992 7.01337 5.77042 6.95075 5.73427L6.50564 6.50533C6.36263 6.42277 6.25955 6.28744 6.21701 6.12942L7.07671 5.89796ZM6.94992 5.73379C6.89925 5.70469 6.84996 5.70488 6.81593 5.71404C6.78203 5.72317 6.73857 5.74789 6.70881 5.79973L7.48099 6.24291C7.28698 6.58094 6.8436 6.69945 6.50647 6.50581L6.94992 5.73379ZM6.70942 5.79867L7.18602 4.97354L7.95697 5.41883L7.48037 6.24397L6.70942 5.79867ZM7.18629 4.97307C7.31486 4.75108 7.57731 4.63999 7.82906 4.70813L7.59646 5.56752C7.73777 5.60576 7.88507 5.54297 7.95669 5.4193L7.18629 4.97307ZM7.82796 4.70783C8.0777 4.77474 8.25097 5.00105 8.25097 5.25911H7.36066C7.36066 5.40359 7.45763 5.53033 7.59756 5.56781L7.82796 4.70783ZM8.25097 5.25911V7.8531H7.36066V5.25911H8.25097ZM8.25097 7.8531C8.25097 7.80237 8.23218 7.75626 8.20133 7.72097C8.17053 7.68573 8.11618 7.64935 8.0409 7.6444L7.98243 8.53279C7.6077 8.50813 7.36066 8.18169 7.36066 7.8531H8.25097ZM8.03518 7.64406C7.98259 7.64128 7.91834 7.66054 7.86951 7.70928L8.49851 8.33938C8.35796 8.47968 8.17164 8.54283 7.98816 8.53313L8.03518 7.64406ZM7.86924 7.70956C7.82699 7.7518 7.80351 7.80969 7.80351 7.86772H8.69382C8.69382 8.04453 8.6244 8.21348 8.49878 8.3391L7.86924 7.70956ZM7.80351 7.86772V6.17122H8.69382V7.86772H7.80351ZM7.80351 6.17122C7.80351 5.85599 8.05905 5.60045 8.37428 5.60045V6.49076C8.55076 6.49076 8.69382 6.3477 8.69382 6.17122H7.80351ZM8.37428 5.60045C8.68933 5.60045 8.94506 5.85574 8.94506 6.17122H8.05474C8.05474 6.3478 8.19799 6.49076 8.37428 6.49076V5.60045ZM8.94506 6.17124L8.94498 8.25335L8.05467 8.25332L8.05474 6.1712L8.94506 6.17124ZM8.94498 8.25334C8.94498 8.12956 8.84502 8.0296 8.72124 8.0296V8.91991C8.35332 8.91991 8.05467 8.62127 8.05467 8.25334H8.94498ZM8.72124 8.0296C8.6633 8.0296 8.6057 8.05295 8.56354 8.09503L9.19248 8.72518C9.06678 8.85063 8.8978 8.91991 8.72124 8.91991V8.0296ZM8.56294 8.09563C8.52085 8.13779 8.49751 8.1954 8.49751 8.25334H9.38782C9.38782 8.42989 9.31854 8.59888 9.19308 8.72458L8.56294 8.09563ZM8.49751 8.25334V6.17122H9.38782V8.25334H8.49751ZM8.49751 6.17122C8.49751 5.85618 8.75279 5.60045 9.06828 5.60045V6.49076C9.24487 6.49076 9.38782 6.34751 9.38782 6.17122H8.49751ZM9.06828 5.60045C9.38333 5.60045 9.63906 5.85573 9.63906 6.17122H8.74875C8.74875 6.3478 8.89199 6.49076 9.06828 6.49076V5.60045ZM9.63906 6.17124L9.63898 7.84823L8.74867 7.84819L8.74875 6.1712L9.63906 6.17124ZM9.63898 7.84821V7.86772H8.74867V7.84821H9.63898ZM9.63898 7.86772C9.63898 7.74365 9.5388 7.6439 9.41532 7.6439V8.53421C9.04753 8.53421 8.74867 8.23579 8.74867 7.86772H9.63898ZM9.41532 7.6439C9.35617 7.6439 9.29891 7.66796 9.25791 7.7088L9.88627 8.33952C9.76127 8.46406 9.59293 8.53421 9.41532 8.53421V7.6439ZM9.25762 7.70909C9.21503 7.7516 9.19159 7.80967 9.19159 7.86763H10.0819C10.0819 8.04437 10.0125 8.21351 9.88657 8.33923L9.25762 7.70909ZM9.19159 7.86763V6.17113H10.0819V7.86763H9.19159ZM9.19159 6.17113C9.19159 5.85608 9.44688 5.60036 9.76237 5.60036V6.49067C9.93894 6.49067 10.0819 6.34743 10.0819 6.17113H9.19159ZM9.76237 5.60036C10.0774 5.60036 10.3331 5.85564 10.3331 6.17113H9.44283C9.44283 6.34771 9.58607 6.49067 9.76237 6.49067V5.60036ZM10.3331 6.17119L10.333 7.45175L9.44267 7.45164L9.44283 6.17108L10.3331 6.17119ZM10.333 7.45169C10.333 7.32821 10.2332 7.22804 10.1092 7.22804V8.11835C9.74111 8.11835 9.44267 7.81949 9.44267 7.45169H10.333ZM10.1092 7.22804C10.0508 7.22804 9.99316 7.25168 9.9513 7.29347L10.5802 7.92361C10.455 8.04862 10.2863 8.11835 10.1092 8.11835V7.22804ZM9.951 7.29377C9.90861 7.33616 9.88535 7.39401 9.88535 7.45169H10.7757C10.7757 7.628 10.7066 7.79723 10.5805 7.92331L9.951 7.29377ZM9.88535 7.45168L9.88543 4.85608L10.7757 4.85611L10.7757 7.45171L9.88535 7.45168ZM9.88543 4.8561C9.88543 4.19575 9.40529 3.73123 8.90222 3.73123V2.84092C9.97439 2.84092 10.7757 3.78519 10.7757 4.8561H9.88543ZM8.4742 3.16378L8.4742 3.16375L9.33026 3.40834L9.33025 3.40837L8.4742 3.16378Z" fill="#4CAF4F" mask="url(#path-1-inside-1_212_1413)"/>
<path d="M4.65015 8.78235L4.62476 8.76868C4.61873 8.77954 4.60268 8.80876 4.57886 8.85168C4.58776 8.85615 4.59623 8.86099 4.60522 8.86438C4.62007 8.83763 4.63473 8.81012 4.65015 8.78235Z" fill="#4CAF4F" stroke="#4CAF4F" stroke-width="0.445155"/>
<mask id="path-4-inside-2_212_1413" fill="white">
<path d="M13.8839 12.2689C13.6521 12.6555 13.2709 12.9201 12.8103 13.0142C12.3539 13.1072 11.8738 13.0214 11.4583 12.7723L9.23244 11.437C9.12413 11.3721 9.04752 11.2689 9.01684 11.1463C8.9864 11.024 9.00543 10.8969 9.07033 10.7887C9.11083 10.7211 9.16763 10.6677 9.23346 10.6283L9.23283 10.6279C9.12452 10.563 9.04791 10.4598 9.01739 10.3374C8.98672 10.215 9.00575 10.0879 9.07072 9.97948C9.11257 9.90986 9.16991 9.85543 9.23536 9.81681C9.14034 9.75145 9.0719 9.65651 9.04374 9.54386C9.01307 9.42139 9.0321 9.29435 9.09707 9.18612C9.16197 9.0778 9.26525 9.00127 9.38764 8.97067C9.42587 8.96108 9.46465 8.95636 9.50304 8.95636C9.57839 8.95644 9.65233 8.97555 9.72029 9.01111C9.72446 8.92309 9.75065 8.83664 9.80209 8.76246C9.94313 8.55898 10.2257 8.50266 10.4458 8.63472L12.2685 9.72807L12.0336 9.30488C11.9434 9.14332 11.9467 8.94399 12.0423 8.78463C12.0889 8.70708 12.1554 8.64266 12.2349 8.59806C12.3003 8.56187 12.3711 8.54473 12.4409 8.54473C12.5909 8.54481 12.7366 8.62394 12.8142 8.76404C13.0844 9.25102 13.5944 10.1694 13.6303 10.2335C13.6379 10.2446 13.661 10.2777 13.6807 10.3057C13.6995 10.3324 13.7198 10.3579 13.7408 10.3832C14.1959 10.9349 14.2508 11.6574 13.8839 12.2689L13.8839 12.2689ZM13.547 10.5433C13.522 10.513 13.4975 10.4821 13.4751 10.4503C13.4072 10.3538 13.4054 10.3513 13.4003 10.3261C13.3209 10.1946 13.1271 9.84569 12.5943 8.88589C12.5476 8.80164 12.4414 8.77089 12.3569 8.81761C12.3152 8.84089 12.2818 8.87338 12.2574 8.91405C12.208 8.9964 12.2062 9.09929 12.2528 9.18283L12.7151 10.0159C12.7428 10.0656 12.7336 10.1276 12.6927 10.1671C12.652 10.2066 12.5897 10.2136 12.5408 10.1845L10.3165 8.8501C10.2116 8.78725 10.0734 8.81187 10.0086 8.90547C9.97133 8.95927 9.95946 9.02346 9.97503 9.08615C9.98935 9.14341 10.0253 9.19171 10.0762 9.22223C10.0763 9.22231 10.0764 9.22246 10.0766 9.22254L11.5309 10.095C11.5904 10.1307 11.6096 10.2078 11.5739 10.2674C11.5382 10.3267 11.4612 10.3462 11.4016 10.3104L9.61612 9.2393C9.56546 9.20894 9.50584 9.19997 9.44858 9.21437C9.39115 9.22868 9.34286 9.26455 9.31242 9.31544C9.2819 9.36618 9.27309 9.42572 9.28725 9.48298C9.30156 9.54025 9.33751 9.58862 9.38832 9.61914L9.73576 9.82751L11.1737 10.6902C11.2332 10.726 11.2524 10.803 11.2167 10.8626C11.181 10.922 11.104 10.9413 11.0444 10.9056L9.58977 10.0329C9.48516 9.96997 9.34892 10.0041 9.28599 10.1089C9.25547 10.1597 9.24666 10.2192 9.26082 10.2765C9.27514 10.3338 9.31108 10.3821 9.36197 10.4127L9.71861 10.6266L10.8166 11.2854C10.8761 11.3211 10.8953 11.3982 10.8596 11.4577C10.8239 11.5171 10.7469 11.5366 10.6873 11.5007L9.5893 10.842C9.53864 10.8116 9.47926 10.8026 9.42168 10.817C9.36441 10.8314 9.31596 10.8672 9.28552 10.918C9.25508 10.9688 9.24619 11.0284 9.26035 11.0856C9.27467 11.1428 9.31061 11.1911 9.3615 11.2217L11.5874 12.557C11.9486 12.7737 12.3652 12.8488 12.7599 12.7682C13.1505 12.6885 13.4732 12.4653 13.6684 12.1398C13.9839 11.6142 13.9385 11.0174 13.5472 10.5433L13.547 10.5433Z"/>
</mask>
<path d="M13.8839 12.2689C13.6521 12.6555 13.2709 12.9201 12.8103 13.0142C12.3539 13.1072 11.8738 13.0214 11.4583 12.7723L9.23244 11.437C9.12413 11.3721 9.04752 11.2689 9.01684 11.1463C8.9864 11.024 9.00543 10.8969 9.07033 10.7887C9.11083 10.7211 9.16763 10.6677 9.23346 10.6283L9.23283 10.6279C9.12452 10.563 9.04791 10.4598 9.01739 10.3374C8.98672 10.215 9.00575 10.0879 9.07072 9.97948C9.11257 9.90986 9.16991 9.85543 9.23536 9.81681C9.14034 9.75145 9.0719 9.65651 9.04374 9.54386C9.01307 9.42139 9.0321 9.29435 9.09707 9.18612C9.16197 9.0778 9.26525 9.00127 9.38764 8.97067C9.42587 8.96108 9.46465 8.95636 9.50304 8.95636C9.57839 8.95644 9.65233 8.97555 9.72029 9.01111C9.72446 8.92309 9.75065 8.83664 9.80209 8.76246C9.94313 8.55898 10.2257 8.50266 10.4458 8.63472L12.2685 9.72807L12.0336 9.30488C11.9434 9.14332 11.9467 8.94399 12.0423 8.78463C12.0889 8.70708 12.1554 8.64266 12.2349 8.59806C12.3003 8.56187 12.3711 8.54473 12.4409 8.54473C12.5909 8.54481 12.7366 8.62394 12.8142 8.76404C13.0844 9.25102 13.5944 10.1694 13.6303 10.2335C13.6379 10.2446 13.661 10.2777 13.6807 10.3057C13.6995 10.3324 13.7198 10.3579 13.7408 10.3832C14.1959 10.9349 14.2508 11.6574 13.8839 12.2689L13.8839 12.2689ZM13.547 10.5433C13.522 10.513 13.4975 10.4821 13.4751 10.4503C13.4072 10.3538 13.4054 10.3513 13.4003 10.3261C13.3209 10.1946 13.1271 9.84569 12.5943 8.88589C12.5476 8.80164 12.4414 8.77089 12.3569 8.81761C12.3152 8.84089 12.2818 8.87338 12.2574 8.91405C12.208 8.9964 12.2062 9.09929 12.2528 9.18283L12.7151 10.0159C12.7428 10.0656 12.7336 10.1276 12.6927 10.1671C12.652 10.2066 12.5897 10.2136 12.5408 10.1845L10.3165 8.8501C10.2116 8.78725 10.0734 8.81187 10.0086 8.90547C9.97133 8.95927 9.95946 9.02346 9.97503 9.08615C9.98935 9.14341 10.0253 9.19171 10.0762 9.22223C10.0763 9.22231 10.0764 9.22246 10.0766 9.22254L11.5309 10.095C11.5904 10.1307 11.6096 10.2078 11.5739 10.2674C11.5382 10.3267 11.4612 10.3462 11.4016 10.3104L9.61612 9.2393C9.56546 9.20894 9.50584 9.19997 9.44858 9.21437C9.39115 9.22868 9.34286 9.26455 9.31242 9.31544C9.2819 9.36618 9.27309 9.42572 9.28725 9.48298C9.30156 9.54025 9.33751 9.58862 9.38832 9.61914L9.73576 9.82751L11.1737 10.6902C11.2332 10.726 11.2524 10.803 11.2167 10.8626C11.181 10.922 11.104 10.9413 11.0444 10.9056L9.58977 10.0329C9.48516 9.96997 9.34892 10.0041 9.28599 10.1089C9.25547 10.1597 9.24666 10.2192 9.26082 10.2765C9.27514 10.3338 9.31108 10.3821 9.36197 10.4127L9.71861 10.6266L10.8166 11.2854C10.8761 11.3211 10.8953 11.3982 10.8596 11.4577C10.8239 11.5171 10.7469 11.5366 10.6873 11.5007L9.5893 10.842C9.53864 10.8116 9.47926 10.8026 9.42168 10.817C9.36441 10.8314 9.31596 10.8672 9.28552 10.918C9.25508 10.9688 9.24619 11.0284 9.26035 11.0856C9.27467 11.1428 9.31061 11.1911 9.3615 11.2217L11.5874 12.557C11.9486 12.7737 12.3652 12.8488 12.7599 12.7682C13.1505 12.6885 13.4732 12.4653 13.6684 12.1398C13.9839 11.6142 13.9385 11.0174 13.5472 10.5433L13.547 10.5433Z" fill="#4CAF4F"/>
<path d="M13.8839 12.2689L13.7403 11.8476L14.8908 11.4553L14.2657 12.4978L13.8839 12.2689ZM12.8103 13.0142L12.8994 13.4503L12.8992 13.4504L12.8103 13.0142ZM11.4583 12.7723L11.2294 13.1541L11.2293 13.1541L11.4583 12.7723ZM9.23244 11.437L9.46143 11.0553L9.46144 11.0553L9.23244 11.437ZM9.01684 11.1463L8.585 11.2544L8.58486 11.2538L9.01684 11.1463ZM9.07033 10.7887L9.45224 11.0174L9.45212 11.0176L9.07033 10.7887ZM9.23346 10.6283L9.4694 10.2508L10.0865 10.6365L9.46209 11.0103L9.23346 10.6283ZM9.23283 10.6279L9.46186 10.2461L9.46877 10.2504L9.23283 10.6279ZM9.01739 10.3374L9.44919 10.2291L9.44933 10.2297L9.01739 10.3374ZM9.07072 9.97948L8.68892 9.75059L8.6892 9.75013L9.07072 9.97948ZM9.23536 9.81681L9.48765 9.45005L10.0626 9.84554L9.4616 10.2002L9.23536 9.81681ZM9.04374 9.54386L9.47556 9.4357L9.47561 9.4359L9.04374 9.54386ZM9.09707 9.18612L9.47894 9.4149L9.47874 9.41523L9.09707 9.18612ZM9.38764 8.97067L9.49603 9.40243L9.49559 9.40254L9.38764 8.97067ZM9.50304 8.95636V8.5112L9.5035 8.5112L9.50304 8.95636ZM9.72029 9.01111L10.1649 9.03217L10.1319 9.72888L9.51393 9.40554L9.72029 9.01111ZM9.80209 8.76246L10.168 9.01605L10.1679 9.01614L9.80209 8.76246ZM10.4458 8.63472L10.2168 9.01646L10.2167 9.01643L10.4458 8.63472ZM12.2685 9.72807L12.6577 9.51199L13.464 10.9643L12.0395 10.1098L12.2685 9.72807ZM12.0336 9.30488L12.4223 9.08799L12.4228 9.0888L12.0336 9.30488ZM12.0423 8.78463L11.6605 8.55569L11.6606 8.55549L12.0423 8.78463ZM12.2349 8.59806L12.0172 8.20979L12.0193 8.20859L12.2349 8.59806ZM12.4409 8.54473V8.09957L12.4412 8.09957L12.4409 8.54473ZM12.8142 8.76404L12.4249 8.98006L12.4247 8.97961L12.8142 8.76404ZM13.6303 10.2335L13.2636 10.4858L13.2519 10.4689L13.2418 10.4509L13.6303 10.2335ZM13.6807 10.3057L13.3169 10.5622L13.3166 10.5618L13.6807 10.3057ZM13.7408 10.3832L14.0835 10.0991L14.0842 10.0999L13.7408 10.3832ZM13.8839 12.2689L14.0275 12.6903L12.8765 13.0827L13.5022 12.0399L13.8839 12.2689ZM13.547 10.5433L13.5911 10.9863L13.355 11.0098L13.2038 10.8268L13.547 10.5433ZM13.4751 10.4503L13.839 10.1938L13.8396 10.1947L13.4751 10.4503ZM13.4003 10.3261L13.7813 10.0958L13.8213 10.1619L13.8366 10.2377L13.4003 10.3261ZM12.5943 8.88589L12.2051 9.10193L12.205 9.10179L12.5943 8.88589ZM12.3569 8.81761L12.1395 8.42913L12.1416 8.42798L12.3569 8.81761ZM12.2574 8.91405L12.6392 9.14296L12.6392 9.14302L12.2574 8.91405ZM12.2528 9.18283L12.6415 8.96582L12.642 8.96681L12.2528 9.18283ZM12.7151 10.0159L12.326 10.232L12.3259 10.2319L12.7151 10.0159ZM12.6927 10.1671L12.3826 9.84771L12.3832 9.84711L12.6927 10.1671ZM12.5408 10.1845L12.3132 10.567L12.3118 10.5662L12.5408 10.1845ZM10.3165 8.8501L10.5453 8.46828L10.5455 8.46836L10.3165 8.8501ZM10.0086 8.90547L10.3746 9.1589L10.3745 9.15903L10.0086 8.90547ZM9.97503 9.08615L9.54316 9.19411L9.54301 9.19347L9.97503 9.08615ZM10.0762 9.22223L9.87706 9.62037L9.86184 9.61275L9.84724 9.604L10.0762 9.22223ZM10.0766 9.22254L10.2757 8.8244L10.291 8.83204L10.3056 8.84081L10.0766 9.22254ZM11.5309 10.095L11.7599 9.71329L11.7601 9.71339L11.5309 10.095ZM11.5739 10.2674L11.9557 10.4963L11.9554 10.4968L11.5739 10.2674ZM11.4016 10.3104L11.6306 9.92865L11.6307 9.92872L11.4016 10.3104ZM9.61612 9.2393L9.84497 8.85748L9.84512 8.85757L9.61612 9.2393ZM9.44858 9.21437L9.5571 9.64609L9.55626 9.6463L9.44858 9.21437ZM9.31242 9.31544L9.69445 9.54395L9.69387 9.54491L9.31242 9.31544ZM9.28725 9.48298L8.85538 9.59095L8.8551 9.58983L9.28725 9.48298ZM9.38832 9.61914L9.15936 10.0009L9.15912 10.0008L9.38832 9.61914ZM9.73576 9.82751L9.96472 9.44575L9.96478 9.44579L9.73576 9.82751ZM11.1737 10.6902L11.4027 10.3085L11.4029 10.3086L11.1737 10.6902ZM11.2167 10.8626L11.5985 11.0915L11.5982 11.092L11.2167 10.8626ZM11.0444 10.9056L10.8157 11.2875L10.8154 11.2873L11.0444 10.9056ZM9.58977 10.0329L9.36075 10.4146L9.36032 10.4144L9.58977 10.0329ZM9.28599 10.1089L9.66761 10.3381L9.6676 10.3381L9.28599 10.1089ZM9.26082 10.2765L8.82895 10.3845L8.82868 10.3833L9.26082 10.2765ZM9.36197 10.4127L9.13297 10.7944L9.1326 10.7942L9.36197 10.4127ZM9.71861 10.6266L9.94762 10.2449L9.94764 10.2449L9.71861 10.6266ZM10.8166 11.2854L11.0456 10.9036L11.0458 10.9037L10.8166 11.2854ZM10.8596 11.4577L11.2414 11.6867L11.2411 11.6871L10.8596 11.4577ZM10.6873 11.5007L10.9163 11.119L10.9168 11.1193L10.6873 11.5007ZM9.5893 10.842L9.81815 10.4601L9.81832 10.4602L9.5893 10.842ZM9.42168 10.817L9.31371 10.3852L9.31372 10.3852L9.42168 10.817ZM9.28552 10.918L8.90365 10.6892L8.9038 10.6889L9.28552 10.918ZM9.26035 11.0856L8.82848 11.1935L8.82824 11.1926L9.26035 11.0856ZM9.3615 11.2217L9.1325 11.6035L9.13213 11.6032L9.3615 11.2217ZM11.5874 12.557L11.8164 12.1753L11.8164 12.1753L11.5874 12.557ZM12.7599 12.7682L12.8489 13.2044L12.8489 13.2044L12.7599 12.7682ZM13.6684 12.1398L13.2866 11.9108L13.2867 11.9107L13.6684 12.1398ZM13.5472 10.5433L13.5031 10.1003L13.7393 10.0768L13.8905 10.2599L13.5472 10.5433ZM14.2657 12.4978C13.9666 12.9966 13.4763 13.3325 12.8994 13.4503L12.7212 12.578C13.0654 12.5077 13.3376 12.3144 13.5021 12.04L14.2657 12.4978ZM12.8992 13.4504C12.3291 13.5666 11.7362 13.458 11.2294 13.1541L11.6872 12.3905C12.0114 12.5849 12.3786 12.6479 12.7214 12.578L12.8992 13.4504ZM11.2293 13.1541L9.00344 11.8188L9.46144 11.0553L11.6873 12.3906L11.2293 13.1541ZM9.00345 11.8188C8.79412 11.6932 8.6444 11.4917 8.58501 11.2544L9.44867 11.0382C9.44988 11.043 9.45156 11.046 9.45305 11.048C9.45455 11.0501 9.457 11.0526 9.46143 11.0553L9.00345 11.8188ZM8.58486 11.2538C8.52589 11.0168 8.56319 10.7689 8.68853 10.5598L9.45212 11.0176C9.44945 11.0221 9.44847 11.0255 9.44809 11.0281C9.4477 11.0307 9.44765 11.0341 9.44882 11.0388L8.58486 11.2538ZM8.68841 10.56C8.77095 10.4222 8.88374 10.3188 9.00484 10.2464L9.46209 11.0103C9.45667 11.0135 9.45378 11.0161 9.45263 11.0172C9.45158 11.0182 9.45174 11.0183 9.45224 11.0174L8.68841 10.56ZM8.99753 11.0058L8.9969 11.0054L9.46877 10.2504L9.4694 10.2508L8.99753 11.0058ZM9.00384 11.0097C8.7946 10.8842 8.64468 10.6826 8.58546 10.445L9.44933 10.2297C9.45046 10.2342 9.45204 10.237 9.45349 10.239C9.45495 10.241 9.45738 10.2435 9.46183 10.2462L9.00384 11.0097ZM8.58559 10.4456C8.52607 10.2081 8.56351 9.95977 8.68892 9.75059L9.45252 10.2084C9.4498 10.2129 9.44884 10.2164 9.44847 10.2189C9.44811 10.2213 9.44805 10.2246 9.44919 10.2291L8.58559 10.4456ZM8.6892 9.75013C8.77138 9.61341 8.88367 9.50746 9.00912 9.43343L9.4616 10.2002C9.45871 10.2019 9.45674 10.2035 9.45545 10.2048C9.45422 10.206 9.45321 10.2072 9.45225 10.2088L8.6892 9.75013ZM8.98306 10.1836C8.80325 10.0599 8.66768 9.87504 8.61188 9.65182L9.47561 9.4359C9.47614 9.438 9.47684 9.43949 9.47799 9.44112C9.47924 9.44289 9.48203 9.44619 9.48765 9.45005L8.98306 10.1836ZM8.61193 9.65202C8.55245 9.41457 8.58981 9.16623 8.7154 8.95701L9.47874 9.41523C9.4761 9.41963 9.47518 9.42298 9.47482 9.42537C9.47447 9.42774 9.47439 9.43104 9.47556 9.4357L8.61193 9.65202ZM8.71521 8.95733C8.84085 8.74763 9.04268 8.59805 9.2797 8.53881L9.49559 9.40254C9.49084 9.40373 9.48788 9.40539 9.4859 9.40686C9.48393 9.40832 9.48147 9.41068 9.47894 9.4149L8.71521 8.95733ZM9.27926 8.53892C9.353 8.5204 9.42819 8.5112 9.50304 8.5112V9.40151C9.50112 9.40151 9.49874 9.40175 9.49603 9.40243L9.27926 8.53892ZM9.5035 8.5112C9.65472 8.51136 9.79893 8.54985 9.92665 8.61667L9.51393 9.40554C9.50969 9.40333 9.50667 9.40235 9.50499 9.40192C9.50336 9.40151 9.50262 9.40151 9.50257 9.40151L9.5035 8.5112ZM9.27563 8.99005C9.2833 8.82815 9.33211 8.65901 9.43629 8.50878L10.1679 9.01614C10.1692 9.01427 10.1656 9.01802 10.1649 9.03217L9.27563 8.99005ZM9.43623 8.50887C9.71819 8.10207 10.2648 8.00702 10.6748 8.253L10.2167 9.01643C10.2037 9.00865 10.191 9.0074 10.181 9.00938C10.1713 9.01132 10.1686 9.01509 10.168 9.01605L9.43623 8.50887ZM10.6747 8.25297L12.4975 9.34633L12.0395 10.1098L10.2168 9.01646L10.6747 8.25297ZM11.8793 9.94415L11.6444 9.52096L12.4228 9.0888L12.6577 9.51199L11.8793 9.94415ZM11.6448 9.52178C11.4767 9.22041 11.4834 8.85106 11.6605 8.55569L12.4241 9.01358C12.4101 9.03693 12.4102 9.06622 12.4223 9.08799L11.6448 9.52178ZM11.6606 8.55549C11.7475 8.41089 11.8708 8.2919 12.0172 8.20979L12.4527 8.98632C12.44 8.99341 12.4303 9.00326 12.4239 9.01378L11.6606 8.55549ZM12.0193 8.20859C12.1525 8.13486 12.2978 8.09957 12.4409 8.09957V8.98988C12.4444 8.98988 12.4481 8.98889 12.4505 8.98752L12.0193 8.20859ZM12.4412 8.09957C12.7454 8.09973 13.0441 8.26022 13.2036 8.54846L12.4247 8.97961C12.4264 8.9828 12.4296 8.98593 12.4328 8.98776C12.4353 8.98921 12.4378 8.98988 12.4407 8.98988L12.4412 8.09957ZM13.2034 8.54802C13.474 9.03558 13.9834 9.95296 14.0188 10.0162L13.2418 10.4509C13.2055 10.3859 12.6949 9.46646 12.4249 8.98005L13.2034 8.54802ZM13.9971 9.98123C14.0033 9.99037 14.0253 10.0219 14.0449 10.0497L13.3166 10.5618C13.2966 10.5334 13.2725 10.4989 13.2636 10.4858L13.9971 9.98123ZM14.0446 10.0492C14.0538 10.0623 14.0658 10.0777 14.0835 10.0991L13.3981 10.6674C13.3739 10.6381 13.3453 10.6025 13.3169 10.5622L14.0446 10.0492ZM14.0842 10.0999C14.6588 10.7965 14.73 11.7241 14.2656 12.498L13.5022 12.0399C13.7717 11.5907 13.7331 11.0734 13.3974 10.6665L14.0842 10.0999ZM13.7403 11.8476L13.7403 11.8476L14.0276 12.6902L14.0275 12.6903L13.7403 11.8476ZM13.2038 10.8268C13.1757 10.7927 13.1427 10.7516 13.1107 10.7058L13.8396 10.1947C13.8522 10.2126 13.8684 10.2333 13.8902 10.2598L13.2038 10.8268ZM13.1113 10.7067C13.0832 10.6669 13.0531 10.6247 13.0331 10.5916C13.0197 10.5695 13.0018 10.5371 12.9867 10.4959C12.972 10.4558 12.9655 10.4215 12.964 10.4144L13.8366 10.2377C13.8378 10.2432 13.8333 10.2187 13.8225 10.1891C13.8113 10.1586 13.799 10.1376 13.7952 10.1313C13.7934 10.1283 13.7927 10.1273 13.7941 10.1295C13.7954 10.1315 13.7978 10.135 13.8018 10.1408C13.8101 10.1528 13.8215 10.169 13.839 10.1938L13.1113 10.7067ZM13.0194 10.5563C12.9343 10.4156 12.7341 10.055 12.2051 9.10193L12.9835 8.66985C13.52 9.63637 13.7075 9.97361 13.7813 10.0958L13.0194 10.5563ZM12.205 9.10179C12.2771 9.23176 12.4412 9.2796 12.5722 9.20724L12.1416 8.42798C12.4416 8.26218 12.8181 8.37153 12.9836 8.66998L12.205 9.10179ZM12.5742 9.20609C12.6004 9.19145 12.6237 9.16893 12.6392 9.14296L11.8756 8.68514C11.94 8.57783 12.0301 8.49034 12.1395 8.42913L12.5742 9.20609ZM12.6392 9.14302C12.6711 9.08988 12.6732 9.02267 12.6415 8.96582L11.8641 9.39984C11.7391 9.1759 11.745 8.90292 11.8757 8.68507L12.6392 9.14302ZM12.642 8.96681L13.1044 9.79988L12.3259 10.2319L11.8636 9.39885L12.642 8.96681ZM13.1043 9.79977C13.2296 10.0254 13.188 10.3073 13.0022 10.4871L12.3832 9.84711C12.2791 9.94784 12.2559 10.1058 12.326 10.232L13.1043 9.79977ZM13.0028 10.4864C12.8156 10.6683 12.5324 10.6974 12.3132 10.567L12.7683 9.80188C12.647 9.72968 12.4884 9.74499 12.3826 9.84772L13.0028 10.4864ZM12.3118 10.5662L10.0875 9.23183L10.5455 8.46836L12.7698 9.80273L12.3118 10.5662ZM10.0876 9.23191C10.131 9.25794 10.1801 9.26553 10.2261 9.25728C10.2721 9.24903 10.3315 9.22114 10.3746 9.1589L9.64265 8.65204C9.85692 8.34261 10.2643 8.29982 10.5453 8.46828L10.0876 9.23191ZM10.3745 9.15903C10.4093 9.10888 10.4227 9.04181 10.4071 8.97883L9.54301 9.19347C9.49621 9.00511 9.53341 8.80966 9.64273 8.65192L10.3745 9.15903ZM10.4069 8.97819C10.3923 8.91988 10.3546 8.87015 10.3051 8.84046L9.84724 9.604C9.69595 9.51327 9.58637 9.36695 9.54317 9.19411L10.4069 8.97819ZM10.2753 8.82409C10.3155 8.8442 10.3451 8.86663 10.3638 8.88247C10.373 8.89026 10.3802 8.89694 10.3845 8.90107C10.3867 8.90317 10.3884 8.90489 10.3895 8.90594C10.39 8.90648 10.3904 8.90691 10.3907 8.90718C10.3909 8.90731 10.391 8.90742 10.391 8.90749C10.3911 8.90752 10.3911 8.90755 10.3911 8.90757C10.3911 8.90758 10.3911 8.90758 10.3911 8.90759C10.3911 8.90759 10.3911 8.90759 10.3911 8.90759C10.3911 8.9076 10.3911 8.9076 10.3911 8.9076C10.3917 8.90816 10.3884 8.90488 10.3846 8.90116C10.3803 8.89706 10.3732 8.89041 10.364 8.88264C10.3454 8.86685 10.3158 8.84448 10.2757 8.8244L9.87746 9.62068C9.83724 9.60057 9.80766 9.57814 9.78893 9.5623C9.77972 9.55451 9.77259 9.54783 9.76829 9.5437C9.7661 9.5416 9.76435 9.53988 9.76329 9.53883C9.76275 9.5383 9.76231 9.53786 9.76205 9.5376C9.76191 9.53746 9.7618 9.53735 9.76173 9.53728C9.7617 9.53725 9.76167 9.53722 9.76165 9.5372C9.76164 9.53719 9.76164 9.53719 9.76163 9.53718C9.76163 9.53718 9.76163 9.53718 9.76163 9.53718C9.76163 9.53718 9.76162 9.53718 9.76162 9.53717C9.76106 9.53661 9.76432 9.53989 9.7682 9.54362C9.77247 9.54771 9.77957 9.55436 9.78875 9.56213C9.80741 9.57792 9.83693 9.60029 9.87706 9.62037L10.2753 8.82409ZM10.3056 8.84081L11.7599 9.71329L11.3019 10.4767L9.84757 9.60427L10.3056 8.84081ZM11.7601 9.71339C12.0303 9.87567 12.1177 10.2261 11.9557 10.4963L11.1922 10.0384C11.1015 10.1895 11.1504 10.3858 11.3017 10.4766L11.7601 9.71339ZM11.9554 10.4968C11.7935 10.766 11.4435 10.8548 11.1725 10.6921L11.6307 9.92872C11.4789 9.83759 11.2829 9.88751 11.1924 10.038L11.9554 10.4968ZM11.1726 10.6921L9.38712 9.62104L9.84512 8.85757L11.6306 9.92865L11.1726 10.6921ZM9.38726 9.62112C9.43727 9.6511 9.49893 9.66071 9.5571 9.64609L9.34006 8.78264C9.51275 8.73923 9.69366 8.76678 9.84497 8.85748L9.38726 9.62112ZM9.55626 9.6463C9.61407 9.63189 9.66432 9.59432 9.69445 9.54395L8.93039 9.08693C9.02139 8.93479 9.16823 8.82548 9.34089 8.78243L9.55626 9.6463ZM9.69387 9.54491C9.72445 9.49409 9.73335 9.43261 9.71939 9.37614L8.8551 9.58983C8.81283 9.41883 8.83935 9.23827 8.93096 9.08598L9.69387 9.54491ZM9.71911 9.37502C9.70461 9.31703 9.66717 9.26734 9.61753 9.23753L9.15912 10.0008C9.00785 9.9099 8.89851 9.76347 8.85538 9.59095L9.71911 9.37502ZM9.61728 9.23738L9.96472 9.44575L9.5068 10.2093L9.15936 10.0009L9.61728 9.23738ZM9.96478 9.44579L11.4027 10.3085L10.9447 11.072L9.50674 10.2092L9.96478 9.44579ZM11.4029 10.3086C11.6731 10.4709 11.7606 10.8213 11.5985 11.0915L10.835 10.6336C10.7443 10.7847 10.7932 10.981 10.9445 11.0719L11.4029 10.3086ZM11.5982 11.092C11.4361 11.3616 11.0861 11.4495 10.8157 11.2875L11.2731 10.5237C11.1219 10.4331 10.926 10.4823 10.8352 10.6332L11.5982 11.092ZM10.8154 11.2873L9.36075 10.4146L9.81879 9.65117L11.2734 10.5239L10.8154 11.2873ZM9.36032 10.4144C9.46721 10.4787 9.60433 10.4434 9.66761 10.3381L8.90438 9.87968C9.0935 9.56478 9.5031 9.46128 9.81922 9.65143L9.36032 10.4144ZM9.6676 10.3381C9.69796 10.2875 9.70695 10.2262 9.69296 10.1696L8.82868 10.3833C8.78638 10.2123 8.81299 10.0318 8.90438 9.87967L9.6676 10.3381ZM9.69269 10.1685C9.6781 10.1102 9.64044 10.0607 9.59135 10.0311L9.1326 10.7942C8.98173 10.7035 8.87218 10.5574 8.82896 10.3845L9.69269 10.1685ZM9.59098 10.0309L9.94762 10.2449L9.48961 11.0083L9.13297 10.7944L9.59098 10.0309ZM9.94764 10.2449L11.0456 10.9036L10.5876 11.6671L9.48959 11.0083L9.94764 10.2449ZM11.0458 10.9037C11.316 11.066 11.4034 11.4165 11.2414 11.6867L10.4779 11.2287C10.3872 11.3799 10.4361 11.5761 10.5874 11.667L11.0458 10.9037ZM11.2411 11.6871C11.0795 11.9559 10.7294 12.0456 10.4578 11.8822L10.9168 11.1193C10.7644 11.0276 10.5683 11.0783 10.4781 11.2283L11.2411 11.6871ZM10.4583 11.8825L9.36027 11.2237L9.81832 10.4602L10.9163 11.119L10.4583 11.8825ZM9.36044 11.2238C9.41058 11.2538 9.47228 11.2632 9.52964 11.2489L9.31372 10.3852C9.48623 10.342 9.66671 10.3694 9.81815 10.4601L9.36044 11.2238ZM9.52964 11.2489C9.58692 11.2346 9.63694 11.1975 9.66724 11.147L8.9038 10.6889C8.99498 10.537 9.1419 10.4281 9.31371 10.3852L9.52964 11.2489ZM9.66739 11.1467C9.69731 11.0968 9.7066 11.0357 9.69246 10.9786L8.82824 11.1926C8.78578 11.0211 8.81285 10.8407 8.90365 10.6892L9.66739 11.1467ZM9.69221 10.9776C9.67762 10.9192 9.63997 10.8697 9.59088 10.8402L9.13213 11.6032C8.98126 11.5125 8.87171 11.3664 8.82848 11.1935L9.69221 10.9776ZM9.5905 10.84L11.8164 12.1753L11.3584 12.9388L9.1325 11.6035L9.5905 10.84ZM11.8164 12.1753C12.0869 12.3376 12.3906 12.3892 12.6709 12.332L12.8489 13.2044C12.3397 13.3083 11.8103 13.2099 11.3584 12.9387L11.8164 12.1753ZM12.6708 12.3321C12.9461 12.2758 13.1592 12.1233 13.2866 11.9108L14.0501 12.3688C13.7871 12.8073 13.3549 13.1011 12.8489 13.2044L12.6708 12.3321ZM13.2867 11.9107C13.5047 11.5475 13.4756 11.1559 13.2039 10.8267L13.8905 10.2599C14.4014 10.8788 14.463 11.6809 14.0501 12.3689L13.2867 11.9107ZM13.5913 10.9863L13.5911 10.9863L13.5029 10.1003L13.5031 10.1003L13.5913 10.9863Z" fill="#4CAF4F" mask="url(#path-4-inside-2_212_1413)"/>
</svg>
