<svg width="22" height="20" viewBox="0 0 22 20" fill="none" xmlns="http://www.w3.org/2000/svg">
<path d="M22.0023 13.1845C22.0023 16.5035 19.3117 19.1941 15.9927 19.1941L6.97833 19.1941C6.05638 19.1941 5.30899 18.4467 5.30899 17.5248L5.30899 6.17329C5.30899 4.3294 6.80376 2.83463 8.64766 2.83463L20.333 2.83463C21.2549 2.83463 22.0023 3.58202 22.0023 4.50396L22.0023 13.1845Z" fill="#E8F5E9"/>
<path d="M9.28749 6.84467C9.18332 6.84467 9.09863 6.76012 9.09863 6.65581V6.33486C9.09863 6.23068 9.18318 6.146 9.28749 6.146C9.39167 6.146 9.47635 6.23055 9.47635 6.33486V6.65581C9.47635 6.76012 9.39167 6.84467 9.28749 6.84467Z" fill="#103E13"/>
<path d="M8.49342 6.84467C8.38925 6.84467 8.30457 6.76012 8.30457 6.65581V6.33486C8.30457 6.23068 8.38912 6.146 8.49342 6.146C8.5976 6.146 8.68228 6.23055 8.68228 6.33486V6.65581C8.68215 6.76012 8.59773 6.84467 8.49342 6.84467Z" fill="#103E13"/>
<path d="M7.69948 6.84467C7.59531 6.84467 7.51062 6.76012 7.51062 6.65581V6.33486C7.51062 6.23068 7.59517 6.146 7.69948 6.146C7.80365 6.146 7.88834 6.23055 7.88834 6.33486V6.65581C7.88834 6.76012 7.80379 6.84467 7.69948 6.84467Z" fill="#103E13"/>
<path d="M9.28749 8.15716C9.18332 8.15716 9.09863 8.07261 9.09863 7.9683V7.64748C9.09863 7.5433 9.18318 7.45862 9.28749 7.45862C9.39167 7.45862 9.47635 7.54317 9.47635 7.64748V7.9683C9.47635 8.07261 9.39167 8.15716 9.28749 8.15716Z" fill="#103E13"/>
<path d="M8.49342 8.15716C8.38925 8.15716 8.30457 8.07261 8.30457 7.9683V7.64748C8.30457 7.5433 8.38912 7.45862 8.49342 7.45862C8.5976 7.45862 8.68228 7.54317 8.68228 7.64748V7.9683C8.68215 8.07261 8.59773 8.15716 8.49342 8.15716Z" fill="#103E13"/>
<path d="M7.69948 8.15716C7.59531 8.15716 7.51062 8.07261 7.51062 7.9683V7.64748C7.51062 7.5433 7.59517 7.45862 7.69948 7.45862C7.80365 7.45862 7.88834 7.54317 7.88834 7.64748V7.9683C7.88834 8.07261 7.80379 8.15716 7.69948 8.15716Z" fill="#103E13"/>
<path d="M9.28749 9.46967C9.18332 9.46967 9.09863 9.38512 9.09863 9.28081V8.95986C9.09863 8.85568 9.18318 8.771 9.28749 8.771C9.39167 8.771 9.47635 8.85555 9.47635 8.95986V9.28081C9.47635 9.38512 9.39167 9.46967 9.28749 9.46967Z" fill="#103E13"/>
<path d="M8.49342 9.46967C8.38925 9.46967 8.30457 9.38512 8.30457 9.28081V8.95986C8.30457 8.85568 8.38912 8.771 8.49342 8.771C8.5976 8.771 8.68228 8.85555 8.68228 8.95986V9.28081C8.68215 9.38512 8.59773 9.46967 8.49342 9.46967Z" fill="#103E13"/>
<path d="M7.69948 9.46967C7.59531 9.46967 7.51062 9.38512 7.51062 9.28081V8.95986C7.51062 8.85568 7.59517 8.771 7.69948 8.771C7.80365 8.771 7.88834 8.85555 7.88834 8.95986V9.28081C7.88834 9.38512 7.80379 9.46967 7.69948 9.46967Z" fill="#103E13"/>
<path d="M9.28749 10.7819C9.18332 10.7819 9.09863 10.6974 9.09863 10.5931V10.2721C9.09863 10.1679 9.18318 10.0833 9.28749 10.0833C9.39167 10.0833 9.47635 10.1678 9.47635 10.2721V10.5931C9.47635 10.6974 9.39167 10.7819 9.28749 10.7819Z" fill="#103E13"/>
<path d="M8.49342 10.7819C8.38925 10.7819 8.30457 10.6974 8.30457 10.5931V10.2721C8.30457 10.1679 8.38912 10.0833 8.49342 10.0833C8.5976 10.0833 8.68228 10.1678 8.68228 10.2721V10.5931C8.68215 10.6974 8.59773 10.7819 8.49342 10.7819Z" fill="#103E13"/>
<path d="M7.69948 10.7819C7.59531 10.7819 7.51062 10.6974 7.51062 10.5931V10.2721C7.51062 10.1679 7.59517 10.0833 7.69948 10.0833C7.80365 10.0833 7.88834 10.1678 7.88834 10.2721V10.5931C7.88834 10.6974 7.80379 10.7819 7.69948 10.7819Z" fill="#103E13"/>
<path d="M9.28749 12.0944C9.18332 12.0944 9.09863 12.0099 9.09863 11.9056V11.5847C9.09863 11.4806 9.18318 11.3959 9.28749 11.3959C9.39167 11.3959 9.47635 11.4804 9.47635 11.5847V11.9056C9.47635 12.0097 9.39167 12.0944 9.28749 12.0944Z" fill="#103E13"/>
<path d="M8.49342 12.0944C8.38925 12.0944 8.30457 12.0099 8.30457 11.9056V11.5847C8.30457 11.4806 8.38912 11.3959 8.49342 11.3959C8.5976 11.3959 8.68228 11.4804 8.68228 11.5847V11.9056C8.68215 12.0097 8.59773 12.0944 8.49342 12.0944Z" fill="#103E13"/>
<path d="M7.69948 12.0944C7.59531 12.0944 7.51062 12.0099 7.51062 11.9056L7.51075 11.5847C7.51075 11.4806 7.5953 11.3959 7.69961 11.3959C7.80379 11.3959 7.88847 11.4804 7.88847 11.5847V11.9056C7.88834 12.0097 7.80379 12.0944 7.69948 12.0944Z" fill="#103E13"/>
<path d="M2.30436 13.4005C2.30436 13.5047 2.38891 13.5894 2.49322 13.5894H13.9942C14.0983 13.5894 14.183 13.5048 14.183 13.4005C14.183 13.2963 14.0985 13.2116 13.9942 13.2116H13.645V7.78922C13.645 7.68505 13.5605 7.60036 13.4562 7.60036L10.3727 7.60049V3.69121C10.3727 3.6251 10.3382 3.56399 10.2818 3.52974C10.2256 3.49537 10.1553 3.49326 10.0968 3.52368L6.59107 5.34893C6.52851 5.38146 6.48953 5.44599 6.48953 5.51645V8.93113H3.09676C2.99258 8.93113 2.9079 9.01569 2.9079 9.11999V13.2117H2.4928C2.38862 13.2115 2.3042 13.2961 2.3042 13.4004L2.30436 13.4005ZM10.3728 10.4608H13.2675V13.2118L10.3728 13.2117V10.4608ZM10.3728 9.14844H13.2675V10.0833L10.3728 10.0831V9.14844ZM10.3728 7.97801H13.2675V8.771H10.3728V7.97801ZM6.86705 5.63113L9.99491 4.00251V13.2115H6.86705V5.63113ZM4.21922 11.7032C4.21922 11.3113 4.52976 10.9923 4.91156 10.9923C5.29335 10.9923 5.60404 11.3112 5.60404 11.7032V13.2117H4.21922V11.7032ZM3.28561 9.30879H6.48947V13.2117H5.98175V11.7032C5.98175 11.103 5.50185 10.6147 4.91156 10.6147C4.32154 10.6147 3.84164 11.1029 3.84164 11.7032V13.2117H3.28561V9.30879Z" fill="#103E13"/>
</svg>
