<svg width="17" height="17" viewBox="0 0 17 17" fill="none" xmlns="http://www.w3.org/2000/svg">
<path d="M10.1475 8.3917C10.0671 8.3917 9.99247 8.36959 9.92616 8.33404V8.33499C9.92616 8.46147 9.877 8.58025 9.7878 8.66921C9.6986 8.75841 9.57991 8.80757 9.45358 8.80757C9.37201 8.80757 9.29642 8.78492 9.2294 8.74842C9.22263 8.86413 9.17638 8.97228 9.09387 9.05488C9.00467 9.14408 8.88598 9.19324 8.75956 9.19324C8.5084 9.19324 8.30444 8.99581 8.28974 8.74834C8.21202 8.79034 8.12416 8.81237 8.03354 8.80655C7.78646 8.79034 7.59297 8.57687 7.59297 8.32043V6.19482L7.35093 6.61414C7.25875 6.77453 7.08618 6.87411 6.90038 6.87411C6.80984 6.87411 6.72041 6.85035 6.6412 6.80497C6.54256 6.74778 6.47201 6.65599 6.44267 6.54617C6.41317 6.43629 6.42843 6.32137 6.48546 6.22288C6.48554 6.22288 7.27739 4.85162 7.32569 4.76739C7.33144 4.75473 7.3478 4.718 7.36172 4.68669C7.37501 4.6568 7.38642 4.62612 7.39735 4.59529C7.63615 3.92112 8.22744 3.50234 8.94055 3.50234C9.86659 3.50234 10.62 4.31928 10.62 5.32344L10.6201 7.91904C10.6201 8.04537 10.571 8.16406 10.4819 8.25335C10.3927 8.34255 10.274 8.39171 10.1475 8.39171L10.1475 8.3917ZM8.94056 3.75345C8.32781 3.75345 7.83942 4.09956 7.63404 4.67927C7.62091 4.71608 7.60722 4.75289 7.59125 4.78876C7.54492 4.89267 7.54492 4.89267 7.53187 4.90761L7.53014 4.90612C7.46548 5.02812 7.2734 5.36076 6.70289 6.34856C6.67945 6.38907 6.67323 6.43611 6.68519 6.4811C6.6973 6.52609 6.72633 6.564 6.76652 6.58721C6.89128 6.65886 7.06213 6.61261 7.13323 6.48873L7.60982 5.66359C7.6383 5.61443 7.69587 5.59028 7.75109 5.60523C7.80599 5.61994 7.84414 5.66973 7.84414 5.72652V8.32051C7.84414 8.4429 7.93649 8.54853 8.05 8.556C8.11544 8.55946 8.17648 8.53752 8.22234 8.49174C8.26403 8.45005 8.287 8.39452 8.287 8.33513V6.63863C8.287 6.56925 8.34324 6.51301 8.41261 6.51301C8.48199 6.51301 8.53823 6.56917 8.53823 6.63863L8.53815 8.72074C8.53815 8.84282 8.6375 8.94217 8.75957 8.94217C8.81888 8.94217 8.87457 8.9192 8.91634 8.87751C8.95803 8.83574 8.981 8.78005 8.981 8.72074V6.63863C8.981 6.56925 9.03716 6.51301 9.10661 6.51301C9.17599 6.51301 9.23223 6.56917 9.23223 6.63863L9.23215 8.31562V8.33512C9.23215 8.45712 9.3315 8.55646 9.45365 8.55646C9.51288 8.55646 9.56842 8.53342 9.61042 8.49157C9.65211 8.44996 9.67508 8.39443 9.67508 8.33504V6.63854C9.67508 6.56916 9.73124 6.51292 9.8007 6.51292C9.87007 6.51292 9.92631 6.56908 9.92631 6.63854L9.92616 7.9191C9.92616 8.04126 10.0255 8.1406 10.1475 8.1406C10.2069 8.1406 10.2624 8.11756 10.3041 8.07595C10.3459 8.0341 10.3688 7.97841 10.3688 7.9191L10.3689 5.3235C10.3689 4.45788 9.72817 3.75348 8.94055 3.75348L8.94056 3.75345Z" fill="#103E13"/>
<path d="M5.21209 10.1957L7.0349 9.10216C7.25467 8.97017 7.53745 9.02626 7.67841 9.2299C7.72985 9.30408 7.75612 9.39052 7.76021 9.47855C7.82817 9.44307 7.90211 9.4238 7.97738 9.4238C8.01593 9.4238 8.05463 9.4286 8.09285 9.43812C8.21532 9.46871 8.31852 9.54525 8.38342 9.65348C8.4484 9.76187 8.46735 9.88889 8.43675 10.0112C8.40852 10.1244 8.33969 10.2197 8.24396 10.285C8.3109 10.3245 8.36864 10.3784 8.4097 10.447C8.47467 10.5554 8.49363 10.6824 8.4631 10.8048C8.43251 10.9271 8.35597 11.0303 8.24758 11.0954L8.24695 11.0958C8.31271 11.1352 8.36942 11.1885 8.41001 11.2561C8.47506 11.3645 8.49402 11.4915 8.46342 11.614C8.43275 11.7364 8.35621 11.8396 8.24798 11.9045L6.02229 13.2398C5.6069 13.4889 5.12668 13.5749 4.67031 13.4817C4.20985 13.3876 3.8285 13.1229 3.59663 12.7364C3.22968 12.1248 3.28467 11.4022 3.73987 10.8508C3.76071 10.8256 3.78124 10.8 3.79988 10.7734C3.81963 10.7453 3.84267 10.7122 3.85054 10.7009C3.89765 10.6168 4.66647 9.23158 4.66639 9.23174C4.74403 9.09165 4.88954 9.01235 5.03962 9.01243C5.10963 9.01243 5.18065 9.02966 5.24618 9.066C5.32531 9.1102 5.39178 9.17462 5.43826 9.25226C5.53383 9.41154 5.53722 9.61087 5.44723 9.77218L5.21209 10.1957ZM5.22302 9.38139C5.19864 9.34073 5.16513 9.30832 5.12415 9.28535C5.03943 9.23847 4.93277 9.26899 4.88613 9.35339C4.336 10.3445 4.14847 10.6822 4.0761 10.8024L4.07775 10.8028C4.0717 10.823 4.0717 10.823 4.00547 10.9176C3.98297 10.9496 3.95851 10.9804 3.93357 11.0106C3.54216 11.4849 3.49671 12.0817 3.81189 12.6072C4.00712 12.9327 4.32978 13.1558 4.72047 13.2356C5.11541 13.3159 5.53167 13.2412 5.89296 13.0244L8.11885 11.6891C8.16966 11.6586 8.20553 11.6103 8.21984 11.5529C8.23416 11.4957 8.22527 11.4361 8.19475 11.3853C8.13198 11.2807 7.99567 11.2463 7.89105 11.3093L6.79299 11.9681C6.73352 12.0038 6.65628 11.9846 6.62065 11.9251C6.58494 11.8656 6.60421 11.7884 6.66367 11.7527L7.76182 11.094L8.11846 10.88C8.16927 10.8495 8.20522 10.8011 8.21953 10.7439C8.23385 10.6866 8.22496 10.627 8.19444 10.5762C8.13159 10.4715 7.99528 10.4375 7.89074 10.5002L6.43596 11.373C6.37634 11.4088 6.29933 11.3894 6.26362 11.3299C6.22791 11.2705 6.24726 11.1933 6.30664 11.1576L8.09211 10.0865C8.14292 10.056 8.17879 10.0077 8.1931 9.95036C8.20742 9.89309 8.19853 9.83355 8.16809 9.78274C8.13765 9.732 8.08927 9.69613 8.03193 9.68182C7.97428 9.6675 7.91497 9.67639 7.86431 9.70675L7.53379 9.90505C7.53371 9.90505 7.53371 9.90513 7.53364 9.90513H7.53356L6.07885 10.7778C6.01923 10.8137 5.94215 10.7944 5.90651 10.7348C5.8708 10.6754 5.89015 10.5982 5.94954 10.5625L7.40432 9.68977C7.45513 9.65925 7.49108 9.61087 7.5054 9.55369C7.52113 9.49092 7.50917 9.42673 7.47189 9.37293C7.40723 9.27941 7.26895 9.25455 7.1641 9.31755L4.93982 10.6519C4.89113 10.681 4.82876 10.6739 4.78793 10.6345C4.74703 10.5951 4.73783 10.533 4.76536 10.4834L5.22787 9.65005C5.27428 9.56675 5.27247 9.46386 5.223 9.38142L5.22302 9.38139Z" fill="#103E13"/>
<path d="M13.9224 12.7363C13.6906 13.1229 13.3093 13.3875 12.8488 13.4816C12.3923 13.5747 11.9123 13.4888 11.4968 13.2397L9.27089 11.9044C9.16258 11.8395 9.08597 11.7363 9.05529 11.6137C9.02485 11.4914 9.04389 11.3643 9.10878 11.2561C9.14929 11.1885 9.20608 11.1351 9.27192 11.0957L9.27129 11.0953C9.16297 11.0304 9.08636 10.9272 9.05585 10.8048C9.02517 10.6824 9.0442 10.5553 9.10918 10.4469C9.15102 10.3773 9.20836 10.3228 9.27381 10.2842C9.17879 10.2189 9.11036 10.1239 9.0822 10.0113C9.05152 9.8888 9.07056 9.76176 9.13553 9.65352C9.20042 9.54521 9.3037 9.46868 9.4261 9.43808C9.46432 9.42849 9.5031 9.42377 9.54149 9.42377C9.61684 9.42384 9.69078 9.44296 9.75874 9.47851C9.76291 9.39049 9.7891 9.30405 9.84055 9.22987C9.98158 9.02639 10.2641 8.97007 10.4842 9.10213L12.307 10.1955L12.072 9.77229C11.9819 9.61073 11.9852 9.4114 12.0807 9.25204C12.1273 9.17448 12.1939 9.11006 12.2734 9.06546C12.3387 9.02928 12.4095 9.01214 12.4794 9.01214C12.6294 9.01221 12.7751 9.09134 12.8526 9.23144C13.1229 9.71842 13.6329 10.6368 13.6688 10.7009C13.6764 10.712 13.6994 10.7451 13.7192 10.7732C13.738 10.7998 13.7583 10.8253 13.7793 10.8506C14.2344 11.4023 14.2893 12.1248 13.9224 12.7363L13.9224 12.7363ZM13.5855 11.0107C13.5605 10.9804 13.5359 10.9495 13.5136 10.9177C13.4456 10.8212 13.4439 10.8187 13.4388 10.7935C13.3593 10.662 13.1655 10.3131 12.6328 9.35329C12.5861 9.26905 12.4799 9.2383 12.3953 9.28502C12.3537 9.3083 12.3203 9.34079 12.2959 9.38145C12.2465 9.46381 12.2446 9.56669 12.2912 9.65024L12.7536 10.4833C12.7812 10.533 12.772 10.595 12.7312 10.6345C12.6904 10.674 12.6281 10.681 12.5792 10.6519L10.3549 9.3175C10.2501 9.25465 10.1119 9.27928 10.0471 9.37288C10.0098 9.42668 9.99791 9.49087 10.0135 9.55356C10.0278 9.61082 10.0637 9.65912 10.1146 9.68964C10.1148 9.68971 10.1149 9.68987 10.115 9.68995L11.5693 10.5624C11.6288 10.5981 11.6481 10.6752 11.6124 10.7348C11.5767 10.7942 11.4997 10.8136 11.44 10.7778L9.65457 9.70671C9.60391 9.67635 9.54429 9.66738 9.48703 9.68178C9.42961 9.69609 9.38131 9.73196 9.35087 9.78285C9.32035 9.83358 9.31154 9.89313 9.3257 9.95039C9.34002 10.0077 9.37596 10.056 9.42677 10.0865L9.77421 10.2949L11.2122 11.1577C11.2716 11.1934 11.2909 11.2704 11.2552 11.33C11.2195 11.3894 11.1425 11.4087 11.0828 11.373L9.62822 10.5003C9.52361 10.4374 9.38737 10.4715 9.32444 10.5763C9.29392 10.6271 9.28511 10.6866 9.29927 10.7439C9.31359 10.8012 9.34954 10.8495 9.40043 10.8801L9.75706 11.094L10.855 11.7528C10.9145 11.7885 10.9338 11.8656 10.8981 11.9251C10.8624 11.9845 10.7854 12.004 10.7257 11.9681L9.62775 11.3094C9.57709 11.279 9.51771 11.27 9.46013 11.2844C9.40286 11.2988 9.35441 11.3346 9.32397 11.3854C9.29353 11.4362 9.28464 11.4958 9.2988 11.553C9.31312 11.6102 9.34906 11.6585 9.39996 11.6891L11.6258 13.0244C11.9871 13.2411 12.4036 13.3162 12.7983 13.2356C13.1889 13.1559 13.5116 12.9327 13.7068 12.6072C14.0223 12.0816 13.9769 11.4848 13.5856 11.0107L13.5855 11.0107Z" fill="#103E13"/>
</svg>
