<svg width="23" height="20" viewBox="0 0 23 20" fill="none" xmlns="http://www.w3.org/2000/svg">
<path d="M22.6082 13.1845C22.6082 16.5035 19.9176 19.1941 16.5986 19.1941L7.58416 19.1941C6.66221 19.1941 5.91483 18.4467 5.91483 17.5248L5.91483 6.17329C5.91483 4.3294 7.4096 2.83463 9.25349 2.83463L20.9388 2.83463C21.8608 2.83463 22.6082 3.58202 22.6082 4.50396L22.6082 13.1845Z" fill="#E8F5E9"/>
<path d="M8.91631 3.83618C7.724 3.83618 6.75334 4.81571 6.75334 6.01311C6.75334 6.77059 7.14231 7.43942 7.72968 7.82928C7.02026 8.06648 6.40641 8.50982 5.95618 9.0898C5.70726 8.89833 5.42912 8.74435 5.12928 8.63401C5.58397 8.29646 5.88109 7.75422 5.88109 7.14479C5.88109 6.12925 5.05975 5.29791 4.05037 5.29791C3.04099 5.29791 2.21965 6.12925 2.21965 7.14479C2.21965 7.75457 2.51702 8.29706 2.97209 8.63461C1.7673 9.07919 0.90686 10.2432 0.90686 11.613V12.5753C0.906984 12.6486 0.936326 12.7189 0.988353 12.7706C1.04038 12.8224 1.11078 12.8512 1.18414 12.851H5.40587C5.4161 12.8521 5.42633 12.8527 5.43656 12.8526H12.3963C12.4065 12.8527 12.4169 12.8521 12.427 12.851H16.649C16.8008 12.8503 16.9237 12.7272 16.9241 12.5753V11.613C16.9241 10.2432 16.0651 9.07919 14.861 8.63449C15.316 8.29706 15.6134 7.75444 15.6134 7.14467C15.6134 6.12913 14.7921 5.29779 13.7827 5.29779C12.7734 5.29779 11.952 6.12913 11.952 7.14467C11.952 7.7541 12.2492 8.29643 12.7039 8.63389C12.4035 8.74448 12.1252 8.89896 11.8759 9.0909C11.4259 8.51057 10.8129 8.06662 10.1035 7.82928C10.6907 7.43942 11.0799 6.77059 11.0799 6.01311C11.0799 4.81571 10.1087 3.83618 8.91638 3.83618H8.91631ZM8.91631 4.38852C9.80806 4.38852 10.527 5.11223 10.527 6.01311C10.527 6.90694 9.81927 7.62362 8.9374 7.63511C8.93037 7.63511 8.92346 7.63412 8.91631 7.63412C8.90916 7.63412 8.90238 7.63511 8.89523 7.63511C8.01336 7.62376 7.30615 6.90697 7.30615 6.01311C7.30615 5.11211 8.02444 4.38852 8.91619 4.38852H8.91631ZM4.0504 5.85021C4.75796 5.85021 5.32879 6.42448 5.32879 7.14476C5.32879 7.86021 4.76534 8.43202 4.06445 8.43978C4.05976 8.43978 4.0552 8.43929 4.05039 8.43929C4.04571 8.43929 4.04115 8.43978 4.03634 8.43978C3.33544 8.43201 2.772 7.86008 2.772 7.14476C2.772 6.42452 3.34283 5.85021 4.05038 5.85021H4.0504ZM13.7825 5.85021C14.4901 5.85021 15.0609 6.42448 15.0609 7.14476C15.0609 7.86021 14.4975 8.43202 13.7966 8.43978C13.7919 8.43978 13.7873 8.43929 13.7825 8.43929C13.7778 8.43929 13.7733 8.43978 13.7685 8.43978C13.0676 8.43201 12.5041 7.86008 12.5041 7.14476C12.5041 6.42452 13.075 5.85021 13.7825 5.85021H13.7825ZM8.89516 8.18741C8.90219 8.18753 8.9091 8.1884 8.91625 8.1884C8.92328 8.1884 8.93018 8.18741 8.93733 8.18741C10.7059 8.19875 12.1213 9.62632 12.1213 11.4134L12.1212 12.3001H5.71157V11.4134C5.71157 9.62616 7.12656 8.19877 8.89491 8.18741H8.89516ZM4.02926 8.99275C4.03628 8.99287 4.04319 8.99373 4.05034 8.99373C4.05749 8.99373 4.06427 8.99275 4.07142 8.99275C4.66961 8.99755 5.21554 9.20382 5.65024 9.5489C5.33919 10.0993 5.1593 10.7346 5.1593 11.4135V12.2981H1.45897V11.613C1.45897 10.1606 2.60088 9.00408 4.02919 8.99262L4.02926 8.99275ZM13.7614 8.99275C13.7685 8.99287 13.7753 8.99373 13.7825 8.99373C13.7896 8.99373 13.7964 8.99275 13.8036 8.99275C15.2319 9.00409 16.3738 10.1608 16.3738 11.6131V12.2981H12.6716L12.6714 11.4135C12.6714 10.7349 12.492 10.1001 12.1816 9.54988C12.6164 9.20431 13.1627 8.99754 13.7614 8.99275H13.7614Z" fill="#103E13"/>
</svg>
