<svg width="17" height="17" viewBox="0 0 17 17" fill="none" xmlns="http://www.w3.org/2000/svg">
<path d="M13.8595 14.4071V13.0717C13.8595 12.3633 13.5781 11.6839 13.0772 11.183C12.5763 10.6821 11.897 10.4007 11.1886 10.4007H10.5208C10.3438 10.4007 10.1739 10.3304 10.0487 10.2052C9.92346 10.0799 9.85311 9.9101 9.85311 9.733V6.39434C9.85311 6.04015 9.71241 5.70047 9.46196 5.45002C9.21151 5.19957 8.87183 5.05887 8.51765 5.05887C8.16346 5.05887 7.82378 5.19957 7.57333 5.45002C7.32288 5.70047 7.18218 6.04015 7.18218 6.39434V12.4039L5.57962 10.2672C5.45523 10.1013 5.29392 9.96671 5.10849 9.87399C4.92305 9.78127 4.71857 9.733 4.51125 9.733H4.22145C3.64386 9.733 3.17578 10.2011 3.17578 10.7787C3.17578 10.9683 3.2272 11.1546 3.32469 11.3169L5.17898 14.4071M8.51765 3.05567V2.38794V3.05567ZM12.524 7.06207H13.1918H12.524ZM3.84351 7.06207H4.51125H3.84351ZM5.40801 3.95244L4.93593 3.48035L5.40801 3.95244ZM11.6273 3.95244L12.0994 3.48035L11.6273 3.95244Z" fill="#4CAF4F"/>
<path d="M13.8595 14.4071V13.0717C13.8595 12.3633 13.5781 11.6839 13.0772 11.183C12.5763 10.6821 11.897 10.4007 11.1886 10.4007H10.5208C10.3438 10.4007 10.1739 10.3304 10.0487 10.2052C9.92346 10.0799 9.85311 9.9101 9.85311 9.733V6.39434C9.85311 6.04015 9.71241 5.70047 9.46196 5.45002C9.21151 5.19957 8.87183 5.05887 8.51765 5.05887V5.05887C8.16346 5.05887 7.82378 5.19957 7.57333 5.45002C7.32288 5.70047 7.18218 6.04015 7.18218 6.39434V12.4039L5.57962 10.2672C5.45523 10.1013 5.29392 9.96671 5.10849 9.87399C4.92305 9.78127 4.71857 9.733 4.51125 9.733H4.22145C3.64386 9.733 3.17578 10.2011 3.17578 10.7787C3.17578 10.9683 3.2272 11.1546 3.32469 11.3169L5.17898 14.4071M8.51765 3.05567V2.38794M12.524 7.06207H13.1918M3.84351 7.06207H4.51125M5.40801 3.95244L4.93593 3.48035M11.6273 3.95244L12.0994 3.48035" stroke="#4CAF4F" stroke-width="0.667733" stroke-linecap="round" stroke-linejoin="round"/>
</svg>
