<svg width="17" height="12" viewBox="0 0 17 12" fill="none" xmlns="http://www.w3.org/2000/svg">
<path d="M11.1149 0.951782H11.1158C11.9038 0.949494 12.6736 1.18955 13.3199 1.64026C13.9662 2.09097 14.458 2.7302 14.7281 3.47034C14.9983 4.21059 15.0338 5.01685 14.8297 5.77795C14.6256 6.53892 14.1917 7.21854 13.5875 7.72424L13.3834 7.89514L13.6256 8.00452C14.6182 8.45369 15.4723 9.16037 16.0992 10.0514L16.1002 10.0524C16.1448 10.1147 16.1769 10.1857 16.194 10.2604C16.211 10.335 16.2129 10.4125 16.1998 10.4879C16.1867 10.5632 16.1589 10.6354 16.1178 10.6998C16.0766 10.7644 16.0225 10.8202 15.9596 10.8639L15.9576 10.8649C15.8602 10.9345 15.7434 10.9716 15.6237 10.9713L15.5533 10.9674C15.4841 10.9587 15.4164 10.9373 15.3541 10.9049C15.2713 10.8618 15.2002 10.7994 15.1461 10.7233C14.6909 10.0774 14.0866 9.55032 13.3854 9.18616C12.7719 8.8676 12.0995 8.68135 11.4117 8.63928L11.1158 8.63049L11.0006 8.61877C10.8886 8.5963 10.7848 8.54149 10.7028 8.45959C10.5933 8.35009 10.531 8.20136 10.5309 8.04651C10.5309 7.89155 10.5932 7.74299 10.7028 7.63342C10.8123 7.52387 10.9609 7.46155 11.1158 7.46155C11.8241 7.46146 12.5037 7.18014 13.0045 6.67932C13.5052 6.17846 13.7867 5.49886 13.7867 4.79065C13.7866 4.0824 13.5053 3.40279 13.0045 2.90198C12.5037 2.40117 11.8241 2.11984 11.1158 2.11975C10.8716 2.11929 10.6281 2.15334 10.3932 2.22034L10.3912 2.22131C10.3172 2.24332 10.2395 2.25002 10.1627 2.24182C10.0857 2.23357 10.0109 2.20986 9.94299 2.17249C9.87514 2.13511 9.81537 2.08472 9.76721 2.02405C9.71906 1.96337 9.6837 1.89354 9.66272 1.81897C9.64177 1.74443 9.6357 1.66632 9.64514 1.58948C9.65461 1.51279 9.67912 1.43883 9.71741 1.3717C9.75584 1.30441 9.80733 1.2451 9.86877 1.19788C9.9301 1.15075 10.0001 1.11615 10.0748 1.09631L10.0778 1.09534C10.4149 0.999348 10.7643 0.951232 11.1149 0.951782ZM6.01331 0.946899C6.80068 0.946899 7.56931 1.18892 8.21448 1.64026C8.85972 2.09176 9.35091 2.73145 9.62073 3.47131C9.8904 4.21106 9.92634 5.01624 9.72327 5.77698C9.52011 6.5377 9.08752 7.21736 8.48499 7.72424L8.28284 7.89514L8.52405 8.00452C9.39264 8.39763 10.1555 8.9877 10.7526 9.7262L10.9977 10.0514L11.0026 10.0582C11.0513 10.1206 11.0869 10.1926 11.1071 10.2692C11.1272 10.3456 11.1313 10.4254 11.1198 10.5035C11.1081 10.5818 11.0812 10.6569 11.0397 10.7242C10.9982 10.7916 10.9432 10.8496 10.8785 10.8951C10.8138 10.9407 10.7402 10.9725 10.6627 10.9889C10.5855 11.0052 10.5058 11.0062 10.4283 10.9908C10.3507 10.9754 10.2768 10.9438 10.2115 10.899C10.179 10.8767 10.149 10.8512 10.1217 10.8229L10.0485 10.7301L10.0436 10.7233C9.5893 10.0764 8.9862 9.54779 8.28479 9.18323C7.5833 8.81865 6.80388 8.62854 6.01331 8.62854C5.22295 8.62859 4.44412 8.81879 3.7428 9.18323C3.04129 9.54784 2.43733 10.0762 1.98303 10.7233V10.7242C1.92964 10.8009 1.85789 10.8637 1.77502 10.9069C1.69224 10.9499 1.59976 10.9716 1.50647 10.9713H1.50549C1.38576 10.9716 1.26892 10.9345 1.17151 10.8649H1.17053C1.04414 10.7756 0.958721 10.6394 0.932251 10.4869C0.905848 10.3346 0.941034 10.1779 1.02991 10.0514C1.65683 9.16039 2.51098 8.45369 3.50354 8.00452L3.74475 7.89514L3.54163 7.72424C2.93925 7.21741 2.50745 6.53755 2.30432 5.77698C2.10124 5.01619 2.13714 4.21109 2.40686 3.47131C2.67667 2.73147 3.16691 2.09176 3.81213 1.64026C4.4573 1.18881 5.22589 0.94696 6.01331 0.946899ZM6.53479 2.17151C6.01673 2.06846 5.47984 2.12174 4.99182 2.32385C4.50377 2.52601 4.08609 2.86802 3.7926 3.30725C3.49926 3.74634 3.34248 4.26259 3.34241 4.79065C3.34241 5.49887 3.62394 6.17846 4.12463 6.67932C4.62546 7.18015 5.30504 7.46147 6.01331 7.46155C6.54157 7.46155 7.05845 7.30484 7.49768 7.01135C7.93674 6.71789 8.27897 6.30102 8.48108 5.81311C8.6832 5.32514 8.73642 4.78818 8.63342 4.27014C8.53036 3.75203 8.27551 3.27551 7.90198 2.90198C7.52852 2.52865 7.0527 2.27455 6.53479 2.17151Z" fill="#4CAF4F" stroke="#4CAF4F" stroke-width="0.333867"/>
</svg>
