<svg width="14" height="15" viewBox="0 0 14 15" fill="none" xmlns="http://www.w3.org/2000/svg">
<g clip-path="url(#clip0_212_1587)">
<path fill-rule="evenodd" clip-rule="evenodd" d="M3.51713 0.958862C5.36101 0.958862 6.8558 2.45363 6.8558 4.29753V0.958862H10.1945C12.0383 0.958862 13.5331 2.45363 13.5331 4.29753C13.5331 6.14141 12.0383 7.63619 10.1945 7.63619C12.0383 7.63619 13.5331 9.13098 13.5331 10.9749C13.5331 11.8904 13.1646 12.7199 12.5678 13.3231L12.5553 13.3357L12.5442 13.3467C11.9409 13.9444 11.1108 14.3135 10.1945 14.3135C9.28438 14.3135 8.45932 13.9494 7.85706 13.3588C7.84925 13.3512 7.84144 13.3434 7.83366 13.3357C7.82635 13.3284 7.81907 13.321 7.81182 13.3136C7.22051 12.7113 6.8558 11.8856 6.8558 10.9749C6.8558 12.8187 5.36101 14.3135 3.51713 14.3135C1.67324 14.3135 0.178467 12.8187 0.178467 10.9749V7.63619H3.51713C1.67324 7.63619 0.178467 6.14141 0.178467 4.29753C0.178467 2.45363 1.67324 0.958862 3.51713 0.958862ZM6.18806 4.29753C6.18806 5.77265 4.99225 6.96846 3.51713 6.96846V1.6266C4.99225 1.6266 6.18806 2.82241 6.18806 4.29753ZM12.8654 10.9749C12.8654 9.49974 11.6696 8.30393 10.1945 8.30393C8.71934 8.30393 7.52353 9.49974 7.52353 10.9749H12.8654ZM0.8462 8.30393V10.9749C0.8462 12.45 2.04202 13.6458 3.51713 13.6458C4.99225 13.6458 6.18806 12.45 6.18806 10.9749V8.30393H0.8462ZM7.52353 6.96846V1.6266H10.1945C11.6696 1.6266 12.8654 2.82241 12.8654 4.29753C12.8654 5.77265 11.6696 6.96846 10.1945 6.96846H7.52353Z" fill="#5417D7"/>
</g>
<defs>
<clipPath id="clip0_212_1587">
<rect width="13.3547" height="13.3547" fill="white" transform="translate(0.178467 0.958862)"/>
</clipPath>
</defs>
</svg>
