<svg width="148" height="146" viewBox="0 0 148 146" fill="none" xmlns="http://www.w3.org/2000/svg">
<path d="M125.835 145.398C125.835 145.447 101.875 145.488 72.327 145.488C42.7795 145.488 18.8082 145.447 18.8082 145.398C18.8082 145.35 42.7657 145.309 72.327 145.309C101.888 145.309 125.835 145.353 125.835 145.398Z" fill="#263238"/>
<path d="M102.489 103.156C97.1576 99.433 95.9499 92.5214 96.1604 86.3069C96.1949 85.2717 96.081 84.1744 96.5744 83.2669C97.0679 82.3594 98.2204 81.7348 99.1486 82.1696C99.9181 82.5319 100.253 83.4291 100.684 84.171C101.26 85.1591 102.103 85.9642 103.117 86.4932C103.776 86.8383 104.594 87.0453 105.246 86.6864C106.143 86.193 106.246 84.9611 106.24 83.926C106.24 82.0005 106.228 80.0774 106.205 78.1566C106.143 77.1251 106.248 76.0904 106.516 75.0924C106.837 74.1125 107.551 73.205 108.527 72.9289C109.504 72.6529 110.722 73.2222 110.943 74.2298C110.981 74.6565 110.991 75.0853 110.974 75.5134C111.001 75.9447 111.202 76.4175 111.605 76.5486C112.009 76.6797 112.43 76.3795 112.741 76.0758C113.803 75.0407 114.528 73.6915 115.201 72.3596C115.874 71.0276 116.533 69.6577 117.499 68.5225C118.465 67.3872 119.8 66.4866 121.295 66.4004C122.789 66.3141 124.345 67.232 124.718 68.6812C125.09 70.1305 124.245 71.6108 123.337 72.7874C121.968 74.534 120.354 76.0739 118.544 77.3595C118.191 77.5523 117.909 77.8535 117.74 78.2187C117.516 78.9088 118.168 79.5989 118.848 79.8163C119.618 80.0716 120.453 79.9923 121.263 80.0889C122.074 80.1855 122.937 80.5375 123.244 81.2966C123.665 82.3525 122.782 83.4567 121.916 84.1813C120.177 85.6306 118.202 86.7708 116.077 87.5525C115.318 87.8286 114.521 88.0736 113.907 88.605C113.293 89.1364 112.927 90.0646 113.296 90.7927C113.665 91.5207 114.614 91.7519 115.411 91.6036C116.208 91.4552 116.916 91.0273 117.675 90.7409C119.093 90.2061 120.922 90.3027 121.816 91.5276C122.092 91.9496 122.268 92.43 122.328 92.9312C122.387 93.4323 122.33 93.9405 122.161 94.4158C121.815 95.3617 121.284 96.2288 120.598 96.9658C118.338 99.666 115.401 101.718 112.088 102.911C108.8 104.05 105.753 104.36 102.485 103.163" fill="#4CAF4F"/>
<path d="M123.199 67.2527C123.199 67.2527 123.168 67.2872 123.099 67.3493L122.792 67.6219C122.523 67.8634 122.126 68.2154 121.626 68.6812C120.207 69.9984 118.89 71.4206 117.685 72.9358C116.916 73.8916 116.119 74.9751 115.27 76.1518C114.421 77.3284 113.544 78.5983 112.675 79.9474C111.748 81.3702 110.899 82.8423 110.132 84.3573C109.731 85.1475 109.38 85.9722 109.017 86.8141L107.948 89.3848C106.538 92.6229 105.309 95.9372 104.269 99.3122C103.431 102.074 102.854 104.907 102.544 107.777C102.343 109.713 102.311 111.663 102.447 113.605C102.502 114.295 102.554 114.823 102.603 115.182C102.623 115.354 102.637 115.492 102.651 115.592V115.734C102.636 115.689 102.626 115.642 102.62 115.596C102.603 115.496 102.582 115.361 102.554 115.188C102.492 114.843 102.427 114.298 102.364 113.608C102.198 111.663 102.21 109.706 102.399 107.763C102.689 104.881 103.254 102.034 104.086 99.2604C105.118 95.8759 106.343 92.5533 107.754 89.3089L108.852 86.7486C109.214 85.9101 109.569 85.0785 109.973 84.2848C110.745 82.7653 111.601 81.2896 112.537 79.8646C113.42 78.4844 114.31 77.2353 115.149 76.069C115.987 74.9027 116.798 73.8123 117.564 72.8599C118.781 71.3487 120.116 69.9364 121.557 68.6364C122.067 68.1774 122.475 67.8324 122.751 67.6012L123.071 67.3424C123.111 67.3081 123.154 67.2781 123.199 67.2527Z" fill="#263238"/>
<path d="M110.018 84.278C109.969 84.1358 109.936 83.9889 109.918 83.8398C109.863 83.5534 109.8 83.1496 109.728 82.6251C109.58 81.59 109.428 80.1718 109.266 78.6017C109.103 77.0317 108.921 75.6101 108.769 74.5852C108.689 74.0746 108.62 73.6639 108.572 73.3775C108.534 73.2309 108.515 73.0803 108.513 72.929C108.573 73.0672 108.616 73.212 108.641 73.3603C108.717 73.6432 108.803 74.0504 108.9 74.5645C109.097 75.5997 109.29 77.0076 109.452 78.581C109.614 80.1545 109.752 81.5347 109.859 82.6079C109.911 83.091 109.956 83.5016 109.99 83.8294C110.017 83.9773 110.026 84.1279 110.018 84.278Z" fill="#263238"/>
<path d="M123.296 81.8005C123.128 81.837 122.957 81.8578 122.785 81.8626C122.44 81.8936 121.95 81.935 121.343 82.0041C120.128 82.1352 118.458 82.3767 116.626 82.7218C114.793 83.0668 113.148 83.4568 111.964 83.757C111.374 83.9088 110.898 84.0468 110.584 84.14C110.416 84.1995 110.243 84.2412 110.066 84.2642C110.226 84.184 110.392 84.1182 110.563 84.0675C110.887 83.9536 111.357 83.7949 111.943 83.6258C113.12 83.2808 114.766 82.8702 116.605 82.5182C118.163 82.2203 119.735 82.0015 121.315 81.8626C121.926 81.8108 122.419 81.7901 122.764 81.7832C122.942 81.7712 123.12 81.7769 123.296 81.8005Z" fill="#263238"/>
<path d="M104.255 99.0189C104.219 98.9689 104.188 98.9144 104.166 98.8567L103.938 98.377C103.741 97.9595 103.476 97.3419 103.158 96.5862C102.516 95.0679 101.699 92.9424 100.829 90.5821C99.9594 88.2219 99.1589 86.0964 98.5516 84.5609C98.2548 83.8155 98.0098 83.2048 97.8269 82.7493L97.6337 82.2559C97.6069 82.199 97.5883 82.1385 97.5785 82.0764C97.6153 82.1264 97.6454 82.1809 97.6682 82.2386L97.8959 82.7182C98.0892 83.1358 98.3583 83.7534 98.6758 84.5091C99.3176 86.0274 100.135 88.1529 101.005 90.5131C101.874 92.8733 102.675 94.9989 103.282 96.5344C103.579 97.2798 103.824 97.8905 104.004 98.346C104.083 98.5427 104.148 98.6911 104.2 98.8394C104.227 98.8963 104.246 98.9567 104.255 99.0189Z" fill="#263238"/>
<path d="M121.881 93.3358C121.826 93.3675 121.767 93.3919 121.705 93.4083L121.194 93.5808L119.307 94.1916C117.713 94.7092 115.511 95.4476 113.096 96.2619C110.68 97.0763 108.469 97.8009 106.864 98.284C106.064 98.529 105.411 98.7153 104.959 98.8395L104.438 98.9741C104.378 98.9933 104.315 99.0061 104.252 99.0121C104.307 98.9803 104.366 98.956 104.428 98.9396L104.939 98.7671L106.826 98.1563C108.42 97.6387 110.622 96.9003 113.037 96.0859C115.453 95.2716 117.661 94.547 119.266 94.0639C120.069 93.8189 120.718 93.6326 121.174 93.5083L121.695 93.3738C121.755 93.3545 121.818 93.3418 121.881 93.3358Z" fill="#263238"/>
<path d="M114.69 9.63449L112.913 10.2694L112.15 7.94715C110.749 3.66496 106.284 1.39101 102.182 2.83681C98.0789 4.28261 95.8946 8.97888 97.2956 13.2611L98.0582 15.5833L96.2742 16.2217C95.5939 16.4855 95.0415 17.0014 94.7318 17.662C94.422 18.3226 94.3788 19.0772 94.611 19.7689L99.5557 34.8791C99.6584 35.2215 99.8288 35.5398 100.057 35.815C100.285 36.0903 100.566 36.3169 100.883 36.4813C101.201 36.6458 101.548 36.7448 101.904 36.7725C102.261 36.8001 102.619 36.7559 102.958 36.6423L121.374 30.0551C122.063 29.7917 122.623 29.2713 122.937 28.6033C123.25 27.9353 123.292 27.1718 123.054 26.4734L118.106 11.3632C118.001 11.0218 117.828 10.705 117.597 10.4319C117.367 10.1588 117.084 9.93488 116.765 9.77354C116.446 9.61219 116.098 9.51673 115.742 9.49284C115.385 9.46895 115.028 9.51713 114.69 9.63449ZM100.653 12.0499C100.275 10.9365 100.343 9.72006 100.842 8.65551C101.341 7.59096 102.233 6.76087 103.331 6.33917C103.873 6.15375 104.446 6.07939 105.018 6.12054C105.589 6.16168 106.146 6.31749 106.656 6.57867C107.166 6.83984 107.618 7.20103 107.985 7.64068C108.352 8.08032 108.627 8.58943 108.793 9.13761L109.552 11.4599L101.412 14.3722L100.653 12.0499ZM111.005 25.4589L112.268 29.3167C112.291 29.3941 112.283 29.4774 112.247 29.5493C112.21 29.6213 112.147 29.6764 112.071 29.7032L110.301 30.3346C110.23 30.3542 110.155 30.3457 110.091 30.3109C110.027 30.2762 109.978 30.2179 109.956 30.1483L108.683 26.3078C107.98 26.2695 107.307 26.0177 106.752 25.586C106.197 25.1544 105.787 24.5634 105.577 23.8924C105.277 23.0052 105.332 22.0363 105.73 21.1886C106.128 20.3409 106.839 19.6801 107.713 19.3445C108.145 19.197 108.602 19.1379 109.057 19.1708C109.512 19.2036 109.955 19.3278 110.362 19.5358C110.768 19.7438 111.128 20.0314 111.42 20.3815C111.713 20.7316 111.932 21.137 112.064 21.5736C112.286 22.2552 112.305 22.9869 112.117 23.6788C111.929 24.3708 111.544 24.993 111.008 25.4693L111.005 25.4589Z" fill="#4CAF4F"/>
<path d="M112.834 10.228C112.834 10.2763 109.538 11.5151 105.439 12.9885C101.34 14.4619 97.9961 15.6455 97.9788 15.611C97.9616 15.5765 101.274 14.3273 105.377 12.8505C109.48 11.3736 112.816 10.1832 112.834 10.228Z" fill="#263238"/>
<path d="M116.747 10.8629C116.762 10.8929 116.775 10.924 116.785 10.9561C116.812 11.0251 116.843 11.1148 116.885 11.2252C116.974 11.4771 117.099 11.8256 117.254 12.2604L118.579 16.1182C119.131 17.7538 119.79 19.693 120.522 21.8462C120.867 22.9262 121.274 24.0511 121.653 25.2347C121.857 25.8446 121.944 26.487 121.912 27.129C121.883 27.4629 121.788 27.7878 121.633 28.0849C121.467 28.3809 121.245 28.6422 120.98 28.8543C120.447 29.2435 119.856 29.5452 119.228 29.748L117.451 30.3864L114.086 31.5907L108.389 33.6196L104.542 34.9722L103.507 35.3173L103.231 35.407C103.201 35.4202 103.17 35.4283 103.137 35.4312C103.137 35.4312 103.165 35.4312 103.224 35.3898L103.493 35.2828L104.528 34.8929L108.355 33.485L114.041 31.4147L117.399 30.2001L119.176 29.5583C119.786 29.3636 120.361 29.0711 120.877 28.6922C121.123 28.4953 121.33 28.2528 121.484 27.9779C121.63 27.7031 121.719 27.4013 121.743 27.0911C121.775 26.4725 121.691 25.8533 121.495 25.2657C121.122 24.0925 120.729 22.9573 120.373 21.8772C119.655 19.7206 118.993 17.7745 118.468 16.1389C117.944 14.5033 117.502 13.1886 117.199 12.2639C117.054 11.8118 116.943 11.4599 116.854 11.2045L116.771 10.9285C116.76 10.9076 116.752 10.8856 116.747 10.8629Z" fill="#263238"/>
<path d="M107.03 6.10459C107.03 6.10459 106.847 6.01487 106.509 5.87685C106.027 5.69165 105.517 5.58899 105.001 5.5732C104.236 5.54696 103.474 5.69074 102.772 5.99417C101.917 6.372 101.186 6.98313 100.663 7.75743C100.137 8.52951 99.8543 9.44192 99.8524 10.3764C99.8596 11.1424 99.9758 11.9034 100.197 12.6366C100.377 13.2646 100.563 13.7649 100.687 14.1134C100.761 14.2905 100.821 14.4727 100.867 14.6586C100.769 14.4931 100.687 14.3187 100.622 14.1376C100.48 13.7925 100.277 13.3025 100.077 12.6711C99.831 11.9302 99.6973 11.1568 99.6799 10.3764C99.6707 9.40661 99.9598 8.4574 100.508 7.65736C101.049 6.85479 101.81 6.22475 102.699 5.84234C103.424 5.53725 104.209 5.40267 104.994 5.44898C105.521 5.47585 106.039 5.59863 106.522 5.81129C106.652 5.8709 106.776 5.94011 106.895 6.01832C106.944 6.03989 106.99 6.06899 107.03 6.10459Z" fill="#263238"/>
<path d="M107.188 19.6067C107.244 19.5733 107.301 19.5445 107.361 19.5204C107.534 19.4425 107.713 19.379 107.896 19.3306C108.187 19.2448 108.487 19.1938 108.79 19.1788C109.201 19.1567 109.614 19.2189 110.001 19.3617C110.884 19.6722 111.695 20.5728 112.095 21.7771C112.287 22.4234 112.287 23.1115 112.095 23.7578C111.882 24.4592 111.501 25.0978 110.984 25.6176L111.005 25.5245C111.464 26.7839 111.964 28.1504 112.482 29.5755L112.513 29.6617L112.426 29.6928L111.636 29.955L109.911 30.5313L109.825 30.5589L109.797 30.4726C109.324 29.0441 108.807 27.7121 108.417 26.4044L108.493 26.463C107.818 26.407 107.175 26.1538 106.643 25.7349C106.162 25.3644 105.768 24.8934 105.487 24.3547C105.234 23.877 105.108 23.3423 105.122 22.8019C105.138 22.2496 105.275 21.7077 105.525 21.215C105.775 20.7222 106.131 20.2909 106.567 19.9517C106.747 19.806 106.948 19.6895 107.164 19.6067C106.969 19.7223 106.78 19.8479 106.598 19.9828C106.119 20.3882 105.752 20.9098 105.532 21.4976C105.343 21.9409 105.255 22.4205 105.274 22.9019C105.292 23.3834 105.417 23.8547 105.639 24.2822C105.915 24.8004 106.3 25.2526 106.767 25.6073C107.275 26.0054 107.888 26.2454 108.531 26.2974H108.589L108.607 26.3492C108.986 27.6328 109.507 28.9751 109.987 30.4105L109.873 30.3553L111.598 29.779L112.385 29.5133L112.33 29.6307C111.816 28.2056 111.319 26.8357 110.863 25.5762V25.5245L110.905 25.483C111.406 24.9847 111.78 24.3728 111.995 23.6991C112.178 23.0809 112.178 22.4229 111.995 21.8047C111.619 20.6453 110.843 19.7654 110.001 19.4549C109.628 19.3111 109.23 19.2442 108.831 19.2582C108.533 19.265 108.237 19.3055 107.948 19.3789C107.433 19.5066 107.192 19.6239 107.188 19.6067Z" fill="#263238"/>
<path d="M96.5226 119.239L62.0546 119.081C60.0641 119.07 58.1593 118.269 56.7586 116.855C55.3579 115.441 54.5758 113.528 54.584 111.538L54.9498 25.1312C54.9539 24.145 55.1523 23.1693 55.5336 22.2599C55.915 21.3504 56.4718 20.5251 57.1724 19.831C57.8729 19.1368 58.7034 18.5876 59.6163 18.2146C60.5292 17.8416 61.5067 17.6522 62.4928 17.6572L96.9574 17.8159C98.9479 17.826 100.853 18.6256 102.254 20.0393C103.656 21.4529 104.439 23.365 104.431 25.3555L104.066 111.758C104.062 112.745 103.863 113.721 103.482 114.631C103.101 115.541 102.544 116.367 101.843 117.061C101.143 117.756 100.313 118.306 99.3997 118.679C98.4868 119.053 97.5091 119.243 96.5226 119.239Z" fill="#455A64"/>
<path d="M96.9057 20.7868H90.2253C90.0073 20.7909 89.7923 20.8378 89.5925 20.925C89.3926 21.0122 89.2119 21.1378 89.0607 21.2948C88.9095 21.4519 88.7906 21.6371 88.711 21.8401C88.6314 22.043 88.5925 22.2597 88.5966 22.4776V23.6888C88.6007 23.9066 88.5618 24.1231 88.4822 24.3258C88.4025 24.5286 88.2836 24.7136 88.1323 24.8704C87.981 25.0271 87.8003 25.1524 87.6005 25.2392C87.4007 25.326 87.1858 25.3726 86.9679 25.3761L73.9454 25.3175C73.5048 25.3057 73.087 25.1196 72.7835 24.8C72.4801 24.4804 72.3159 24.0534 72.3271 23.6129V22.4017C72.3382 21.9617 72.1745 21.5353 71.8718 21.2158C71.5691 20.8963 71.1521 20.7098 70.7122 20.6971H68.3623L62.5135 20.6695C61.1224 20.6612 59.7847 21.2045 58.7932 22.1805C57.8018 23.1564 57.2374 24.4854 57.2238 25.8765L56.8787 110.216C56.8755 110.906 57.0083 111.59 57.2695 112.229C57.5307 112.868 57.9151 113.449 58.4009 113.939C58.8866 114.429 59.4642 114.819 60.1006 115.086C60.7369 115.353 61.4197 115.492 62.1098 115.495L96.5054 115.654C97.196 115.657 97.8804 115.524 98.5197 115.263C99.1589 115.002 99.7404 114.617 100.231 114.131C100.722 113.645 101.112 113.067 101.379 112.43C101.646 111.793 101.785 111.11 101.788 110.42L102.133 26.0801C102.142 24.685 101.596 23.3438 100.615 22.3512C99.635 21.3587 98.3007 20.796 96.9057 20.7868Z" fill="white"/>
<path d="M92.2784 104.402L66.7025 104.291C66.4368 104.291 66.2229 104.002 66.2264 103.65L66.254 96.9588C66.254 96.6138 66.4714 96.317 66.7371 96.317L92.3129 96.4343C92.4601 96.4598 92.5918 96.5411 92.6806 96.6613C92.7693 96.7816 92.8082 96.9314 92.7891 97.0796L92.7649 103.763C92.7649 104.119 92.5441 104.405 92.2784 104.402Z" fill="#4CAF4F"/>
<path d="M74.4786 100.321C74.3374 100.321 74.2017 100.299 74.0714 100.253C73.9429 100.206 73.8433 100.147 73.7727 100.074L73.8515 99.9194C73.9184 99.9846 74.008 100.04 74.1202 100.085C74.2342 100.128 74.3537 100.15 74.4786 100.15C74.598 100.15 74.6949 100.136 74.7691 100.107C74.8451 100.076 74.9003 100.035 74.9347 99.9846C74.9709 99.9339 74.989 99.8778 74.989 99.8163C74.989 99.7421 74.9672 99.6823 74.9238 99.6371C74.8822 99.5919 74.827 99.5566 74.7582 99.5312C74.6894 99.5041 74.6134 99.4805 74.5302 99.4606C74.4469 99.4407 74.3636 99.4199 74.2804 99.3982C74.1971 99.3747 74.1202 99.3439 74.0496 99.3059C73.9809 99.2679 73.9248 99.2181 73.8813 99.1566C73.8397 99.0932 73.8189 99.0109 73.8189 98.9095C73.8189 98.8154 73.8433 98.7295 73.8922 98.6516C73.9429 98.572 74.0198 98.5087 74.1229 98.4616C74.2261 98.4127 74.3582 98.3883 74.5193 98.3883C74.6261 98.3883 74.732 98.4037 74.8369 98.4345C74.9419 98.4634 75.0324 98.5041 75.1084 98.5566L75.0405 98.7168C74.9591 98.6625 74.8722 98.6227 74.7799 98.5973C74.6894 98.572 74.6016 98.5593 74.5166 98.5593C74.4026 98.5593 74.3084 98.5747 74.2342 98.6055C74.16 98.6363 74.1048 98.6779 74.0686 98.7304C74.0343 98.781 74.0171 98.839 74.0171 98.9041C74.0171 98.9783 74.0379 99.038 74.0795 99.0833C74.1229 99.1285 74.179 99.1638 74.2478 99.1892C74.3184 99.2145 74.3953 99.2371 74.4786 99.257C74.5618 99.2769 74.6442 99.2987 74.7256 99.3222C74.8089 99.3457 74.8849 99.3765 74.9537 99.4145C75.0242 99.4507 75.0803 99.4996 75.122 99.5611C75.1654 99.6226 75.1871 99.7032 75.1871 99.8027C75.1871 99.895 75.1618 99.981 75.1111 100.061C75.0604 100.138 74.9826 100.202 74.8776 100.251C74.7745 100.298 74.6415 100.321 74.4786 100.321ZM75.6248 100.305V98.4046H75.8257V100.305H75.6248ZM76.444 100.305V98.4046H76.6096L77.9209 100.055H77.834V98.4046H78.0322V100.305H77.8666L76.5581 98.6544H76.6449V100.305H76.444ZM79.4859 100.321C79.3411 100.321 79.2072 100.298 79.0841 100.251C78.9628 100.202 78.857 100.134 78.7665 100.047C78.6778 99.9602 78.6081 99.8579 78.5574 99.7403C78.5086 99.6226 78.4841 99.4941 78.4841 99.3548C78.4841 99.2154 78.5086 99.0869 78.5574 98.9693C78.6081 98.8516 78.6787 98.7494 78.7692 98.6625C78.8597 98.5756 78.9655 98.5087 79.0868 98.4616C79.2099 98.4127 79.3438 98.3883 79.4886 98.3883C79.6334 98.3883 79.7655 98.4109 79.8849 98.4562C80.0062 98.5014 80.1094 98.5702 80.1944 98.6625L80.0695 98.7901C79.9899 98.7105 79.9021 98.6534 79.8062 98.6191C79.7103 98.5847 79.6071 98.5675 79.4967 98.5675C79.3791 98.5675 79.2705 98.5874 79.171 98.6272C79.0732 98.6652 78.9873 98.7204 78.9131 98.7928C78.8407 98.8634 78.7837 98.9466 78.742 99.0426C78.7022 99.1367 78.6823 99.2407 78.6823 99.3548C78.6823 99.467 78.7022 99.571 78.742 99.667C78.7837 99.7629 78.8407 99.847 78.9131 99.9194C78.9873 99.99 79.0732 100.045 79.171 100.085C79.2705 100.123 79.3782 100.142 79.494 100.142C79.6026 100.142 79.7049 100.126 79.8008 100.093C79.8985 100.061 79.9881 100.005 80.0695 99.9276L80.1836 100.08C80.0931 100.159 79.9872 100.22 79.8659 100.261C79.7447 100.301 79.618 100.321 79.4859 100.321ZM79.9908 100.055V99.3548H80.1836V100.08L79.9908 100.055ZM82.2282 100.321C81.9857 100.321 81.7948 100.252 81.6554 100.112C81.516 99.9728 81.4464 99.7665 81.4464 99.4932V98.4046H81.6472V99.4851C81.6472 99.7095 81.6979 99.8751 81.7993 99.9819C81.9006 100.089 82.0436 100.142 82.2282 100.142C82.4146 100.142 82.5585 100.089 82.6599 99.9819C82.7612 99.8751 82.8119 99.7095 82.8119 99.4851V98.4046H83.0073V99.4932C83.0073 99.7665 82.9377 99.9728 82.7983 100.112C82.6608 100.252 82.4707 100.321 82.2282 100.321ZM83.6127 100.305V98.4046H84.324C84.4851 98.4046 84.6235 98.4308 84.7393 98.4833C84.8552 98.534 84.9439 98.6082 85.0054 98.7059C85.0687 98.8019 85.1004 98.9186 85.1004 99.0561C85.1004 99.1901 85.0687 99.3059 85.0054 99.4036C84.9439 99.4996 84.8552 99.5738 84.7393 99.6262C84.6235 99.6787 84.4851 99.705 84.324 99.705H83.724L83.8136 99.61V100.305H83.6127ZM83.8136 99.6262L83.724 99.5285H84.3186C84.5086 99.5285 84.6525 99.4878 84.7502 99.4063C84.8497 99.3231 84.8995 99.2064 84.8995 99.0561C84.8995 98.9041 84.8497 98.7865 84.7502 98.7032C84.6525 98.62 84.5086 98.5783 84.3186 98.5783H83.724L83.8136 98.4833V99.6262Z" fill="#E8E8E3"/>
<path d="M71.8039 45.5795L62.9291 45.5392L62.9217 47.1679L71.7965 47.2081L71.8039 45.5795Z" fill="#4CAF4F"/>
<path opacity="0.1" d="M71.8039 45.5795L62.9291 45.5392L62.9217 47.1679L71.7965 47.2081L71.8039 45.5795Z" fill="black"/>
<path d="M97.82 55.5793C97.8897 55.5722 97.9581 55.556 98.0236 55.531C98.1191 55.4936 98.2021 55.4301 98.2631 55.3477C98.3242 55.2653 98.3607 55.1674 98.3686 55.0651C98.3686 54.5165 98.3686 53.7159 98.3686 52.6877C98.3686 52.1735 98.3686 51.5973 98.3686 50.9624C98.3686 50.8071 98.3686 50.6449 98.3686 50.4827C98.3911 50.3254 98.3569 50.1651 98.272 50.0307C98.2245 49.9663 98.1627 49.9137 98.0914 49.8772C98.0202 49.8407 97.9414 49.8212 97.8614 49.8202H97.3231H92.337L63.4762 49.7133C63.4023 49.712 63.3292 49.7286 63.2631 49.7616C63.197 49.7947 63.1399 49.8432 63.0966 49.903C63.0133 50.038 62.9814 50.1985 63.0069 50.3551C63.0069 50.7001 63.0069 51.0452 63.0069 51.3902C63.0069 52.0804 63.0069 52.7705 63.0069 53.4606C63.0069 53.8057 63.0069 54.1507 63.0069 54.4958C62.9926 54.6565 62.9926 54.8182 63.0069 54.9789C63.025 55.0478 63.0587 55.1116 63.1054 55.1654C63.152 55.2193 63.2104 55.2617 63.276 55.2894C63.344 55.3165 63.4168 55.3294 63.49 55.3274H65.2463L72.9101 55.3688L85.8844 55.4481L94.6316 55.5172L97.0091 55.5448H97.6267C97.7682 55.5448 97.8372 55.5448 97.8372 55.5448H97.6267H97.0091H94.6316H85.8844L72.9101 55.5034L65.2463 55.4723H63.49C63.3933 55.4762 63.2969 55.4598 63.207 55.424C63.1162 55.3852 63.0354 55.3262 62.9708 55.2515C62.9062 55.1767 62.8595 55.0882 62.8344 54.9927C62.8144 54.9021 62.8074 54.8092 62.8137 54.7166V54.4613C62.8137 54.1162 62.8137 53.7712 62.8137 53.4261C62.8137 52.736 62.8137 52.0459 62.8137 51.3557C62.8137 51.0107 62.8137 50.6656 62.8137 50.3206C62.8071 50.2287 62.8071 50.1364 62.8137 50.0445C62.8266 49.943 62.8658 49.8466 62.9275 49.765C62.987 49.6817 63.0658 49.6141 63.1572 49.5678C63.2485 49.5215 63.3496 49.498 63.452 49.4993L92.3128 49.658L97.2989 49.6925H97.8372C97.9321 49.6926 98.0255 49.7156 98.1096 49.7594C98.1937 49.8033 98.266 49.8667 98.3203 49.9444C98.4176 50.0945 98.4569 50.2748 98.4307 50.4517C98.4307 50.6139 98.4307 50.776 98.4307 50.9313C98.4307 51.5593 98.4307 52.1356 98.4307 52.6566C98.4307 53.6918 98.4066 54.4854 98.3997 55.0375C98.3912 55.1437 98.3527 55.2452 98.2885 55.3302C98.2243 55.4152 98.1372 55.48 98.0374 55.5172C97.9721 55.5576 97.8968 55.5791 97.82 55.5793Z" fill="#E0E0E0"/>
<path d="M81.8265 51.4454H65.5948V52.9672H81.8265V51.4454Z" fill="#4CAF4F"/>
<path opacity="0.2" d="M81.8265 51.4454H65.5948V52.9672H81.8265V51.4454Z" fill="white"/>
<path d="M71.7434 60.4374L62.8685 60.3971L62.8611 62.0258L71.736 62.066L71.7434 60.4374Z" fill="#4CAF4F"/>
<path opacity="0.1" d="M71.7434 60.4374L62.8685 60.3971L62.8611 62.0258L71.736 62.066L71.7434 60.4374Z" fill="black"/>
<path d="M97.5957 70.4375C97.6654 70.4289 97.7346 70.4163 97.8028 70.3995C97.8991 70.3689 97.9878 70.3179 98.0628 70.25C98.1378 70.1822 98.1974 70.099 98.2375 70.0062C98.2919 69.8669 98.3131 69.7169 98.2997 69.568C98.2997 69.4023 98.2997 69.2229 98.2997 69.0228C98.2997 68.6225 98.2997 68.167 98.2997 67.6425V65.4514C98.3161 65.2928 98.281 65.133 98.1996 64.9959C98.1145 64.8553 97.9806 64.7509 97.8235 64.7026C97.6516 64.6719 97.4766 64.6627 97.3024 64.675H92.337L63.5763 64.568C63.4216 64.5684 63.2723 64.6249 63.1561 64.7271C63.04 64.8293 62.9649 64.9702 62.9448 65.1236C62.9448 65.4514 62.9448 65.8137 62.9448 66.1588C62.9448 66.8489 62.9448 67.539 62.9448 68.2291C62.9448 68.5742 62.9448 68.9192 62.9448 69.2643C62.932 69.4256 62.9389 69.5878 62.9655 69.7474C63.0086 69.8873 63.0973 70.0088 63.2174 70.0924C63.3449 70.1733 63.4946 70.212 63.6453 70.2029H64.1249H65.1221L72.7583 70.2408L85.6877 70.3202L94.4039 70.3892L96.7745 70.4168H94.4039H85.6877L72.7514 70.403L65.1152 70.3754H63.6142C63.4276 70.3865 63.2424 70.3368 63.0863 70.2339C62.9293 70.1252 62.8147 69.9655 62.7619 69.7819C62.731 69.6066 62.7217 69.4281 62.7343 69.2505C62.7343 68.9054 62.7343 68.5604 62.7343 68.2153C62.7343 67.5252 62.7343 66.8351 62.7343 66.145C62.7343 65.7999 62.7343 65.4548 62.7343 65.1098C62.7595 64.9125 62.8557 64.7311 63.005 64.5996C63.1542 64.4682 63.3463 64.3956 63.5452 64.3955L92.306 64.5542L97.2714 64.5922C97.4563 64.5808 97.6419 64.5936 97.8235 64.6301C98.0028 64.6887 98.154 64.8117 98.2479 64.9752C98.3372 65.1272 98.3758 65.3036 98.3583 65.479C98.3583 65.6412 98.3583 65.7999 98.3583 65.9586C98.3583 66.5832 98.3583 67.156 98.3583 67.6839C98.3583 68.2119 98.3583 68.657 98.3583 69.0642C98.3583 69.2609 98.3583 69.4437 98.3583 69.6128C98.3709 69.7671 98.346 69.9222 98.2859 70.0648C98.2411 70.1601 98.1763 70.2445 98.0959 70.3124C98.0155 70.3803 97.9214 70.43 97.82 70.4582C97.7446 70.4644 97.6687 70.4574 97.5957 70.4375Z" fill="#E0E0E0"/>
<path d="M71.6765 75.9404L62.8016 75.9001L62.7942 77.5288L71.6691 77.5691L71.6765 75.9404Z" fill="#4CAF4F"/>
<path opacity="0.1" d="M71.6765 75.9404L62.8016 75.9001L62.7942 77.5288L71.6691 77.5691L71.6765 75.9404Z" fill="black"/>
<path d="M97.5267 85.9341C97.5965 85.9259 97.6656 85.9132 97.7337 85.8962C97.8297 85.8657 97.9181 85.8152 97.993 85.7479C98.068 85.6807 98.1278 85.5983 98.1685 85.5063C98.2226 85.3669 98.2439 85.217 98.2306 85.068C98.2306 84.899 98.2306 84.723 98.2306 84.5194C98.2306 84.1226 98.2306 83.6637 98.2306 83.1392V80.948C98.2471 80.7894 98.212 80.6297 98.1306 80.4926C98.0434 80.3545 97.9102 80.2518 97.7544 80.2027C97.5827 80.1708 97.4077 80.1604 97.2334 80.1716H92.268L63.5073 80.0647C63.3526 80.065 63.2032 80.1216 63.0871 80.2238C62.9709 80.3259 62.8959 80.4668 62.8758 80.6202C62.8758 80.9653 62.8758 81.3103 62.8758 81.6554C62.8758 82.3455 62.8758 83.0356 62.8758 83.7258C62.8758 84.0708 62.8758 84.4159 62.8758 84.7609C62.8629 84.9211 62.8699 85.0822 62.8965 85.2406C62.9378 85.3814 63.0269 85.5034 63.1484 85.5856C63.2751 85.6683 63.4254 85.7071 63.5763 85.696H65.0773L72.7135 85.7375L85.6428 85.8168L94.3591 85.8858L96.7296 85.9134H94.3591H85.6428L72.7135 85.8755L65.0773 85.8444H63.5763C63.3895 85.857 63.2038 85.8073 63.0483 85.703C62.8913 85.5942 62.7767 85.4345 62.724 85.2509C62.693 85.0756 62.6838 84.8971 62.6964 84.7195C62.6964 84.3745 62.6964 84.0294 62.6964 83.6844C62.6964 82.9942 62.6964 82.3041 62.6964 81.614C62.6964 81.2689 62.6964 80.9239 62.6964 80.5616C62.7208 80.3645 62.8163 80.1832 62.965 80.0517C63.1137 79.9202 63.3053 79.8475 63.5038 79.8473L92.2645 80.006L97.23 80.044C97.4149 80.0326 97.6005 80.0454 97.7821 80.0819C97.9613 80.1405 98.1125 80.2634 98.2065 80.427C98.2957 80.579 98.3344 80.7554 98.3169 80.9308C98.3169 81.093 98.3169 81.2551 98.3169 81.4104C98.3169 82.035 98.3169 82.6078 98.3169 83.1357C98.3169 83.6637 98.3169 84.1088 98.3169 84.516C98.3169 84.7126 98.3169 84.8955 98.3169 85.0646C98.3301 85.2189 98.3053 85.3742 98.2444 85.5166C98.1996 85.6118 98.1348 85.6963 98.0545 85.7641C97.9741 85.832 97.88 85.8818 97.7786 85.91C97.6977 85.9377 97.6114 85.946 97.5267 85.9341Z" fill="#E0E0E0"/>
<path d="M81.48 66.7339L65.2485 66.6603L65.2416 68.182L81.4731 68.2556L81.48 66.7339Z" fill="#4CAF4F"/>
<path opacity="0.2" d="M81.48 66.7339L65.2485 66.6603L65.2416 68.182L81.4731 68.2556L81.48 66.7339Z" fill="white"/>
<path d="M66.7164 83.1186C66.7062 83.2574 66.6555 83.3901 66.5706 83.5004C66.4856 83.6106 66.3702 83.6935 66.2386 83.7387C66.107 83.784 65.965 83.7896 65.8302 83.7549C65.6954 83.7202 65.5738 83.6467 65.4804 83.5435C65.387 83.4403 65.326 83.312 65.3049 83.1744C65.2837 83.0369 65.3035 82.8961 65.3616 82.7697C65.4197 82.6432 65.5137 82.5366 65.6318 82.4631C65.75 82.3895 65.8871 82.3523 66.0263 82.356C66.2185 82.3667 66.3988 82.4527 66.528 82.5955C66.6571 82.7383 66.7248 82.9262 66.7164 83.1186Z" fill="#4CAF4F"/>
<path d="M68.9143 83.1289C68.9211 83.2261 68.9078 83.3238 68.8752 83.4157C68.8427 83.5076 68.7915 83.5918 68.725 83.6632C68.6585 83.7345 68.5781 83.7913 68.4886 83.8302C68.3992 83.8691 68.3027 83.8892 68.2052 83.8892C68.1077 83.8892 68.0112 83.8691 67.9218 83.8302C67.8324 83.7913 67.7519 83.7345 67.6854 83.6632C67.6189 83.5918 67.5677 83.5076 67.5352 83.4157C67.5026 83.3238 67.4893 83.2261 67.4961 83.1289C67.4893 83.0316 67.5026 82.9339 67.5352 82.842C67.5677 82.7501 67.6189 82.6659 67.6854 82.5945C67.7519 82.5232 67.8324 82.4664 67.9218 82.4275C68.0112 82.3886 68.1077 82.3685 68.2052 82.3685C68.3027 82.3685 68.3992 82.3886 68.4886 82.4275C68.5781 82.4664 68.6585 82.5232 68.725 82.5945C68.7915 82.6659 68.8427 82.7501 68.8752 82.842C68.9078 82.9339 68.9211 83.0316 68.9143 83.1289Z" fill="#4CAF4F"/>
<path d="M71.1158 83.1392C71.1056 83.278 71.0549 83.4107 70.97 83.521C70.885 83.6312 70.7696 83.7141 70.638 83.7594C70.5064 83.8046 70.3644 83.8102 70.2296 83.7755C70.0948 83.7408 69.9732 83.6673 69.8798 83.5641C69.7864 83.4609 69.7254 83.3326 69.7043 83.195C69.6832 83.0575 69.7029 82.9168 69.761 82.7903C69.8191 82.6638 69.9131 82.5572 70.0312 82.4837C70.1494 82.4102 70.2865 82.3729 70.4257 82.3766C70.6176 82.3882 70.7973 82.4745 70.9263 82.6171C71.0553 82.7596 71.1234 82.9471 71.1158 83.1392Z" fill="#4CAF4F"/>
<path d="M73.3139 83.1496C73.3037 83.2884 73.253 83.4211 73.1681 83.5314C73.0831 83.6416 72.9677 83.7245 72.8361 83.7697C72.7045 83.815 72.5625 83.8206 72.4277 83.7859C72.2929 83.7512 72.1713 83.6777 72.0779 83.5745C71.9846 83.4713 71.9235 83.343 71.9024 83.2054C71.8813 83.0679 71.901 82.9271 71.9591 82.8007C72.0172 82.6742 72.1112 82.5676 72.2294 82.4941C72.3475 82.4205 72.4847 82.3833 72.6238 82.387C72.8157 82.3986 72.9954 82.4849 73.1245 82.6274C73.2535 82.77 73.3215 82.9574 73.3139 83.1496Z" fill="#4CAF4F"/>
<path d="M75.5119 83.1565C75.5024 83.2955 75.4522 83.4286 75.3677 83.5394C75.2831 83.6501 75.1678 83.7335 75.0362 83.7793C74.9047 83.8251 74.7625 83.8312 74.6275 83.7968C74.4925 83.7624 74.3705 83.6892 74.2768 83.5861C74.1831 83.483 74.1217 83.3546 74.1003 83.2169C74.079 83.0792 74.0985 82.9383 74.1566 82.8117C74.2147 82.685 74.3087 82.5782 74.4269 82.5046C74.5452 82.4309 74.6825 82.3936 74.8218 82.3973C75.0131 82.4089 75.1923 82.4948 75.3212 82.6366C75.4501 82.7784 75.5186 82.965 75.5119 83.1565Z" fill="#4CAF4F"/>
<path d="M77.7135 83.1669C77.704 83.3051 77.6544 83.4376 77.5706 83.5481C77.4869 83.6585 77.3727 83.7421 77.242 83.7884C77.1114 83.8348 76.9701 83.8419 76.8355 83.809C76.7008 83.7761 76.5787 83.7045 76.4842 83.6031C76.3897 83.5017 76.327 83.3749 76.3036 83.2383C76.2803 83.1017 76.2974 82.9612 76.3528 82.8342C76.4083 82.7071 76.4997 82.5991 76.6157 82.5233C76.7318 82.4475 76.8675 82.4074 77.0061 82.4077C77.2004 82.4149 77.384 82.4989 77.5166 82.6411C77.6492 82.7834 77.72 82.9725 77.7135 83.1669Z" fill="#4CAF4F"/>
<path d="M79.9114 83.1772C79.9182 83.2745 79.9049 83.3721 79.8723 83.464C79.8397 83.5559 79.7886 83.6402 79.7221 83.7115C79.6556 83.7828 79.5751 83.8397 79.4857 83.8786C79.3963 83.9174 79.2998 83.9375 79.2023 83.9375C79.1048 83.9375 79.0083 83.9174 78.9189 83.8786C78.8294 83.8397 78.749 83.7828 78.6824 83.7115C78.6159 83.6402 78.5648 83.5559 78.5322 83.464C78.4997 83.3721 78.4864 83.2745 78.4932 83.1772C78.4864 83.0799 78.4997 82.9823 78.5322 82.8903C78.5648 82.7984 78.6159 82.7142 78.6824 82.6429C78.749 82.5716 78.8294 82.5147 78.9189 82.4758C79.0083 82.4369 79.1048 82.4169 79.2023 82.4169C79.2998 82.4169 79.3963 82.4369 79.4857 82.4758C79.5751 82.5147 79.6556 82.5716 79.7221 82.6429C79.7886 82.7142 79.8397 82.7984 79.8723 82.8903C79.9049 82.9823 79.9182 83.0799 79.9114 83.1772Z" fill="#4CAF4F"/>
<path d="M82.1095 83.1875C82.1 83.3258 82.0504 83.4583 81.9666 83.5687C81.8829 83.6792 81.7687 83.7627 81.638 83.809C81.5074 83.8554 81.3661 83.8626 81.2314 83.8296C81.0968 83.7967 80.9747 83.7252 80.8802 83.6237C80.7857 83.5223 80.723 83.3955 80.6996 83.2589C80.6763 83.1223 80.6934 82.9818 80.7488 82.8548C80.8043 82.7277 80.8957 82.6197 81.0117 82.5439C81.1278 82.4682 81.2635 82.428 81.4021 82.4283C81.5964 82.4355 81.78 82.5195 81.9126 82.6618C82.0452 82.8041 82.116 82.9931 82.1095 83.1875Z" fill="#4CAF4F"/>
<path d="M84.3074 83.1979C84.2979 83.3369 84.2478 83.47 84.1632 83.5807C84.0786 83.6915 83.9634 83.7749 83.8318 83.8207C83.7002 83.8664 83.558 83.8725 83.423 83.8382C83.288 83.8038 83.166 83.7305 83.0723 83.6274C82.9786 83.5243 82.9172 83.396 82.8959 83.2583C82.8745 83.1206 82.8941 82.9797 82.9521 82.8531C83.0102 82.7264 83.1042 82.6196 83.2225 82.5459C83.3407 82.4723 83.478 82.435 83.6173 82.4387C83.8086 82.4503 83.9878 82.5362 84.1167 82.678C84.2457 82.8198 84.3141 83.0063 84.3074 83.1979Z" fill="#4CAF4F"/>
<g opacity="0.2">
<path d="M66.7164 83.1186C66.7062 83.2574 66.6555 83.3901 66.5706 83.5004C66.4856 83.6106 66.3702 83.6935 66.2386 83.7387C66.107 83.784 65.965 83.7896 65.8302 83.7549C65.6954 83.7202 65.5738 83.6467 65.4804 83.5435C65.387 83.4403 65.326 83.312 65.3049 83.1744C65.2837 83.0369 65.3035 82.8961 65.3616 82.7697C65.4197 82.6432 65.5137 82.5366 65.6318 82.4631C65.75 82.3895 65.8871 82.3523 66.0263 82.356C66.2185 82.3667 66.3988 82.4527 66.528 82.5955C66.6571 82.7383 66.7248 82.9262 66.7164 83.1186Z" fill="white"/>
<path d="M68.9143 83.1289C68.9211 83.2261 68.9078 83.3238 68.8752 83.4157C68.8427 83.5076 68.7915 83.5918 68.725 83.6632C68.6585 83.7345 68.5781 83.7913 68.4886 83.8302C68.3992 83.8691 68.3027 83.8892 68.2052 83.8892C68.1077 83.8892 68.0112 83.8691 67.9218 83.8302C67.8324 83.7913 67.7519 83.7345 67.6854 83.6632C67.6189 83.5918 67.5677 83.5076 67.5352 83.4157C67.5026 83.3238 67.4893 83.2261 67.4961 83.1289C67.4893 83.0316 67.5026 82.9339 67.5352 82.842C67.5677 82.7501 67.6189 82.6659 67.6854 82.5945C67.7519 82.5232 67.8324 82.4664 67.9218 82.4275C68.0112 82.3886 68.1077 82.3685 68.2052 82.3685C68.3027 82.3685 68.3992 82.3886 68.4886 82.4275C68.5781 82.4664 68.6585 82.5232 68.725 82.5945C68.7915 82.6659 68.8427 82.7501 68.8752 82.842C68.9078 82.9339 68.9211 83.0316 68.9143 83.1289Z" fill="white"/>
<path d="M71.1159 83.1393C71.1057 83.2781 71.055 83.4109 70.9701 83.5211C70.8852 83.6314 70.7697 83.7142 70.6381 83.7595C70.5065 83.8047 70.3645 83.8104 70.2297 83.7757C70.095 83.7409 69.9733 83.6674 69.8799 83.5643C69.7866 83.4611 69.7255 83.3327 69.7044 83.1952C69.6833 83.0576 69.703 82.9169 69.7611 82.7904C69.8192 82.664 69.9132 82.5574 70.0314 82.4838C70.1495 82.4103 70.2867 82.373 70.4258 82.3767C70.6177 82.3883 70.7974 82.4746 70.9265 82.6172C71.0555 82.7597 71.1235 82.9472 71.1159 83.1393Z" fill="white"/>
<path d="M73.3139 83.1496C73.3037 83.2884 73.253 83.4211 73.1681 83.5314C73.0831 83.6416 72.9677 83.7245 72.8361 83.7697C72.7045 83.815 72.5625 83.8206 72.4277 83.7859C72.2929 83.7512 72.1713 83.6777 72.0779 83.5745C71.9846 83.4713 71.9235 83.343 71.9024 83.2054C71.8813 83.0679 71.901 82.9271 71.9591 82.8007C72.0172 82.6742 72.1112 82.5676 72.2294 82.4941C72.3475 82.4205 72.4847 82.3833 72.6238 82.387C72.8157 82.3986 72.9954 82.4849 73.1245 82.6274C73.2535 82.77 73.3215 82.9574 73.3139 83.1496Z" fill="white"/>
<path d="M75.5119 83.1565C75.5024 83.2955 75.4522 83.4286 75.3677 83.5394C75.2831 83.6501 75.1678 83.7335 75.0362 83.7793C74.9047 83.8251 74.7625 83.8312 74.6275 83.7968C74.4925 83.7624 74.3705 83.6892 74.2768 83.5861C74.1831 83.483 74.1217 83.3546 74.1003 83.2169C74.079 83.0792 74.0985 82.9383 74.1566 82.8117C74.2147 82.685 74.3087 82.5782 74.4269 82.5046C74.5452 82.4309 74.6825 82.3936 74.8218 82.3973C75.0131 82.4089 75.1923 82.4948 75.3212 82.6366C75.4501 82.7784 75.5186 82.965 75.5119 83.1565Z" fill="white"/>
<path d="M77.7133 83.1669C77.7039 83.3051 77.6543 83.4376 77.5705 83.5481C77.4868 83.6585 77.3725 83.7421 77.2419 83.7884C77.1113 83.8348 76.97 83.8419 76.8353 83.809C76.7007 83.7761 76.5786 83.7045 76.4841 83.6031C76.3896 83.5017 76.3268 83.3749 76.3035 83.2383C76.2801 83.1017 76.2973 82.9612 76.3527 82.8342C76.4082 82.7071 76.4995 82.5991 76.6156 82.5233C76.7317 82.4475 76.8674 82.4074 77.006 82.4077C77.2003 82.4149 77.3839 82.4989 77.5165 82.6411C77.6491 82.7834 77.7199 82.9725 77.7133 83.1669Z" fill="white"/>
<path d="M79.9114 83.1772C79.9182 83.2745 79.9049 83.3721 79.8723 83.464C79.8397 83.5559 79.7886 83.6402 79.7221 83.7115C79.6556 83.7828 79.5751 83.8397 79.4857 83.8786C79.3963 83.9174 79.2998 83.9375 79.2023 83.9375C79.1048 83.9375 79.0083 83.9174 78.9189 83.8786C78.8294 83.8397 78.749 83.7828 78.6824 83.7115C78.6159 83.6402 78.5648 83.5559 78.5322 83.464C78.4997 83.3721 78.4864 83.2745 78.4932 83.1772C78.4864 83.0799 78.4997 82.9823 78.5322 82.8903C78.5648 82.7984 78.6159 82.7142 78.6824 82.6429C78.749 82.5716 78.8294 82.5147 78.9189 82.4758C79.0083 82.4369 79.1048 82.4169 79.2023 82.4169C79.2998 82.4169 79.3963 82.4369 79.4857 82.4758C79.5751 82.5147 79.6556 82.5716 79.7221 82.6429C79.7886 82.7142 79.8397 82.7984 79.8723 82.8903C79.9049 82.9823 79.9182 83.0799 79.9114 83.1772Z" fill="white"/>
<path d="M82.1095 83.1876C82.1 83.3259 82.0504 83.4584 81.9666 83.5688C81.8829 83.6793 81.7687 83.7628 81.638 83.8092C81.5074 83.8555 81.3661 83.8627 81.2314 83.8298C81.0968 83.7968 80.9747 83.7253 80.8802 83.6239C80.7857 83.5225 80.723 83.3956 80.6996 83.259C80.6763 83.1224 80.6934 82.9819 80.7488 82.8549C80.8043 82.7279 80.8957 82.6198 81.0117 82.5441C81.1278 82.4683 81.2635 82.4281 81.4021 82.4285C81.5964 82.4357 81.78 82.5196 81.9126 82.6619C82.0452 82.8042 82.116 82.9932 82.1095 83.1876Z" fill="white"/>
<path d="M84.3074 83.1979C84.2979 83.3369 84.2478 83.47 84.1632 83.5807C84.0786 83.6915 83.9634 83.7749 83.8318 83.8207C83.7002 83.8664 83.558 83.8725 83.423 83.8382C83.288 83.8038 83.166 83.7305 83.0723 83.6274C82.9786 83.5243 82.9172 83.396 82.8959 83.2583C82.8745 83.1206 82.8941 82.9797 82.9521 82.8531C83.0102 82.7264 83.1042 82.6196 83.2225 82.5459C83.3407 82.4723 83.478 82.435 83.6173 82.4387C83.8086 82.4503 83.9878 82.5362 84.1167 82.678C84.2457 82.8198 84.3141 83.0063 84.3074 83.1979Z" fill="white"/>
</g>
<path d="M81.1847 33.3851C81.4244 33.2795 81.6278 33.1058 81.7695 32.8855C81.9113 32.6653 81.9851 32.4082 81.9818 32.1463C81.9907 31.976 81.9649 31.8058 81.9059 31.6458C81.8469 31.4859 81.756 31.3396 81.6386 31.2159C81.5213 31.0923 81.38 30.9938 81.2233 30.9265C81.0667 30.8592 80.898 30.8245 80.7275 30.8245C80.557 30.8245 80.3883 30.8592 80.2317 30.9265C80.0751 30.9938 79.9338 31.0923 79.8164 31.2159C79.6991 31.3396 79.6081 31.4859 79.5491 31.6458C79.4901 31.8058 79.4643 31.976 79.4732 32.1463C79.468 32.4108 79.5412 32.671 79.6837 32.8939C79.8262 33.1168 80.0315 33.2925 80.2738 33.3989C78.3414 33.6887 78.4277 35.7867 78.4277 35.7867L82.9963 35.8074C82.9963 35.8074 83.1033 33.6715 81.1847 33.3851Z" fill="#4CAF4F"/>
<path opacity="0.1" d="M81.1847 33.3851C81.4244 33.2795 81.6278 33.1058 81.7695 32.8855C81.9113 32.6653 81.9851 32.4082 81.9818 32.1463C81.9907 31.976 81.9649 31.8058 81.9059 31.6458C81.8469 31.4859 81.756 31.3396 81.6386 31.2159C81.5213 31.0923 81.38 30.9938 81.2233 30.9265C81.0667 30.8592 80.898 30.8245 80.7275 30.8245C80.557 30.8245 80.3883 30.8592 80.2317 30.9265C80.0751 30.9938 79.9338 31.0923 79.8164 31.2159C79.6991 31.3396 79.6081 31.4859 79.5491 31.6458C79.4901 31.8058 79.4643 31.976 79.4732 32.1463C79.468 32.4108 79.5412 32.671 79.6837 32.8939C79.8262 33.1168 80.0315 33.2925 80.2738 33.3989C78.3414 33.6887 78.4277 35.7867 78.4277 35.7867L82.9963 35.8074C82.9963 35.8074 83.1033 33.6715 81.1847 33.3851Z" fill="black"/>
<path d="M88.6085 37.1604L72.3253 37.0865L72.3165 39.0327L88.5997 39.1066L88.6085 37.1604Z" fill="#4CAF4F"/>
<path opacity="0.2" d="M88.6085 37.1604L72.3253 37.0865L72.3165 39.0327L88.5997 39.1066L88.6085 37.1604Z" fill="white"/>
<path d="M28.746 47.2461H28.5838L28.1145 47.2806C27.8605 47.2959 27.608 47.3293 27.3588 47.3807C27.1974 47.4034 27.0373 47.4345 26.8792 47.4739L26.3444 47.6222C25.434 47.9015 24.5751 48.3269 23.8013 48.8817C22.7788 49.6239 21.925 50.574 21.2961 51.6698C20.9265 52.3014 20.6323 52.9743 20.4197 53.6746C20.1962 54.4357 20.0676 55.2215 20.0367 56.0141C20.0161 56.4305 20.023 56.8477 20.0574 57.2632C20.0574 57.4737 20.116 57.6842 20.1436 57.8981C20.1668 58.1138 20.2072 58.3272 20.2644 58.5365C20.5747 59.9211 21.2043 61.2141 22.1029 62.3122C23.0016 63.4104 24.1444 64.2833 25.4403 64.8614C26.3782 65.2661 27.3835 65.492 28.4044 65.5274C29.4588 65.5854 30.5142 65.4341 31.5099 65.0823L31.8135 64.9684H31.855L31.8895 64.9891L36.2407 67.1975L36.113 67.3079C35.6472 65.8656 35.1986 64.4681 34.7638 63.1258V63.074L34.8018 63.0361C35.8573 61.9729 36.6409 60.6709 37.0861 59.2404C37.4893 57.9326 37.6069 56.5535 37.4311 55.1963C37.2747 53.9901 36.8869 52.8255 36.289 51.7664C35.7736 50.8566 35.1087 50.04 34.3221 49.351C33.6732 48.8056 32.955 48.3484 32.1862 47.9914C31.6045 47.7405 30.9986 47.5498 30.3781 47.4221L29.688 47.3082L29.1876 47.2703L28.884 47.2496H28.7805C28.8149 47.2458 28.8496 47.2458 28.884 47.2496H29.1911L29.6914 47.2703L30.3816 47.3703C31.0098 47.4887 31.6239 47.6726 32.2138 47.919C32.9958 48.2717 33.727 48.7278 34.3877 49.2751C35.1887 49.9611 35.8677 50.7778 36.3959 51.6905C37.0109 52.761 37.4106 53.9414 37.5726 55.1652C37.763 56.5434 37.6535 57.9464 37.2517 59.2784C36.8036 60.7386 36.0079 62.0683 34.9329 63.1534L34.9536 63.0637C35.3884 64.406 35.8404 65.8034 36.3097 67.2423L36.3752 67.4528L36.1786 67.3528L31.8273 65.1478H31.9033L31.5927 65.2617C30.5779 65.6188 29.5029 65.7735 28.4285 65.7172C27.3856 65.6775 26.3593 65.4434 25.4023 65.0271C23.5769 64.2453 22.0581 62.8865 21.0787 61.1589C20.6281 60.3611 20.2989 59.5005 20.1022 58.6055C20.0483 58.3908 20.008 58.173 19.9814 57.9533C19.9538 57.7359 19.909 57.522 19.8986 57.3081C19.8052 56.0803 19.935 54.8458 20.2816 53.6642C20.4996 52.9543 20.8019 52.2731 21.1823 51.6353C21.8262 50.5296 22.6977 49.5733 23.7391 48.8299C24.5258 48.2737 25.3991 47.8516 26.3236 47.5808L26.8654 47.4428C27.0248 47.4058 27.1861 47.377 27.3485 47.3565C27.6002 47.3099 27.8551 47.2822 28.1111 47.2737L28.5838 47.2565C28.6375 47.2492 28.6917 47.2458 28.746 47.2461Z" fill="#4CAF4F"/>
<path d="M30.7128 55.2929H30.0744L28.6942 53.3536V52.0804C28.6942 52.0804 27.7073 52.0183 27.8246 53.6849C27.942 55.3515 27.8246 54.9271 27.8246 54.9271C27.8246 54.9271 25.7301 54.9271 25.5576 55.1169C25.3851 55.3067 25.3747 57.3287 25.3506 58.4571C25.3373 58.7291 25.4154 58.9977 25.5723 59.2203C25.7292 59.4428 25.956 59.6066 26.2167 59.6855C26.2897 59.7057 26.3651 59.7162 26.441 59.7166C26.9654 59.7166 29.6328 59.2921 29.6328 59.2921H30.7335L30.7128 55.2929Z" fill="#4CAF4F"/>
<path d="M32.5382 54.9513L32.1448 59.3129H31.0544V55.041L32.5382 54.9513Z" fill="#4CAF4F"/>
<path d="M45.5435 143.746V140.795L40.2537 140.757L40.2089 145.219L40.5367 145.243C41.9963 145.336 47.9624 145.474 48.9423 145.171C50.0327 144.832 45.5435 143.746 45.5435 143.746Z" fill="#4CAF4F"/>
<path d="M49.0666 144.895C49.0666 144.943 47.086 144.984 44.6464 144.984C42.2068 144.984 40.2262 144.943 40.2262 144.895C40.2262 144.846 42.2068 144.805 44.6464 144.805C47.086 144.805 49.0666 144.846 49.0666 144.895Z" fill="#263238"/>
<path d="M45.6367 144.349C45.5918 144.325 45.6367 144.17 45.7436 144.004C45.8506 143.839 45.9955 143.77 46.03 143.804C46.0645 143.839 45.9921 143.97 45.8886 144.111C45.785 144.253 45.6815 144.374 45.6367 144.349Z" fill="#263238"/>
<path d="M45.9748 144.543C45.9265 144.543 45.9507 144.349 46.0542 144.167C46.1577 143.984 46.2957 143.873 46.3337 143.901C46.3717 143.928 46.3095 144.084 46.2129 144.246C46.1163 144.408 46.0197 144.56 45.9748 144.543Z" fill="#263238"/>
<path d="M41.8203 144.881C41.7996 144.881 41.7203 144.819 41.6064 144.688C41.4674 144.519 41.3126 144.364 41.144 144.225C40.9783 144.093 40.7808 144.006 40.5712 143.973C40.409 143.953 40.3055 143.973 40.2952 143.953C40.2848 143.932 40.3849 143.859 40.5747 143.846C40.8251 143.84 41.0694 143.923 41.2648 144.08C41.4478 144.229 41.6021 144.411 41.7203 144.615C41.7996 144.767 41.841 144.867 41.8203 144.881Z" fill="#263238"/>
<path d="M45.6539 143.794C45.6781 143.835 45.5884 143.939 45.4366 143.994C45.2847 144.049 45.1502 144.028 45.1433 143.994C45.1364 143.959 45.2433 143.887 45.3745 143.839C45.5056 143.79 45.6263 143.752 45.6539 143.794Z" fill="#263238"/>
<path d="M45.5711 143.507C45.5711 143.559 45.4331 143.601 45.2537 143.604C45.0742 143.607 44.9328 143.566 44.9362 143.518C44.9397 143.469 45.0811 143.425 45.2537 143.421C45.4262 143.418 45.5642 143.459 45.5711 143.507Z" fill="#263238"/>
<path d="M58.5695 143.746V140.795L53.2797 140.757L53.2349 145.174L53.5627 145.198C55.0223 145.291 60.9918 145.474 61.9683 145.171C63.0587 144.832 58.5695 143.746 58.5695 143.746Z" fill="#4CAF4F"/>
<path d="M62.0926 144.901C62.0926 144.95 60.1154 144.991 57.6724 144.991C55.2294 144.991 53.2556 144.95 53.2556 144.901C53.2556 144.853 55.2328 144.812 57.6724 144.812C60.112 144.812 62.0926 144.853 62.0926 144.901Z" fill="#263238"/>
<path d="M58.6627 144.349C58.6213 144.325 58.6627 144.17 58.7696 144.004C58.8766 143.839 59.0215 143.77 59.056 143.804C59.0905 143.839 59.0181 143.97 58.9146 144.111C58.811 144.253 58.7075 144.374 58.6627 144.349Z" fill="#263238"/>
<path d="M59.0009 144.543C58.956 144.543 58.9767 144.349 59.0837 144.167C59.1907 143.984 59.3252 143.873 59.3632 143.901C59.4012 143.928 59.3356 144.084 59.239 144.246C59.1424 144.408 59.0492 144.56 59.0009 144.543Z" fill="#263238"/>
<path d="M54.8463 144.881C54.8256 144.881 54.7497 144.819 54.6324 144.688C54.4934 144.519 54.3386 144.364 54.17 144.225C54.0043 144.093 53.8068 144.006 53.5972 143.973C53.4385 143.953 53.3315 143.973 53.3212 143.953C53.3108 143.932 53.4109 143.859 53.6007 143.846C53.8511 143.84 54.0955 143.923 54.2908 144.08C54.4747 144.228 54.6292 144.41 54.7463 144.615C54.8256 144.767 54.867 144.867 54.8463 144.881Z" fill="#263238"/>
<path d="M58.6799 143.794C58.7041 143.835 58.6144 143.939 58.4626 143.994C58.3107 144.049 58.1762 144.028 58.1693 143.994C58.1624 143.959 58.2693 143.887 58.4005 143.839C58.5316 143.79 58.6523 143.752 58.6799 143.794Z" fill="#263238"/>
<path d="M58.6041 143.507C58.6041 143.559 58.466 143.601 58.2866 143.604C58.1072 143.607 57.9691 143.566 57.9726 143.518C57.976 143.469 58.1141 143.425 58.2866 143.421C58.4591 143.418 58.6041 143.459 58.6041 143.507Z" fill="#263238"/>
<path d="M78.0585 56.1348C77.9205 55.9933 77.5789 56.0623 77.5789 56.0623C77.6131 55.8637 77.6131 55.6606 77.5789 55.4619C77.5168 55.2687 77.082 55.3067 77.082 55.3067C77.062 55.1439 77.062 54.9794 77.082 54.8167C77.0855 54.7806 77.0777 54.7444 77.0598 54.7129C77.0419 54.6814 77.0147 54.6562 76.9819 54.6407C76.7762 54.5568 76.5553 54.5169 76.3332 54.5234C76.0675 54.3336 77.1441 52.8257 77.5444 52.3426C77.9446 51.8595 77.8722 51.4834 77.5168 51.4834C77.2718 51.4834 76.0158 52.9327 75.6293 53.4192C75.2428 53.9057 74.218 55.2584 74.1835 54.1783C74.149 53.0983 73.7142 52.2839 73.4416 52.1459C73.169 52.0079 72.8792 52.3322 73.0275 52.6324C73.1579 52.9735 73.2392 53.3313 73.2691 53.6952C73.3066 53.9851 73.2937 54.2793 73.2311 54.5648C73.1167 55.096 72.961 55.6175 72.7653 56.1245H72.7377C72.7377 56.1245 65.2085 63.3466 64.6633 63.8607C64.1768 64.3231 54.3909 63.312 52.4275 63.105C51.7603 63.0074 51.0866 62.9612 50.4123 62.967C49.56 63.0049 49.4082 63.1257 48.5593 63.1361C46.4156 63.1599 44.2769 63.3479 42.1619 63.6985C41.2043 63.8613 40.3097 64.284 39.5759 64.9205C38.842 65.557 38.2971 66.3828 38.0005 67.3078C36.0233 73.4844 31.5444 88.1046 30.7542 96.317C30.1571 97.3998 29.6181 98.5137 29.1394 99.6538C28.5838 101.165 28.7184 101.217 28.9047 101.251C29.4085 101.345 29.9813 98.6324 30.1953 99.288C30.4092 99.9436 29.1083 102.521 29.6363 102.597C30.3264 102.694 30.875 99.8366 30.9406 99.6089C31.0061 99.3812 31.3478 99.4536 31.2856 99.6676C31.1856 99.9712 30.216 103.191 30.8923 103.294C31.2649 103.349 31.3063 102.67 31.3063 102.67C31.3063 102.67 31.9965 99.5882 32.3105 99.6503C32.6245 99.7124 32.2898 101.531 32.131 102.138C31.9723 102.745 32.1931 103.053 32.5175 102.904C32.7383 102.801 33.2663 100.955 33.4112 100.354C33.5561 99.7538 33.9184 98.0906 34.405 99.0534C34.8915 100.016 35.6299 100.575 35.9336 100.589C36.002 100.581 36.0665 100.553 36.1188 100.508C36.1711 100.463 36.2087 100.404 36.2269 100.337C36.2451 100.271 36.243 100.2 36.2208 100.135C36.1987 100.07 36.1575 100.013 36.1027 99.9712C35.8415 99.7162 35.6173 99.4258 35.4367 99.1086C35.2757 98.8615 35.159 98.5882 35.0917 98.3011C34.9526 97.7287 34.8717 97.1438 34.8501 96.5551L34.7949 96.2101C35.5678 92.3833 37.7935 81.1516 41.006 73.9778L42.3241 76.69L42.8969 78.6983L39.3842 87.3696L54.3667 87.1729L52.1307 78.5672L54.8463 69.5956C57.7828 69.6611 65.3224 69.7716 66.5784 69.2022C68.1587 68.5121 76.3332 58.1879 76.3332 58.1879C76.8661 57.7739 77.3763 57.3316 77.8618 56.8629C77.8618 56.8629 78.3587 56.4454 78.0585 56.1348Z" fill="#FFBE9D"/>
<path d="M38.7251 80.9619C39.1599 79.4782 41.3925 72.1422 41.3925 72.1422C41.3925 72.1422 42.4898 78.1221 42.1999 78.8433C41.9333 79.4606 41.6183 80.056 41.2579 80.6238C38.7251 84.4781 39.0564 86.407 39.0564 86.407L54.3598 85.9411C54.3943 83.8018 53.1279 78.826 52.8657 78.0324C52.6035 77.2387 53.4765 74.6404 53.4765 74.6404C53.4765 74.6404 55.2018 72.8841 55.1397 71.98C55.1069 71.1679 55.0065 70.36 54.8394 69.5646L64.1561 69.9097L63.8628 63.5951L50.4813 62.2562C50.0155 63.5709 45.8023 62.9256 45.8023 62.9256C41.2544 63.0775 40.9715 63.9125 39.0806 65.3825C37.1896 66.8524 34.0599 79.4678 34.0599 79.4678L38.7251 80.9619Z" fill="#4CAF4F"/>
<path d="M47.7727 79.4677C47.5074 79.5151 47.2373 79.529 46.9687 79.5091C46.4683 79.5091 45.7817 79.4746 45.026 79.3987C44.2703 79.3228 43.5871 79.2158 43.1005 79.1192C42.8323 79.0846 42.5692 79.0174 42.3173 78.9191C42.587 78.9192 42.8562 78.9446 43.1213 78.995C43.6112 79.0571 44.291 79.1434 45.0432 79.2193C45.7955 79.2952 46.4787 79.3469 46.9721 79.3814C47.2411 79.3849 47.5091 79.4137 47.7727 79.4677Z" fill="#263238"/>
<path d="M48.8216 78.1669C48.5563 78.2968 48.2758 78.393 47.9865 78.4533C46.6099 78.815 45.1896 78.9834 43.7665 78.9536C43.472 78.9632 43.1775 78.9354 42.89 78.8708C43.1806 78.8341 43.4736 78.8191 43.7665 78.8259C44.3082 78.8087 45.0535 78.7707 45.8748 78.6741C46.696 78.5775 47.4275 78.4395 47.9451 78.329C48.2326 78.2523 48.5257 78.1981 48.8216 78.1669Z" fill="#263238"/>
<path d="M53.9698 72.363C53.9629 72.6261 53.927 72.8876 53.8629 73.1429C53.7732 73.6225 53.6351 74.2781 53.4591 74.9958C53.2832 75.7136 53.1141 76.3761 52.9623 76.8247C52.9012 77.0814 52.8109 77.3303 52.6931 77.5665C52.7123 77.3043 52.761 77.045 52.838 76.7936C52.9692 76.2553 53.1175 75.6342 53.2832 74.9544C53.4488 74.2747 53.6075 73.6536 53.7386 73.1153C53.7854 72.8562 53.863 72.6036 53.9698 72.363Z" fill="#263238"/>
<path d="M38.8873 80.082C38.089 79.9587 37.3012 79.7753 36.5305 79.5333C35.7431 79.3492 34.9703 79.107 34.2186 78.8087C35.0165 78.934 35.8042 79.1174 36.5754 79.3574C37.363 79.5408 38.1358 79.7831 38.8873 80.082Z" fill="#263238"/>
<path d="M55.005 69.4886C54.8748 69.511 54.7418 69.511 54.6116 69.4886C54.2512 69.4517 53.8973 69.367 53.5592 69.2367C52.9947 69.0246 52.4809 68.6968 52.0506 68.2743C51.6204 67.8517 51.2833 67.3439 51.061 66.7834C50.8152 66.1667 50.7103 65.503 50.7539 64.8407C50.7692 64.2943 50.9326 63.7625 51.2266 63.3017C51.4334 62.9913 51.7422 62.763 52.0996 62.6564C52.1951 62.6301 52.2938 62.6173 52.3929 62.6185C52.4619 62.6185 52.4964 62.6185 52.4964 62.6185C52.4964 62.6185 52.3515 62.6185 52.1203 62.7116C51.7924 62.8328 51.5143 63.0599 51.3301 63.3569C50.8608 64.0953 50.7297 65.4445 51.23 66.704C51.4629 67.2978 51.8275 67.8311 52.2963 68.2637C52.6804 68.6176 53.1229 68.9024 53.6041 69.1056C54.0556 69.2841 54.5254 69.4125 55.005 69.4886Z" fill="#263238"/>
<path d="M63.0484 69.7854C62.9621 68.7272 62.9345 67.6651 62.9656 66.6039C62.9386 65.5436 62.9709 64.4826 63.0622 63.4259C63.1486 64.4829 63.1763 65.5439 63.1451 66.6039C63.1741 67.6654 63.1418 68.7276 63.0484 69.7854Z" fill="#263238"/>
<path d="M50.3915 62.6426C50.4295 61.8731 50.5089 61.0036 50.5089 61.0036C50.5089 61.0036 52.4136 60.7931 52.5275 58.8263C52.6413 56.8594 52.5275 52.3219 52.5275 52.3219L49.0769 50.5552L45.2467 53.5675L45.8368 63.4018L49.3495 63.626C49.618 63.6335 49.8785 63.5341 50.0738 63.3498C50.2692 63.1654 50.3834 62.9111 50.3915 62.6426Z" fill="#FFBE9D"/>
<path d="M50.7332 57.2701C50.7332 57.2701 50.7332 57.308 50.7022 57.3529C50.6765 57.3854 50.6433 57.4112 50.6054 57.4281C50.5675 57.4449 50.5261 57.4523 50.4848 57.4495C50.2639 57.4495 50.05 57.1942 49.9741 56.8974C49.938 56.7536 49.938 56.603 49.9741 56.4592C49.9812 56.3964 50.0038 56.3364 50.04 56.2846C50.0761 56.2327 50.1246 56.1908 50.1811 56.1624C50.2275 56.1433 50.2796 56.1433 50.326 56.1624C50.3604 56.1795 50.3883 56.2074 50.4054 56.2418C50.4296 56.3005 50.4054 56.3384 50.4054 56.335C50.4054 56.3315 50.4054 56.3005 50.3709 56.266C50.3529 56.2413 50.3263 56.2241 50.2964 56.2177C50.2665 56.2113 50.2353 56.2162 50.2087 56.2315C50.1664 56.2571 50.1312 56.2929 50.1065 56.3358C50.0818 56.3786 50.0683 56.427 50.0672 56.4765C50.0382 56.6048 50.0382 56.738 50.0672 56.8664C50.1363 57.1355 50.3226 57.3529 50.4882 57.3736C50.5206 57.378 50.5536 57.3757 50.5851 57.3668C50.6165 57.3579 50.6458 57.3426 50.6711 57.3219C50.7125 57.2942 50.7263 57.2666 50.7332 57.2701Z" fill="#EB996E"/>
<path d="M53.7111 51.2591C53.4454 50.3551 52.4827 49.9065 51.6063 49.6581C50.2709 49.2785 48.8285 49.1129 47.5242 49.5925C46.2199 50.0721 44.6533 50.9141 44.6533 52.353C43.8838 52.2909 43.4421 52.9637 43.1385 53.7988C42.9443 54.3075 42.828 54.8426 42.7934 55.386C42.6968 57.2701 42.1689 59.8718 40.9474 61.2521C40.2572 62.0216 39.3014 62.5529 38.9081 63.5122C38.563 64.3438 38.7424 65.3307 38.4215 66.1726C38.1351 66.9145 37.5037 67.4424 37.0413 68.0877C36.5702 68.8197 36.293 69.6595 36.2356 70.528C36.1783 71.3966 36.3427 72.2655 36.7135 73.0531C37.0869 73.8205 37.6126 74.5038 38.2587 75.0615C38.9047 75.6191 39.6575 76.0394 40.4712 76.2967C42.083 76.787 43.8017 76.8038 45.4228 76.345C46.6394 76.0541 47.7743 75.4914 48.7423 74.6991C49.7327 73.8902 50.413 72.7638 50.6677 71.5107C50.9127 70.1029 50.5193 68.6709 50.226 67.2699C49.3082 62.8428 49.5704 62.6116 50.7298 58.5019C50.7574 58.4295 50.7712 58.3536 50.7919 58.2811C50.8126 58.2086 50.823 58.1741 50.8368 58.1189C50.8697 57.9565 50.887 57.7912 50.8885 57.6255C50.7192 57.6885 50.5354 57.7018 50.3587 57.6639C50.1821 57.626 50.0199 57.5384 49.8913 57.4115C49.7624 57.2762 49.6725 57.1086 49.6312 56.9263C49.5899 56.7441 49.5987 56.554 49.6567 56.3764C49.7381 56.1821 49.8594 56.007 50.0128 55.8626C50.1661 55.7181 50.3481 55.6075 50.5469 55.5379C50.9299 55.3791 51.3406 55.2963 51.7167 55.1204C52.5138 54.7408 53.0659 53.954 53.442 53.1294C53.7512 52.5578 53.8466 51.8947 53.7111 51.2591Z" fill="#263238"/>
<path d="M50.8712 57.3633C50.9441 57.471 51.0043 57.5868 51.0507 57.7083C51.1542 57.9257 51.2922 58.2328 51.444 58.5882L51.4716 58.6538H51.3992L51.0541 58.6849C50.816 58.6849 50.6159 58.7297 50.3812 58.7263C50.3608 58.7217 50.3419 58.712 50.3262 58.6981C50.3105 58.6842 50.2986 58.6666 50.2915 58.6469C50.2812 58.6155 50.2812 58.5817 50.2915 58.5503C50.2995 58.5038 50.3099 58.4577 50.3226 58.4123L50.3847 58.1673C50.4159 58.0038 50.4645 57.8442 50.5296 57.6911C50.5232 57.8577 50.4989 58.0231 50.4571 58.1845L50.4088 58.4295C50.3916 58.5123 50.3605 58.64 50.4088 58.6297C50.5814 58.6297 50.8264 58.5917 51.0541 58.5779L51.3992 58.5468L51.3543 58.6227C51.2059 58.2777 51.0817 57.9533 51.0092 57.729C50.9457 57.6145 50.8992 57.4913 50.8712 57.3633Z" fill="#4CAF4F"/>
<path d="M39.0564 86.4069L54.3598 85.941L61.0194 111.938L59.7945 141.758H51.7028L52.6931 112.573L46.7754 94.4744L47.6863 142.914L39.5084 143.035L38.6492 97.504C38.6112 96.2376 38.1972 93.384 38.3524 92.128L39.0564 86.4069Z" fill="#263238"/>
<path d="M48.8112 94.8436C48.5607 94.8594 48.3093 94.8443 48.0624 94.7987C47.6001 94.7435 46.9686 94.6469 46.275 94.5089C45.5815 94.3709 44.9604 94.2121 44.5118 94.0845C44.272 94.0318 44.04 93.9483 43.8217 93.836C43.8217 93.7843 44.9465 94.0534 46.3268 94.3329C47.707 94.6124 48.8181 94.7918 48.8112 94.8436Z" fill="#455A64"/>
<path d="M59.7117 140.122C59.7117 140.171 57.8794 140.212 55.6193 140.212C53.3592 140.212 51.5234 140.171 51.5234 140.122C51.5234 140.074 53.3557 140.033 55.6193 140.033C57.8829 140.033 59.7117 140.071 59.7117 140.122Z" fill="#455A64"/>
<path d="M47.6138 141.654C47.6138 141.706 45.8333 141.744 43.6388 141.744C41.4442 141.744 39.6671 141.706 39.6671 141.654C39.6671 141.603 41.4476 141.565 43.6388 141.565C45.8299 141.565 47.6138 141.606 47.6138 141.654Z" fill="#455A64"/>
<path d="M46.5581 141.53C46.5098 141.53 46.2958 130.947 46.0784 117.894C45.861 104.84 45.7334 94.2501 45.7782 94.2501C45.8231 94.2501 46.0439 104.83 46.2579 117.89C46.4718 130.951 46.6098 141.53 46.5581 141.53Z" fill="#455A64"/>
<path d="M58.6247 140.122C58.6209 140.075 58.6209 140.028 58.6247 139.981V139.567C58.6247 139.194 58.6523 138.659 58.673 137.98C58.7213 136.599 58.7903 134.594 58.8766 132.138C59.0629 127.196 59.3252 120.385 59.6116 112.866C59.6116 112.794 59.6116 112.725 59.6116 112.662V112.687C57.8 105.44 56.161 98.8635 54.9705 94.1051L53.5903 88.4772C53.4315 87.8182 53.3108 87.304 53.2245 86.9452C53.1831 86.7761 53.1555 86.6449 53.1313 86.5449C53.1179 86.5 53.1098 86.4537 53.1072 86.4069C53.1251 86.4503 53.139 86.4954 53.1486 86.5414C53.1762 86.638 53.2107 86.7692 53.259 86.9348C53.3522 87.2799 53.4867 87.8043 53.6593 88.46C54.0043 89.7919 54.4909 91.7104 55.0982 94.0741C56.299 98.829 57.9553 105.389 59.791 112.645V112.669C59.791 112.731 59.791 112.804 59.791 112.873C59.4839 120.392 59.2044 127.2 59.0008 132.141C58.8938 134.601 58.8041 136.592 58.742 137.98C58.7075 138.67 58.6799 139.194 58.6626 139.567C58.6626 139.743 58.6419 139.881 58.6385 139.981C58.639 140.028 58.6344 140.076 58.6247 140.122Z" fill="#455A64"/>
<path d="M55.9851 112.055C55.4039 112.246 54.8051 112.379 54.1977 112.452C53.4523 112.58 52.8174 112.669 52.531 112.683V112.614C52.6242 112.642 52.6725 112.659 52.6725 112.673C52.6725 112.687 52.6138 112.673 52.5172 112.673H52.3102L52.5172 112.611C52.7864 112.531 53.4213 112.4 54.1666 112.266C54.7644 112.136 55.3735 112.065 55.9851 112.055Z" fill="#455A64"/>
<path d="M55.8435 113.046C55.3053 113.07 54.7659 113.046 54.2321 112.973C53.6931 112.962 53.1561 112.903 52.6276 112.797C53.7059 112.709 54.7915 112.793 55.8435 113.046Z" fill="#455A64"/>
<path opacity="0.2" d="M38.9908 86.9555C39.1721 87.1882 39.4004 87.3801 39.6608 87.5187C39.9212 87.6572 40.2079 87.7393 40.5022 87.7595C41.1185 87.8325 41.742 87.8209 42.3552 87.725C46.3061 87.2868 50.4917 86.8831 54.3598 85.941C49.353 86.2205 44.0632 86.1274 39.0564 86.4069L39.0046 86.8347" fill="black"/>
<g opacity="0.2">
<path d="M44.1494 94.0121L46.972 104.964L46.7753 94.4745L44.1494 94.0121Z" fill="black"/>
</g>
</svg>
